        <svg
          id="atriskmedia-wordmark"
          data-name="At Risk Media wordmark"
          xmlns="http://www.w3.org/2000/svg"
          viewBox="0 0 4079.5544 537.09998"
        >
          <path
            d="M 0,227.1 C 0.6,222.4 1.4,217.7 1.9,213 11.9,125.2 81.6,54.9 169.3,44.2 175.7,43.4 182.2,43.1 188.7,43.1 262.2,43 335.7,43 409.2,43 h 6.5 V 529.8 H 277.2 V 399.4 H 139.3 V 530.1 H 0 c 0,-101 0,-202 0,-303 z m 139,64.3 h 138 v -5.6 c 0,-22.8 0.4,-45.6 -0.1,-68.5 -0.6,-27.1 -13.9,-46.5 -38.2,-58.3 -11.9,-5.8 -24.8,-5.7 -37.6,-5.4 -30.2,0.7 -57.2,24.4 -60.9,54.4 -1.4,11.8 -1,23.9 -1.1,35.9 -0.2,15.6 -0.1,31.3 -0.1,47.5 z"
            id="path2"
          />
          <path
            d="m 572,537.1 c -6.9,-1.4 -13.8,-2.7 -20.6,-4.3 -46.2,-10.8 -73.2,-40.1 -83.3,-85.9 -4.2,-19.1 -6,-38.4 -6,-57.9 0,-112.8 0,-225.6 0,-338.4 V 44.4 H 587.2 V 155 h 79.6 v 140 h -79.4 c -0.1,1.8 -0.3,3.2 -0.3,4.6 0,25 -0.2,50 0.1,75 0.2,13.9 3.2,27.4 9.4,39.9 5.9,12 16.5,15.5 28.9,15.6 13.2,0.1 26.3,0.5 39.5,0.4 4.1,0 5.8,1.5 6.2,5.2 0.3,3 0.9,5.9 0.9,8.9 0.1,23 0,46 0,69 0,0.2 0,0.3 0,0.5 -0.1,13.4 -1.1,14.9 -14.5,17.1 -11.3,1.9 -22.7,3.3 -34,4.9 -0.5,0.1 -1,0.6 -1.5,0.9 z"
            id="path4"
          />
          <path
            d="M 2333.8,533.6 V 194.3 c -1.6,-0.2 -2.9,-0.5 -4.1,-0.5 -18,0 -36,-0.1 -54,0 -18.4,0.2 -33.9,11.9 -37.8,28.4 -0.6,2.7 -0.7,5.6 -0.7,8.4 0,99 0,198 0,297 0,2 0,3.9 0,6.1 h -137.9 c 0,-2.1 0,-4 0,-6 0,-94.2 0.1,-188.3 0,-282.5 -0.1,-60.4 28.3,-103.7 79.6,-133 26.3,-15 55,-21.6 85.3,-21.6 130,0 260,0 390,0 H 2707 V 533.7 H 2569.6 V 194.2 c -1.9,-0.2 -3.3,-0.4 -4.7,-0.4 -17.7,0 -35.3,-0.1 -53,0 -18.3,0.1 -33.7,11.4 -37.9,27.6 -1,3.8 -1.1,7.9 -1.1,11.9 -0.1,98.3 -0.1,196.7 -0.1,295 0,1.7 0,3.3 0,5.4 z"
            id="path6"
          />
          <path
            d="m 1070.4,345.6 c 8.4,7.1 17,13.5 24.6,20.9 14.1,13.8 20.7,31 21.1,50.7 0.5,32 1,63.9 1.5,95.8 0.1,5.5 0,10.9 0,16.7 H 986 v -5.5 c 0,-20.3 -0.1,-40.7 0,-61 0.1,-18 -4.8,-34.2 -17.4,-47.4 -11.4,-12 -25,-19.7 -42.1,-19.8 -24.2,-0.1 -48.3,0 -72.5,0 h -6 V 530.2 H 713.4 V 43.6 h 6.1 c 78.7,0 157.3,-0.3 236,0.1 39.2,0.2 73.9,14 103.5,39.7 33.1,28.8 52.3,65.4 55.7,109.1 2.6,33.2 2.7,66.6 -9.7,98.5 -8.1,20.5 -19.6,38.9 -34.6,54.6 z M 848.2,292.1 c 25.7,0 50.8,0.5 75.9,-0.2 19.8,-0.6 36.2,-9.2 48.5,-24.9 11.1,-14.1 13.7,-30.4 13.5,-47.9 -0.4,-36.8 -28.4,-65.1 -65.2,-65.1 -22.5,0 -45,0 -67.4,0 h -5.3 z"
            id="path8"
          />
          <path
            d="m 3497.3,0.3 v 533.8 c -1.4,0 -3.1,0 -4.9,0 -62.6,0 -125.3,0.2 -187.9,-0.1 -18.7,-0.1 -37.6,-1.2 -55.4,-7.2 -15.8,-5.3 -30.9,-12.3 -45,-21.8 -10.4,-7 -19.7,-14.8 -28.3,-23.8 -7.5,-7.8 -13.7,-16.5 -19.3,-25.8 -8.6,-14.5 -14.9,-29.8 -19.7,-46 -3.7,-12.6 -5.2,-25.2 -5.6,-38.1 -0.4,-12.5 -0.6,-25 0.1,-37.5 0.7,-12.4 1.2,-25.1 4.2,-37.1 3.4,-13.2 9.2,-25.8 14.6,-38.4 6.6,-15.5 16.7,-28.8 28.3,-40.8 7.1,-7.4 15.8,-13.3 24,-19.5 14.1,-10.6 30.3,-17.1 46.8,-22.8 7.9,-2.7 16.5,-4.5 24.9,-5 19.8,-1.3 39.7,-1.7 59.6,-2.1 6.5,-0.1 13.1,1 19.6,1.9 5.8,0.8 11.8,-4.1 11.8,-10.1 0,-34.3 -0.2,-68.6 0.1,-103 0.1,-12.1 4.7,-23 11.5,-33.2 8.7,-13.1 21.4,-18.9 35.8,-22.3 3.6,-0.9 7.5,-1.3 11.2,-1.3 23.3,-0.1 46.7,-0.1 70,-0.1 0.9,0.1 1.9,0.2 3.6,0.3 z m -155,423.8 c 12.8,0 25.6,0 38.5,0 5.5,0 10.2,-4.8 10.2,-10.2 0,-25.2 0.4,-50.3 -0.2,-75.5 -0.2,-6.5 -3.1,-13.2 -5.5,-19.5 -2.8,-7.4 -7.7,-13.4 -12.9,-19.5 -7.4,-8.6 -16,-14.9 -26.2,-19.3 -12.7,-5.5 -26.3,-4.4 -39.6,-3.7 -8,0.4 -16.3,2.4 -23.6,5.6 -10.1,4.4 -17.9,12.3 -25.3,20.6 -6.6,7.5 -10.4,16 -13.5,25 -1.6,4.5 -1.5,9.6 -2.2,14.5 -1.7,12.5 -0.3,24.4 4.5,36.4 5.4,13.5 14.2,23.8 25.2,32.6 10.9,8.7 23.4,13.4 37.6,13 11,-0.3 22,0 33,0 z"
            id="path10"
          />
          <path
            d="M 2027.5,530.9 H 1896 v -5.5 c 0,-20.2 -0.2,-40.3 0,-60.5 0.2,-18.4 -4.7,-34.9 -17.6,-48.3 -11.3,-11.8 -24.8,-19.4 -41.7,-19.5 -5,0 -10,0 -15.5,0 V 531.3 H 1686.4 V 45 h 134.5 v 247.4 c 25.4,3.6 51.1,-7.4 65.2,-29.2 7.4,-11.5 8.8,-24.2 9.3,-37.2 0.6,-15.6 0.8,-31.3 1.1,-46.9 0.1,-7.8 0,-15.6 0,-23.7 H 2026 v 17.9 c 0,18 0.1,36 0,54 -0.4,42.6 -12.1,81.3 -40.7,113.9 -1.6,1.9 -3.3,3.7 -5.5,6.1 2.4,1.6 4.6,3.2 6.9,4.7 18.9,12.9 33.7,28.9 37.8,52.3 1.7,9.9 1.8,20.2 2,30.3 0.6,26 0.8,51.9 1.1,77.9 0,5.9 -0.1,11.9 -0.1,18.4 z"
            id="path12"
          />
          <path
            d="m 3106.3,438.8 c 1,29.7 2,58.9 3.1,88.7 -11.9,0.5 -23.2,1 -34.5,1.3 -54,1.8 -107.9,3.9 -161.9,5.4 -18.1,0.5 -36.4,-0.2 -53.9,-5.3 -16.4,-4.7 -32.5,-10.5 -46.6,-20.5 -8.5,-6 -17.6,-11.2 -25.2,-18.2 -9.5,-8.8 -17.7,-18.9 -24.9,-29.9 -10,-15.4 -16.9,-31.8 -22.6,-49.1 -5.5,-16.7 -5.7,-33.7 -6.6,-50.8 -0.4,-9.2 -0.7,-18.3 -1,-27.5 -0.7,-21.6 4.4,-42.1 11.8,-62 7.8,-21 19.8,-39.6 35.4,-55.8 9.2,-9.5 19.7,-17.4 31,-24.5 16.7,-10.5 34.8,-17 53.8,-22 22.3,-5.9 44.9,-5.4 67.5,-6 19.1,-0.5 38,3.3 56,9.3 14.4,4.8 28.6,10.8 40.9,20.5 6.7,5.3 14.2,9.7 20.4,15.5 12.8,12.2 23.6,26.1 32.1,41.8 9.8,17.9 16.3,36.7 19.6,56.6 1.3,8 1.5,16.2 1.9,24.3 0.7,17.1 1.2,34.3 1.8,51.9 -2,0.2 -3.6,0.3 -5.2,0.4 -62.1,2.1 -124.2,4.2 -186.4,6.3 -14.2,0.5 -28.3,1.1 -42.5,1.7 -6.1,0.2 -10.1,6.2 -9,12 2.7,14.1 11.8,23.2 22.4,31.8 10.2,8.2 21.6,10.7 34,10.3 60.9,-2 121.9,-4.2 182.9,-6.3 1.6,0.1 3.3,0.1 5.7,0.1 z M 2923.5,315.6 c 17.1,-0.6 34.2,-1.1 51.3,-1.7 4.2,-0.1 8.6,-4.9 8.4,-9.1 -0.3,-6.9 -3.2,-12.8 -6.4,-18.7 -6.3,-11.5 -15.9,-19.6 -27.1,-25.8 -11,-6.1 -23.3,-5.6 -35.3,-4.4 -7.9,0.8 -16.1,2.5 -22.5,8 -5.2,4.6 -10.2,9.4 -15.1,14.4 -7.1,7.3 -11,16.1 -12.5,26.2 -1.1,7.8 4.1,13.7 11.9,13 15.8,-1.2 31.6,-1.4 47.3,-1.9 z"
            id="path14"
          />
          <path
            d="m 4079,534.1 c -2.5,0 -4.3,0 -6.1,0 -61.6,0 -123.3,0.2 -184.9,-0.1 -18.9,-0.1 -37.9,-1.2 -55.9,-7.2 -15.5,-5.2 -31.1,-10.8 -44.2,-21.3 -9.6,-7.7 -20.2,-14.4 -28.6,-23.2 -8.5,-8.9 -15.3,-19.5 -22.1,-29.9 -8.8,-13.6 -13.8,-28.9 -18.3,-44.4 -4,-13.9 -5.2,-28 -4.9,-42.3 0.2,-10.7 0.3,-21.3 0,-32 -0.5,-16.9 3,-33 7.8,-49.1 4.6,-15.7 11.9,-30.1 20.6,-43.5 9.2,-14.3 20.1,-27.7 34.9,-37 10.6,-6.6 21.2,-13.5 32,-19.9 3.4,-2 7.5,-3.1 11.4,-4.3 11,-3.3 21.9,-7 33.2,-9.4 8,-1.7 16.3,-2 24.5,-2.3 9.8,-0.4 19.7,-0.1 29.5,-0.1 17.3,-0.1 34.5,1.8 51.2,6.3 9.7,2.6 19,7.3 28.1,11.8 8.8,4.4 17.5,9.3 25.6,14.9 13.8,9.5 25,21.4 34.9,35.2 8.5,11.8 15,24.5 20.7,37.6 3.3,7.7 4.3,16.3 7,24.3 5.8,17.2 3.8,34.9 3.9,52.4 0.2,59 0.1,118 0.1,176.9 z m -161,-110 c 12.5,0 25,0 37.5,0 5.9,0 10.5,-4.6 10.5,-10.5 0,-24 0.2,-48 -0.1,-72 -0.1,-5.8 -1.3,-11.7 -2.9,-17.3 -4,-14.1 -13.6,-24.6 -24.4,-33.8 -6.8,-5.7 -14.5,-10.3 -23.5,-12.5 -12.6,-3.1 -25.4,-2.2 -38.1,-1.5 -7.1,0.4 -14.8,2.8 -20.7,6.5 -8.1,5.1 -15.3,11.9 -22.1,18.8 -10.4,10.5 -15.8,23.5 -16,38.4 -0.1,7.5 -0.4,15 0.1,22.5 0.6,8.6 2.3,17.3 7.5,24.4 5.3,7.3 11.1,14.4 17.6,20.6 10.8,10.3 23.8,16.4 39.2,16.4 11.8,0 23.6,0 35.4,0 z"
            id="path16"
          />
          <path
            d="m 1344.7,530.1 v -94.5 c 2.2,0 4.2,0 6.3,0 54.2,0 108.3,0 162.5,0 16.3,0 25.3,-9.1 25,-24.9 -0.2,-13 -10.1,-22 -24.4,-22 -21.2,-0.1 -42.3,0.1 -63.5,-0.1 -27.1,-0.2 -51.3,-8.7 -71.9,-26.5 -23.2,-20.2 -36,-45.6 -37.7,-76.5 -1.1,-20.2 -1.4,-40.4 6,-59.6 16.1,-41.8 46.7,-65.5 90.8,-71.9 4.1,-0.6 8.3,-0.5 12.4,-0.5 61.3,0 122.6,0 184,0 2.1,0 4.3,0 6.6,0 v 94.5 c -2.1,0 -4,0 -5.9,0 -57,0 -114,0 -171,0 -10,0 -18.1,3.5 -22.1,13.1 -6.1,14.7 1.9,32.6 20.4,32.4 20.7,-0.2 41.3,-0.3 62,0.1 12.1,0.2 24.4,0.4 36.2,2.6 50.9,9.5 88.2,55 88.1,106.8 0,15.3 0.4,30.5 -3.4,45.6 -10.4,40.9 -48.7,75.2 -90.6,80.3 -5.6,0.7 -11.3,1 -16.9,1 -62.2,0.1 -124.3,0 -186.5,0 z"
            id="path18"
          />
          <path d="M 1298.1,530 H 1159.9 V 264.4 h 138.2 z" id="path20" />
          <path d="M 3675.8,275.4 V 532.8 H 3546.4 V 275.4 Z" id="path22" />
          <path
            d="m 1162.5,217.6 c -0.6,-0.8 -0.7,-0.9 -0.7,-1.1 0.1,-27.6 -1.3,-55.3 0.7,-82.8 2.2,-30.6 31.1,-54.6 61.9,-54.6 11.8,0 23.5,-0.3 34.9,4 22.6,8.6 39.5,31.6 40.8,55.6 0.8,14.1 0.3,27.9 -5.3,41.1 -9.5,22.1 -33,37.8 -57,37.8 -23.1,0 -46.3,0 -69.4,0 z"
            id="path24"
          />
          <path
            d="m 3548,218.1 c 0,-25.6 -0.8,-50.4 0.3,-75.2 0.7,-16.8 7.7,-32 21.3,-42.5 7.6,-5.9 16.7,-10.1 26.7,-11.4 13.3,-1.7 26.6,-2 39.8,1 21.6,4.9 38.8,24.5 41.1,46.5 1.5,14.3 2.1,28.6 -2.1,42.6 -3.3,10.8 -9.2,20 -18.5,27 -12.3,9.2 -26.4,11.7 -41.1,12 -20.5,0.3 -41,0.1 -61.4,0.1 z"
            id="path26"
          />
        </svg>
