<?xml version="1.0" standalone="no"?>
<!DOCTYPE svg PUBLIC "-//W3C//DTD SVG 20010904//EN"
 "http://www.w3.org/TR/2001/REC-SVG-20010904/DTD/svg10.dtd">
<svg version="1.0" xmlns="http://www.w3.org/2000/svg"
 width="804.000000pt" height="804.000000pt" viewBox="0 0 804.000000 804.000000"
 preserveAspectRatio="xMidYMid meet">
<g transform="translate(0.000000,804.000000) scale(0.100000,-0.100000)"
fill="#000000" stroke="none">
<path d="M2199 6826 c-2 -2 -83 -7 -179 -11 -306 -13 -491 -26 -560 -40 -14
-3 -38 -8 -54 -11 -16 -2 -61 -14 -100 -25 -39 -11 -75 -22 -81 -23 -48 -14
-200 -79 -203 -88 -2 -4 -9 -8 -16 -8 -14 0 -171 -96 -216 -132 -15 -13 -41
-33 -57 -45 -38 -29 -158 -149 -208 -208 -22 -26 -46 -53 -53 -61 -7 -7 -46
-63 -87 -123 -61 -91 -129 -217 -196 -366 -13 -30 -78 -229 -82 -256 -3 -13
-10 -44 -17 -69 -7 -25 -14 -55 -16 -67 -2 -13 -7 -35 -10 -50 -7 -37 -11 -59
-18 -113 -3 -25 -8 -56 -11 -70 -2 -14 -7 -66 -9 -115 -3 -50 -6 -90 -6 -90
-11 0 -15 -473 -14 -1850 2 -1607 3 -1774 14 -1776 22 -6 1624 -3 1633 3 9 5
12 191 12 752 0 533 4 749 12 757 11 11 34 15 143 24 63 5 950 6 1025 0 28 -1
91 -6 140 -10 50 -3 108 -7 130 -9 55 -4 82 -14 91 -34 4 -9 8 -341 10 -737 1
-396 3 -723 3 -727 1 -4 8 -14 17 -22 14 -14 99 -16 783 -16 647 0 770 2 787
14 18 14 19 34 21 738 1 398 2 735 2 750 2 48 27 57 211 74 78 7 335 7 405 0
28 -3 80 -8 117 -11 37 -3 77 -8 90 -11 13 -2 39 -7 58 -10 48 -7 132 -24 150
-31 8 -3 20 -7 27 -9 50 -10 171 -66 208 -96 106 -85 163 -188 190 -343 13
-75 26 -249 39 -540 5 -93 18 -340 21 -390 2 -22 3 -54 4 -72 2 -65 -51 -61
841 -59 749 2 812 4 828 20 15 15 17 44 16 269 0 139 -4 353 -8 477 -4 124 -9
304 -11 400 -4 181 -5 192 -32 300 -44 183 -194 396 -358 508 -22 15 -42 29
-45 33 -3 3 -38 27 -78 54 -40 26 -75 52 -78 56 -3 5 12 23 32 41 90 78 180
168 231 228 79 94 83 99 83 109 0 5 6 14 14 20 12 10 60 103 99 191 27 63 49
149 63 250 3 25 8 54 10 65 2 11 7 47 10 80 3 33 7 71 10 85 22 135 22 684 0
860 -3 19 -8 62 -11 95 -3 33 -8 67 -10 75 -2 8 -6 35 -9 61 -3 25 -7 52 -10
60 -3 7 -7 30 -10 49 -17 115 -115 372 -172 447 -13 17 -24 34 -24 38 0 3 -4
11 -10 18 -5 7 -33 41 -62 77 -29 36 -81 94 -117 129 -72 70 -214 181 -230
181 -6 0 -11 3 -11 8 0 4 -21 19 -47 32 -27 14 -50 28 -53 31 -8 8 -192 96
-220 104 -14 4 -29 11 -35 15 -10 7 -121 48 -153 56 -83 21 -229 53 -264 58
-24 3 -61 8 -83 11 -22 3 -60 8 -85 12 -45 7 -4154 16 -4161 9z m325 -1391
c55 -2 115 -5 131 -8 17 -3 50 -8 75 -12 126 -19 234 -75 297 -153 50 -62 95
-168 107 -252 9 -61 26 -174 31 -199 11 -60 19 -219 19 -372 l0 -166 -32 -65
c-45 -93 -120 -155 -227 -190 -26 -9 -356 -21 -515 -18 -103 1 -154 0 -158 -5
-2 -2 -15 0 -28 5 -13 5 -24 6 -24 2 0 -6 -472 -6 -540 1 -24 2 -25 5 -23 57
2 81 20 434 28 550 3 41 8 111 10 155 13 200 22 260 56 349 34 92 109 179 195
228 36 20 128 54 169 62 17 4 41 9 55 11 35 7 115 16 183 20 32 1 61 6 64 9 3
3 10 3 16 -1 5 -3 55 -7 111 -8z m3496 -59 c68 -9 179 -44 201 -62 8 -8 20
-14 26 -14 6 0 40 -28 75 -62 66 -66 133 -180 144 -248 1 -8 5 -25 8 -37 13
-49 15 -64 21 -150 26 -381 24 -447 -21 -533 -24 -48 -99 -132 -108 -122 -3 3
-6 1 -6 -5 0 -14 -143 -78 -205 -92 -81 -18 -150 -21 -760 -37 -543 -13 -545
-13 -553 5 -6 12 -8 1260 -3 1316 4 34 21 40 133 45 171 8 985 5 1048 -4z"/>
</g>
</svg>
