<?xml version="1.0" encoding="UTF-8"?>
<svg id="hexa-kerryCook-original" data-name="Kerry Cook original art" xmlns="http://www.w3.org/2000/svg" viewBox="0 0 53.16 242.64">
  <title id="hexa-kerryCook-original">hexa - Kerry Cook original</title>
  <path d="m44.6,162.88c.19.29.31.7.58.84.41.22.92.26,1.38.38-.02.12-.04.23-.06.35-1.56.27-3.12.54-4.68.82-.02-.11-.04-.23-.06-.34.48-.08.97-.15,1.45-.23,0-.13-.02-.27-.02-.4h-3.04c.52.46.75.67.99.89-.07.06-.12.11-.17.16-.35.43-1,.86-1,1.28.01,1.92.21,3.85.34,5.85.3.03.67.07.85.09-.33.95-.72,1.88-.93,2.84-.05.21.52.76.85.8.91.11,1.84.04,2.76.18-1.03.13-2.15.06-3.07.46-.86.38-1.5,1.26-2.11,1.81-.47-.34-1.29-1.18-1.51-1.05-.93.58-2.18.14-2.97,1.26-.82,1.15-1.92,2.68-3.09,2.88-1.7.28-1.75,2.06-3.1,2.44-.2.06-.23.76-.41,1.45,1.85.1,3.52.19,5.32.29-.36,1.19.33,1.64,1.17,2.21,1.2.81,2.31,1.65,3.83,1.6.83-.03,1.65-.1,2.48-.16l.09.34c-.32.14-.63.35-.96.41-1.39.28-1.83.97-1.41,2.23.35,1.05.69,2.1,1.08,3.29h4.21c.02.12.04.23.05.35-1.08.31-2.17.59-3.23.93-.46.15-1.24.38-1.27.64-.1.99-.06,2.02.14,2.99.08.38.37,1.52.98.96,1.21-1.11,2.57-.14,3.83-.66,1.25-.51,2.68-.58,4.05-.79.29-.04.61.15.96.56-.84.23-1.7.41-2.52.7-.52.18-.97.6-1.49.77-1.58.49-3.17.92-4.77,1.35-1,.27-1.07,1.01-1,1.86.03.4-.08.85.07,1.2.09.22.66.48.81.39,1.15-.72,2.25-1.52,3.42-2.34-.29-.26-.51-.47-.8-.72,1.45-.17,2.76-.32,4.2-.48-1.74,2.44-4.56,3.52-5.99,5.95.77.24,1.27.39,1.76.54-.03.09-.05.17-.08.26-.77,0-1.55-.02-2.32.01-.29.01-.64.1-.84.28-1.62,1.47-3.23,2.95-4.82,4.46-1.07,1.02-2.05,2.15-3.17,3.11-.61.52-1.44.79-2.17,1.17-.02-.17-.04-.34-.06-.52-.26-.15-.73-.46-.76-.42-.35.45-.64.95-.99,1.5.62.97,1.7,1.25,2.93,1.3.97.03,1.93.16,2.9.25.11.15.21.3.32.45-.35.14-.7.29-.85.35.55.5,1.1.97,1.61,1.49.78.8,1.58,2.36,2.3,2.32,2-.12,2.49,1.72,3.81,2.34,2.23-1.74,3.65-1.72,4.52.1-1.58.41-3.15.89-4.74,1.21-1.52.3-1.93,1.02-1.36,2.28,1.5-.22,2.92-.43,4.34-.64.04.12.09.25.13.37-1.72.54-3.45,1.08-5.47,1.71.45.68.76,1.13,1.06,1.59.16-.18.32-.37.58-.68.14.04.49.15.83.26,0,.1.02.24,0,.25-.38.16-.78.3-1.17.46-.53.22-1.43.4-1.48.71-.09.5.39,1.1.74,1.91-.56,1.35-1.27,3.04-1.97,4.73-1.38-.55-1.55-3.31-.43-6.9-.63,0-1.18,0-1.72,0-1.19.02-2.39-.01-3.58.1-2.42.22-4.86.4-7.24.83-1.96.35-3.86,1.06-5.81,1.54-.77.19-1.58.19-2.37.28-1.38.16-2.76.32-4.13.5-1.1.14-2.08,0-2.79-1.21,1.47-.24,2.82-.42,4.16-.69,1.24-.25,1.79-1.79.98-2.81-.65-.82-1.22-1.75-2.64-1.17-.59.24-1.46-.19-2.2-.32,0-.16,0-.32,0-.48.23-.15.45-.41.69-.43.81-.07,1.31-.34,1.23-1.28-.02-.26.15-.69.36-.8.93-.5.7-1.33.64-2.07-.16-2.21-.18-2.17-2.39-2.01-.67.05-1.35-.18-2.03-.27-.06-.13-.12-.26-.19-.4.46-.3.9-.79,1.39-.86,1.43-.19,2.89-.14,4.32-.34.77-.11,1.54-.44,2.24-.81.65-.34,1.08-.64,1.84-.03,1.02.82,1.46-.41,2.31-1.12-5.2-.39-10.17-.77-15.15-1.14,0-.13,0-.26-.01-.39.21-.11.43-.34.63-.32,2.02.21,4.04.45,6.05.69.69.08,1.38.16,2.07.23.96.09,1.91.23,2.87.23.86,0,1.72-.18,2.58-.28.64-.07,1.31-.06,1.93-.24.48-.14.89-.52,1.34-.79-.29-.44-.49-1.02-.89-1.3-2.18-1.53-4.41-2.99-6.65-4.44-.57-.37-1.23-.59-1.85-.88q.7-1.62-.4-2.66c.09-.13.18-.27.28-.4.25-.35.5-.7.74-1.05-.5-.23-1-.67-1.48-.64-1.77.11-3.54.39-5.31.58-1.57.17-3.14.33-4.71.42-.35.02-.73-.3-1.09-.46.02-.11.04-.23.06-.34,2.33-.17,4.67-.31,7-.53,1.24-.11,2.49-.3,3.71-.56.25-.05.55-.58.56-.9.04-1.69,0-3.37,0-5.06,0-.38.06-.76.13-1.54-3.76.7-7.43,1.38-11.1,2.06-.02-.11-.05-.22-.07-.33,1.04-.27,2.08-.54,3.13-.81,1.87-.49,3.74-.99,5.62-1.46.22-.06.49.11.73.1,1.05-.04,1.7-.57,1.81-1.65.1-1.02.2-2.04.23-3.06.02-.68-.08-1.37-.14-2.26-1.4.2-2.9.41-4.4.62-.04-.13-.07-.27-.11-.4.98-.32,1.94-.71,2.94-.94,1.21-.27,2.48-.28,3.66-.63.6-.18,1.05-.85,1.56-1.32.13-.12.2-.36.33-.4,1.74-.51,2.34-2.3,3.65-3.27.31-.23.78-.25,1.11-.35.31-.6.61-1.17.91-1.76-1.12-1.79-2.85-2.88-4.6-4.02-.26-.17-.51-.47-.77-.48-2.92-.03-5.85-.03-8.77,0-.29,0-.76.22-.83.44-.55,1.66-1.73,1.07-2.68.69-.75-.29-1.42-.87-2-1.45-.28-.28-.36-.86-.35-1.3,0-.18.48-.46.77-.5,2.31-.33,4.66-.37,6.82-1.53.54-.29,1.45.15,2.18.16.5,0,1.01-.13,1.53-.21-.55-.67-1-1.2-1.4-1.69.67-.61,1.55-1.04,1.6-1.54.08-1-.15-2.1-.57-3.02-.17-.37-1.17-.54-1.77-.5-2.25.13-4.5.4-6.75.59-.26.02-.54-.15-1.12-.32,1.47-.46,2.62-.82,3.77-1.16.2-.06.51-.16.63-.06,1.26,1.06,2.63-.11,3.94.18.23.05.85-.62.91-1.01.19-1.27.19-2.56.27-3.85.07-1.1.14-2.2.25-3.3.08-.81-.24-1.21-1.04-1.09-2.22.34-4.44.71-6.65,1.08-.5.08-.99.21-1.49.32-.03-.13-.06-.26-.09-.39,2.08-.43,4.14-.96,6.23-1.25,2.29-.31,3-1.35,2.13-3.47-.79-1.92-.65-2.29,1.18-3.2.29-.15.73-.37.76-.6.2-1.57,1.73-1.77,2.6-1.94,1.59-.3,2.27-1.58,3.39-2.32,1.01-.67,1.81-1.67,2.67-2.55.44-.45.99-.93.45-1.67.28-.05.6-.11,1.19-.21-1.21-1.02-1.62.33-2.03.12-.33-.53-.72-1.04-.99-1.6-.76-1.53-1.44-3.1-2.21-4.62-.25-.5-.74-1.31-1.04-1.27-1.73.22-1.89-1.06-2.21-2.16-.98-.11-1.88-.24-2.79-.29-.84-.05-1.68-.01-2.52-.01-.01-.13-.02-.26-.03-.39.76-.05,1.52-.09,2.28-.15,1.37-.11,2.5-1.31,2.63-2.67.1-1.03.3-2.06.48-3.09.13-.77-.11-1.24-.95-1.15-1.33.15-2.66.37-3.99.53-1.04.12-2.08.24-3.12.29-1.06.05-2.13.01-3.2.01l-.11-.37c.31-.14.62-.35.94-.41,1.08-.17,2.16-.33,3.25-.39,1.75-.11,3.51-.18,5.27-.18,1.24,0,1.93-.54,2.15-1.73.02-.13.07-.27.04-.39-.54-2.11-.38-4.21-.02-6.33.17-1.01-.92-2.27-1.85-2.49.52-.54,1.25-1.08,1.67-1.8.41-.71.51-1.6.85-2.77.86-.73,2.31-1.48,3.23-2.99-1.34-.13-2.46-.25-3.58-.36,0-.09-.02-.18-.02-.27.5-.1.99-.25,1.49-.29.57-.05,1.15,0,1.72-.01,1.85-.02,5.15-2.33,5.62-3.92.59-2.01-.28-3.88-2.11-4.91-.52-.29-.89-1-1.14-1.6-.44-1.06-1.41-1.26-2.28-1.5-.95-.26-1.97-.24-2.96-.35-.06-.13-.12-.26-.18-.39.56-.3,1.12-.58,1.66-.9.3-.18.75-.41.78-.65.03-.33-.21-.75-.46-1.03-.5-.56-1.08-1.05-1.81-1.74.91-.28,1.55-.48,2.27-.7v-2.91c-.65-.14-1.23-.27-1.81-.39,3.41-1.28,2.04-4.07,2.49-6.46-2.13.12-4.04.25-5.96.31-.78.02-1.76.34-2.15-1.05,2.07,0,4,.02,5.94,0,.96-.01,1.97-.12,2.05-1.38.07-1.01-.11-2.04-.02-3.04.09-.95.38-1.89.57-2.8-1.45-.22-2.85-.42-4.25-.63.77-1.23,1.7-.84,2.56-.81,1.41.05,2.83.18,4.24.14.44-.02,1.1-.41,1.27-.8.95-2.27,3.07-3.67,4.15-5.83.08-.16.36-.22.55-.32.33-.17.67-.33,1-.5-.3-.42-.6-1.21-.91-1.21-1.74-.01-2.47-.82-2.88-2.49-.23-.96-1.2-1.76-1.9-2.58-.19-.22-.62-.21-.94-.32-.26-.09-.68-.13-.75-.3-.63-1.62-2-1.38-3.23-1.23-.87.1-1.52.06-2.15-.62-.21-.22-.79-.18-1.19-.13-1.37.15-2.74.34-4.11.52-.07-.11-.13-.23-.2-.34.17-.08.33-.21.51-.25,2.68-.46,5.36-.89,8.03-1.41.3-.06.67-.63.7-.99.09-1.15-.01-2.32.05-3.47.05-.94-.21-1.42-1.34-1.16,2.19-1.43.95-3.49.98-5.21.03-1.72-.53-3.46-.84-5.23,1.43-.2.89-1.39.82-2.25-.01-.16-1.07-.36-1.62-.3-1.52.15-3.03.43-4.55.66-.02-.16-.05-.32-.07-.48.55-.05,1.1-.07,1.64-.17,1.31-.23,2.67-.37,3.92-.79,2.13-.72,4.25-1.51,5.86-3.26,1.22-1.33,2.57-2.54,3.8-3.86.48-.52.81-1.19,1.14-1.82.08-.16-.06-.57-.22-.69-1.41-1-2.02-2.46-2.41-4.06-.05-.22-.26-.53-.45-.57-1.05-.23-2.11-.47-3.18-.57-1.26-.12-2.04-.9-2.75-1.8-.15-.19-.08-.56-.11-.84.27-.01.55-.06.81-.03.34.05.66.21,1,.25,1.56.16,1.69-.26,1.39-1.73-.3-1.43-.62-2.09-2.3-2.1-1.95-.01-3.91-.58-5.85-.97-.89-.18-1.74-.52-2.65-.8.16-.31.21-.44.24-.44,3.02.44,6.05.88,9.07,1.36.94.15,1.74.36,1.51-1.13-.12-.77.06-1.58.11-2.39-2.79-.38-5.49-.74-8.19-1.09-.25-.03-.54,0-.77.09-.94.39-1.36,0-1.51-1.17h9.13c-.29.17-.6.35-1.06.61.23.09.32.14.42.16,2.05.29,1.89.2,2.24-1.81.11-.64.03-1.32.22-1.93.09-.31.58-.5.89-.74.16.32.45.64.46.97.05,1.28.02,2.56.02,4.03,4.09.36,8.15.71,12.56,1.09-.29-1.48-.67-2.59-.69-3.71-.02-.98.37-1.96.58-2.95.26,0,.53,0,.79,0,.37.31.77.58,1.1.93,1.04,1.1.23,2.51.58,3.72.22.77-.34,2.1.93,2.22,2.18.21,4.38-.19,6.46,1.04.67.4.98.6.95,1.73-2.5-2-5.09-2.31-8.04-1.39.13,1.26.32,2.6.39,3.94.04.76.26,1.01,1.05,1.17.73.15,1.83-.19,2.14.98-.5-.11-1-.22-1.5-.32-.24-.05-.56-.2-.73-.1-.83.49-1.71.95-2.4,1.6-.83.78-.34,1.69,1.02,2.03.36.09.74.09,1.1.13.01.18.02.36.04.54-.39.02-.87.19-1.16.03-1.4-.75-3.05-.37-3.93.92-.31.46-.87.75-1.17,1.22-.48.73-.9,1.52-1.22,2.34-.11.29.04.82.26,1.06.61.67,1.38,1.18,1.97,1.86,1.88,2.15,4.16,1.09,6.34.86.79-.08,1.59-.14,2.38-.21.03.15.05.3.08.45-1.43.31-2.85.62-4.28.92-.57.12-1.32-.03-1.27.92.04.73,2.16,2.82,2.9,2.78.9-.04,1.49.16,1.34,1.29h4.45c.04.16.08.32.13.49-.9.38-1.79,1.04-2.71,1.09-1.49.07-1.78.75-1.62,2,.05.39.04.78.06,1.21,1.74-.14,3.41-.28,5.08-.42.09.09.17.18.26.26-.47.42-.88.97-1.42,1.23-.52.26-1.17.26-1.78.31-1.52.13-2.45,1.12-2.46,2.65,0,1.46,0,2.92,0,4.75,2.08-.24,4.06-.47,6.03-.7.03.1.06.21.09.31-.36.15-.71.35-1.08.43-1.29.29-2.6.5-3.87.85-.27.07-.38.63-.62.92-.7.86-.22,2.15-1.49,2.96-1.09.7-1.66,2.23-2.47,3.38-1.13,1.6-2.29,3.18-3.4,4.8-.31.45-.45,1.02-.58,1.33-.52-.08-.95-.15-1.37-.22.1.43.07.97.33,1.28,1.57,1.95,3.18,3.88,4.84,5.76.53.6,1.25,1.03,1.9,1.51.66.48,1.87.34,1.78,1.65,0,.07.19.17.3.23,1.17.61,2.33,1.22,3.5,1.83-.02.13-.04.26-.06.4-1.29-.14-2.59-.28-4.16-.44.07,1.4.13,2.65.2,4.01.69.14,1.48.3,2.25.45-1.93.08-2.97,1.94-2.59,5.45.74.09,1.53.22,2.32.27.78.05,1.56.01,2.34.01-.86,1.74-2.57.77-3.82,1.27-.67.27-.92.49-.91,1.16.02,1.27,0,2.55,0,3.92h2.72c.02.1.05.2.07.3-.3.09-.61.16-.9.28-.54.23-1.07.48-1.61.73.4.37.79.74,1.15,1.07-.04,0-.4,0-.43.11-.47,1.44-1.22,1.18-2.25.56-.71-.43-1.59.37-1.65,1.41-.03.59,0,1.19,0,1.78-.13.02-.25.05-.38.08-.21-.4-.42-.79-.75-1.41-.65.54-1.24,1.06-1.85,1.54-1.68,1.32-3.45,2.55-5.05,3.97-1.71,1.51-1.68,2.06-.14,3.77.55.61,1.37,1.04,1.73,1.72.55,1.05,1.39.9,2.25.9,1.09,0,2.13.11,3.08,1.24-.9.06-1.56.11-2.31.16.08,1.31,1.2,1.35,1.97,1.8,1.32.78,2.61,1.62,3.91,2.43-1.3-.44-2.59-.87-3.88-1.3-.08.1-.15.2-.23.29.26.16.54.3.78.49.32.24.64.49.89.8.17.21.24.5.44.95.73-.47,1.34-.86,1.96-1.26.54.35,1.07.71,1.78,1.17-1.52.25-2.68.43-3.83.62,0,.14,0,.28.01.42.39.27.78.53,1.49,1.02-.96.13-1.57.22-2.28.32-.12,1.75-.24,3.56-.36,5.37.92.04,1.73.08,2.53.12,0,.13,0,.26,0,.4-.21.12-.41.34-.62.34-1.89-.01-2.61.95-2.81,2.8-.19,1.83-.81,3.61-1.19,5.43-.06.3.1.67.22.97.22.54.49,1.05.75,1.61,1.96.16,4.04.33,6.12.5-.02.25-.05.5-.07.76-.48-.09-.97-.25-1.45-.26-.46-.01-.93.11-1.39.2-.89.17-1.77.41-2.67.53-2.36.31-2.55.48-2.44,2.74,0,.21-.14.56-.29.61-.17.06-.54-.1-.62-.27-.21-.41-.31-.87-.54-1.58-.42.22-.93.38-1.29.7-1.75,1.62-3.51,3.24-5.15,4.96-.31.33-.4,1.32-.14,1.68,1.02,1.42,2.18,2.76,3.39,4.03.37.39,1.07.48,1.62.68.51.18,1.03.33,1.76.56-1.04.91-.94,1.5-.05,2.19.9.7,1.61,1.63,2.43,2.42.21.2.56.39.82.35.2-.03.47-.38.52-.63.17-.79.26-1.6.55-2.43.01,1.49.53,2.74,1.77,3.91,1.77-.16,3.85-.34,5.92-.52l.05.53c-.49.08-.98.18-1.48.25-1.51.19-3.04.28-4.51.61-.32.07-.75,1.02-.64,1.44.3,1.14-.14,2.13-.32,3.18-.18,1.03-.33,2.07-.53,3.29,1.46-.16,2.98-.83,4.2.47,0,0-.04-.04-.04-.04ZM25.41,42.75l.16.3c-.71.36-1.45.68-2.12,1.09-.3.19-.65.54-.69.86-.22,1.42-.34,2.86-.53,4.63,1.26.17,2.54.55,3.81.47,1.2-.07,2.36-.67,3.57-.91,2.26-.44,4.55-.72,6.8-1.2,1.75-.38,3.44-1.05,5.2-1.43,1-.22,1.03-.8.88-1.52-.27-1.35-.6-2.7-.98-4.4-1.61.28-3.25.57-4.9.85-.02-.06-.03-.13-.05-.19.43-.29.87-.57,1.3-.86-.05-.12-.1-.24-.15-.36-1.41.31-2.81.62-4.4.97.15-.32.16-.39.19-.39,2.32-.39,4.45-1.59,6.86-1.65.21,0,.63-.55.59-.79-.16-1.03-.45-2.05-.69-3.07-.16,0-.32.02-.48.03-.18.7-.35,1.39-.54,2.13-.3-.62-.6-1.26-.87-1.82-3.19.68-6.24,1.34-9.29,1.99-.03-.1-.05-.2-.08-.3,3.11-.88,6.23-1.75,9.03-2.54.2-.75.32-1.19.44-1.63.31.27.61.57.95.81.18.12.43.14.63.2v-3.62c-.24-.13-.57-.39-.93-.47-1.15-.26-2.07-1.29-3.45-.84-1.8.58-3.63,1.06-5.48,1.49-1.89.43-3.83.65-5.7,1.12-1.77.45-2.39,1.35-2.31,3.15.07,1.51.68,3.09.39,4.5-.31,1.51.25,2.8.12,4.35.62-.14,1.08-.21,1.52-.36.41-.15.8-.38,1.19-.57Zm13.08,72.2c-6.97-1.21-13.75-.4-20.59-.64.11,1.84.18,3.45.32,5.06.12,1.34.34,2.67.5,4.01.08.69.32,1.17,1.14,1.06,1.07-.15,2.14-.27,3.21-.46,1.74-.31,3.47-.77,5.23-.97,1.16-.13,2.37.13,3.3-.88.09-.1.4.02.6.01,1.74-.07,3.47-.2,4.53-.88.67-2.38,1.2-4.28,1.77-6.31Zm-22.15,43.41c0,2.64-.07,4.96.04,7.28.03.63.57,1.76.9,1.77,1.36.03,2.75-.22,4.1-.48,1.95-.38,3.86-.9,5.81-1.27,1.69-.33,3.43-.44,5.1-.84,2.22-.53,2.35-.76,2.31-3.12-.03-1.49-.04-3-.32-4.45-.11-.55-.88-1.22-1.47-1.38-.64-.17-1.43.24-2.15.28-2.9.15-5.72.69-8.49,1.6-1.24.41-2.6.51-3.91.68-.59.07-1.21-.04-1.93-.07Zm19.08,38.98c-6.96.84-13.82,1.66-20.68,2.48v6.91c1.37-.15,2.92.09,4.43-.47,1.12-.41,2.23-.86,3.35-1.25.14-.05.47.11.54.26.35.72.73.58,1.2.13.71-.69,1.57-.8,2.51-.58.28.06.6.14.86.07,2.55-.65,5.1-1.33,7.78-2.04v-5.52Zm-16.14-71.84c.47,2.34.85,4.42,1.34,6.48.07.29.67.66,1.03.66,3.86-.04,7.73-.14,11.59-.24.63-.02,1.04-.13,1.05-1.04,0-1.05.4-2.1.69-3.14.48-1.74,1.02-3.47,1.65-5.6-5.93.99-11.59,1.93-17.35,2.89Zm13.49,48.75c-.01-.16-.13-.65-.06-1.12.07-.5.32-.97.48-1.46.02-.06-.08-.15-.07-.23.1-.96.06-1.97.35-2.87.5-1.55.18-2.29-1.39-2.46-.36-.04-.75.23-1.14.3-4.34.72-8.69,1.43-13.04,2.13-.7.11-.89.42-.62,1.09.64,1.54,1.08,3.2,2.64,4.25-.86-.32-1.71-.63-2.62-.97.01,1.43,1.05,1.46,2.23,1.64-.47.28-.67.4-1,.59.92.19,1.71.36,2.51.53.03-.08.06-.16.1-.24-.4-.34-.8-.68-1.19-1.02.07-.13.15-.25.22-.38.5.27,1.35.46,1.44.83.22.91.98,1.04,1.48,1.07,2.25.11,4.5.05,6.76.02.18,0,.35-.24.53-.35.72-.42,1.45-.83,2.4-1.37Zm7.59-89.52c-1.07.03-1.82.06-2.56.08-2.79.09-5.58.17-8.37.27-.43.02-.85.13-1.28.18-.81.09-1.62.27-2.42.24-1.01-.05-2.03-.45-3.03-.39-2.39.15-2.28.23-2.42,2.6-.08,1.29.74,1.41,1.49,1.97,1.41,1.06,2.85,1.69,4.6,1.5,1.16-.12,2.31-.42,3.47-.51,2.79-.22,5.59-.46,8.39-.51,1.42-.03,1.65-.71,1.72-1.87.07-1.16.32-2.3.46-3.46.02-.14-.14-.3-.04-.1Zm-24.03,72.53c2.1-.25,4.04-.42,5.96-.73,3.39-.54,6.75-1.25,10.14-1.74,1.52-.22,1.27-.93.67-1.73-.7-.93-1.69-1.66-2.29-2.64-.61-.98-1.39-1.07-2.33-.99-.6.05-1.19.2-1.79.23-2.03.11-4.07.16-6.1.28-1.66.11-4.67,2.34-4.62,4.23.03.96.22,1.92.37,3.08Zm20.04-46.18c.04-.07.07-.14.11-.21-.74-.53-1.75-.9-2.17-1.62-1.01-1.7-2.65-1.63-4.17-1.82-1.77-.22-3.6-.05-5.35-.35-1.6-.27-2.75.45-3.89,1.23-1.25.86-2.38,1.89-3.66,2.92.08.37.17.96.33,1.53.15.56.15,1.11,1.16.85,1.12-.29,2.37-.06,3.56-.09,1.86-.05,3.72-.15,5.58-.2,1.63-.05,3.27-.01,4.9-.1,1.14-.06,2.27-.26,3.61-.42-.41-.74-.68-1.25-1.05-1.92.46.09.75.15,1.04.21Zm-15.57-27.98c.24.08.7.23,1.16.38,1.64.52,3.27-1.07,4.93-.03.07.04.28-.16.44-.23.31-.14.63-.37.95-.38,2.08-.03,4.17-.02,6.48-.02-.29.59-.43.88-.72,1.46.71-.1,1.15-.17,1.78-.26-.46-.4-.69-.61-.93-.82.02-.12.04-.25.06-.37,1.49,0,2.98-.05,4.46.02.94.04,1.53-.58,1.26-1.58-.25-.94-.55-1.87-.92-2.76-.18-.42-.59-1.09-.86-1.07-1.35.1-2.69.36-4.04.6-.92.16-1.96.76-2.73.5-1.69-.57-3.29-.28-4.94-.15-1.38.1-2.77.09-4.16.02-1.29-.07-1.87.52-1.9,1.96-.01.83-.19,1.65-.33,2.73Zm15.06-6.41s0,.09,0,.14c.79,0,1.6.06,2.38-.03.29-.04.77-.48.75-.69-.17-1.31-.46-2.6-.72-3.9-.02-.11-.16-.26-.26-.28-.99-.15-2.02-.49-2.98-.37-1.86.23-3.62-.21-5.37-.58-3.13-.65-5.9-.1-7.84,2.51-.56.76-.27,2.18-.31,3.29,0,.09.42.28.66.3,1.59.11,3.19.32,4.78.25,2.97-.13,5.94-.42,8.91-.64Zm-3.69,117.45c-.14.19-.28.38-.41.58-.96-.7-2-1.33-2.88-2.12-1.1-1-2.31-1.38-3.75-1.17-.64.09-1.29.24-1.93.24-3.5.02-6.15,1.78-7.95,5-.34.61-.7,1.07-.23,1.53.32.31.99.41,1.49.36,2.64-.21,5.27-.48,7.9-.77,2.92-.33,5.83-.67,8.73-1.09.68-.1,1.37-.62.68-1.35-.63-.68-1.52-1.11-2.3-1.65-.09.1-.19.2-.28.29.31.05.61.1.92.15Zm3.23,10.42c-7.12,1.3-14.16,2.59-21.19,3.88,0,.15-.02.3-.03.45,1.56.79,2.62,2.51,4.98,1.74,1.88-.61,3.95-.65,5.94-.86,2.97-.31,5.95-.57,8.93-.79.74-.05,1.14-.21,1.14-1.04.01-1.1.14-2.19.22-3.38Zm1.06,25.55c-2.06.28-3.95.53-5.83.79-1.01.14-2.03.24-3.02.47-1.77.42-3.77-.06-5.31,1.24-.88.74-1.68,1.57-2.48,2.4-.15.15-.23.63-.16.68.27.19.64.39.94.35,2.13-.31,4.25-.69,6.38-1.04.89-.15,1.78-.33,2.67-.47,1.1-.17,2.19-.32,3.46-.5.5.64,1.81,1.11,2.28.56.2-.24.03-.8.03-1.47,1.23-.31.96-1.59,1.04-3ZM38.53,7.81c-1.4-.22-2.67-.47-3.95-.61-1.31-.14-2.63-.14-3.94-.28-1.08-.11-2.14-.42-3.22-.49-.46-.03-1.28.23-1.36.53-.25.88-.23,1.84-.32,2.93,1.08-.62,1.82-1.11,2.04.39.04.24.51.53.83.6.51.11,1.06,0,1.58.08,2.64.46,5.27.97,7.92,1.42,1.13.19,1.48-.25,1.2-1.41-.25-1.05-.5-2.09-.76-3.16Zm.4,41.29c-.84-.05-1.47-.2-2.06-.1-2.73.47-5.45.95-8.15,1.56-.73.16-1.75.63-1.95,1.2-.31.9-.1,1.91,1.08,2.52,1.64.85,3.14,1.95,4.75,2.97,1.34-1.64,2.66-3.17,3.89-4.78.29-.38.28-1,.49-1.85.35-.27,1.03-.79,1.96-1.51Zm-14.04,43.78c-.1.21-.21.42-.31.63,1.5,1.67,2.98,3.34,4.52,4.97.07.08.72-.28,1.01-.54,1.2-1.07,2.3-2.28,3.58-3.25,1.33-1.01,2.82-1.8,4.24-2.68l-.16-.32c-4.29.4-8.59.8-12.88,1.2Zm-5.64,119.71c-.03.16-.05.33-.08.49,1.34,1.2,2.63,2.47,4.05,3.57.74.58,1.57.47,2.35-.28,1.19-1.15,2.34-2.59,3.79-3.14,1.23-.47,1.99-1.14,2.83-2.13-4.5-.43-8.59,1.45-12.93,1.48ZM27.23,12.13c1.31,4.58,2.58,4.58,7.53,4.6,1.15,0,3.08-2.1,3.21-3.42-3.56-.32-7.03-1.53-10.74-1.18Zm-.47,57.11c.03.1.07.21.1.31,3.5.33,6.99.66,10.82,1.02-.44-.48-.6-.66-.76-.84.05-.08.1-.15.15-.23.46.29.92.57,1.38.86,0,0,.07-.07.12-.13,1.1-1.19,1.07-1.24-.41-1.66-.31-.09-.63-.32-.82-.59-1.27-1.74-3.01-2.2-5.13-1.91.15.3.28.57.46.94-2.09-.11-1.04-1.38-.78-2.58-1.04.99-1.86,1.71-2.6,2.5-.2.21-.04.8-.24.94-.72.52-1.52.92-2.29,1.36Zm-8.16,158.82c-1.09.33-2.2.62-2.23,2.18,1.75,0,3.48.15,5.17-.04,1.64-.19,2.93-1.34,4.32-2.18.47-.28.95-.53,1.43-.79-.03-.06-.05-.12-.08-.19-2.71.2-5.43.4-8.14.61-.02-.19-.03-.38-.05-.57l8.41-.98c-.81-.36-1.62-.56-2.44-.63-.81-.07-1.63-.02-2.45-.02,0-.05,0-.11,0-.16.32-.07.65-.15.97-.22-.97-.03-1.88.14-2.79.33-1.01.22-2.07.34-3,.76-.33.15-.35,1.02-.51,1.57.4.09.79.19,1.39.33Zm13-93.34c-3.12-.19-6.12-.36-9.11-.54.23,1.75,1.58,2.82,2.64,4.06.37.43.83.79,1.55.19,1.57-1.3,3.25-2.46,4.93-3.71Zm-13.61,101.52c.88-1.37,1.72-2.68,2.78-4.33-1.5.18-2.64.28-3.76.48-.25.04-.61.42-.63.66-.07,1.03-.03,2.07-.03,3.09.69.04,1.18.07,1.64.1Zm9.8-88.69c-.14-.34-.18-.62-.34-.78-.61-.64-1.6-1.87-1.82-1.75-1.29.73-2.41,1.78-3.59,2.72.08.09.15.17.23.26,1.84-.15,3.69-.3,5.52-.44Zm.09-118.91c.08.13.15.26.23.39,1.89-.42,3.78-.85,5.73-1.28-.65-.74-1.09-1.4-1.69-1.84-.31-.23-1.3-.12-1.31-.07-.18,1.31-1.31,1.42-2.18,1.89-.33.18-.53.6-.79.92Zm-2.1,161.72c.14-.66.31-1.18.35-1.72.06-.85-.71-1.5-1.28-1.07-1.04.77-2,1.64-3.27,2.69.34.14.5.28.67.27,1.2-.05,2.4-.12,3.54-.18Zm9.32,38.44c-3.14-1.24-7.46-.6-9.15,1.24,3.02-.41,5.92-.8,9.15-1.24Zm-6.99-50.33c-.06-.15-.11-.3-.17-.44-1.53.21-3.07.41-4.6.66-.22.03-.56.25-.58.41-.03.25.09.63.28.79.8.65,1.63,1.39,2.41-.09.14-.26.64-.31.97-.47.57-.28,1.12-.57,1.69-.86Zm-2.86-73.04c.06.13.13.26.19.39l4.93-.47c.04-.18.08-.37.12-.55-.83-.46-1.77-1.4-2.48-1.26-1,.2-1.85,1.21-2.76,1.88Zm7.31,121.16c.07-.13.14-.26.21-.39-1.35-.65-2.71-1.3-4.06-1.95-.07.12-.14.24-.21.35.36.44,1.07.96.99,1.29-.11.48-.8.83-1.39,1.38,1.64-.25,3.05-.47,4.46-.68Zm-.45-206.06c.55-.69,1.11-1.39,1.67-2.1-.04-.12-.07-.25-.11-.37-.98.04-2.32-.29-2.86.22-.9.85.78,1.24.95,2.03.01.05.13.09.35.22ZM13.48,177.98h-6.3c0,.12.01.24.02.36,1.41.67,5.86.27,6.29-.36Zm13.34,45.44c.02-.18.05-.35.07-.53-1.12-.2-2.24-.43-3.37-.59-.15-.02-.42.27-.51.48-.04.09.2.45.34.46,1.15.09,2.31.12,3.47.17Zm5.74-139.04c0-.21,0-.43,0-.64-1.47.09-2.94.18-4.41.27,0,.12,0,.24,0,.36h4.4Zm6.7-.4c0-.13-.02-.27-.03-.4h-2.92c0,.13,0,.27.01.4h2.94Z" />
  <path d="m47.89,14.9c1.76.35,3.51.7,5.27,1.05v.27c-1.76-.44-3.51-.88-5.27-1.32Z" />
  <path d="m44.64,162.92c-.59-1.55-1.18-3.11-1.72-4.53.67.07,2.04,2.03,3.03,4.87-.57-.16-.96-.27-1.35-.38,0,0,.04.04.04.04Z" />
  <path d="m50.02,194.47l-4.75,1.26c-.02-.08-.05-.16-.07-.24,1.54-.61,3.07-1.21,4.61-1.82.07.27.14.53.21.8Z" />
  <path d="m39.46,221.87h4.91c0,.09,0,.17,0,.26h-4.92c0-.09,0-.17,0-.26Z" />
  <path d="m38.3,222.3c-1.54-.08-3.08-.15-4.62-.23.01-.15.02-.31.04-.46,1.53.08,3.06.16,4.59.24v.45Z" />
  <path d="m27.96,119.97c1.81-1.29,3.38-.31,4.96.23-1.3.56-3.62.51-4.96-.23Z" />
</svg>
