<?xml version="1.0" encoding="UTF-8"?>
<svg id="runes-kerryCook-original" data-name="Runes - Kerry Cook original" xmlns="http://www.w3.org/2000/svg" viewBox="0 0 505.54 554.66" style="width:100%;height:auto;">
  <title id="runes3-kerryCook-original">Runes, layer 3 - Kerry Cook original</title>
  <g>
    <path d="m.14,323.8c2.25-.47,4.46-1.11,6.72-1.37,4.98-.56,9.92-1.3,14.77-2.61,2.14-.58,4.48-.51,6.54-1.25,2.62-.94,4.7-.27,6.88,1.08,1.16.72,2.51,1.12,3.96,1.74,2.26-2.07,4.06-4.66,5.2-7.88.91-2.57,2.49-4.9,3.77-7.33.15-.28.38-.53.44-.83.9-4.4,1.46-4.94,5.47-5.75,5.03-1.02,9.98-2.33,14.89-3.88,2.72-.85,5.59-1.59,8.58-1.01.6.12,1.33-.45,2.4-.85-.19-.12.04.14.29.17,2.17.23,4.35.47,6.53.61,1.01.06,2.04-.14,3.06-.12,1.81.03,2.14.43,2.3,2.28.42,4.88.87,9.76,1.3,14.64.02.23-.05.52.06.69,1.58,2.54,1.27,5.52,1.98,8.25.27,1.06.74,2.06,1.03,3.12.89,3.21,1.73,6.43,2.68,9.97,15.36-1.22,30.72-3.68,46.1-7.36,0-.24.09-.87-.02-1.46-.41-2.3-.23-4.58.08-6.88.16-1.17-.06-2.38-.09-3.58-.03-1.34,0-2.67-.06-4.01-.06-1.48-.27-2.96-.28-4.44,0-1.33.19-2.66.29-3.99.07-1.02.11-2.04.17-3.06.07-1.21-.15-2.52.27-3.59.62-1.58-.3-3.1.19-4.62.14-.43.15-1-.02-1.41-.51-1.18-.47-2.28-.04-3.47.3-.83.34-1.73-.66-2.3-.31-.18-.57-.58-.67-.93-.56-2.05-1.54-4.12-1.49-6.17.08-2.98-.31-5.83-.78-8.72-.12-.77.36-1.16,1.13-1.55,3.25-1.65,6.55-1.12,9.76-.23,1.67.46,3.29.65,4.93.53,3.86-.29,7.72-.67,11.58-1.1,3.77-.42,7.52-1.09,11.3-1.38,4.54-.36,9.12-.3,13.66-.69,3.61-.31,7.19-1.03,10.78-1.56.52-.08,1.07-.17,1.59-.1,1,.13,1.95.62,2.97-.1.29-.21.91.07,1.39.08.52.01,1.11.12,1.55-.08,1.01-.47,1.94-.6,2.95-.02.28.16.73.12,1.08.06,4.29-.7,8.57-1.44,12.86-2.1.85-.13,1.77-.08,2.62.09,2.07.42,4.09.41,6.13-.19,1.6-.47,3.24-.55,4.93-.53,1.56.02,3.12-.48,4.68-.74,1.07-.18,2.15-.32,3.22-.53.99-.19,1.96-.44,2.94-.68.38-.1.76-.4,1.12-.36,2.51.26,4.73-.74,7.07-1.37,2.2-.59,4.52-.71,6.79-1.04,1.01-.15,2.02-.44,3.03-.47,2.23-.06,4.47.05,6.7,0,3.01-.08,6.02-.17,9.01-.47.94-.09,1.62-.06,2.44.42.87.5,1.93.65,2.88,1.02,1.91.74,3.87,1.1,5.91,1.28,1.43.13,2.11,1.54,2.44,2.64.94,3.09,1.94,6.23,2.22,9.42.36,4.07.73,8.23-.65,12.28-.59,1.72-.63,3.49-.3,5.36.33,1.84-.06,3.8-.03,5.71.06,4.04-.2,8.14.42,12.1.47,3.02.76,6.05,1.14,9.08.61,4.85,1.18,9.71,1.67,14.57.12,1.24-.05,2.53-.23,3.78-.32,2.25.52,3.27,2.76,3.51,1.26.13,2.54.41,3.71.89,2.27.93,4.46.67,6.72.06,2.67-.72,5.35-1.52,8.07-1.93,3.88-.58,7.74-.21,11.52,1,2.41.77,4.86,1.26,7.44.47,2.02-.62,4.13-1.12,6.25-.24.11.04.3-.07.43-.14,1.26-.68,2.4-.26,3.61.26,2.6,1.12,5.29.56,7.94.22,3.14-.41,6.2-1.27,9.42-1.16,1.59.06,3.21-.35,4.81-.57.31-.04.62-.29.91-.26,3.68.32,5.19-2.51,6.94-4.88,1.04-1.4,1.7-3.08,2.7-4.52,1.8-2.59,2.47-5.31,1.98-8.49-.3-1.99-.15-4.15.3-6.12.23-1.01,1.58-1.76,2.43-2.62.18.09.36.18.53.28-.24,2.14-.54,4.27-.7,6.41-.06.83.08,1.72.31,2.53.75,2.56.25,4.73-.87,7.21-1.35,2.97-3.57,5.27-5.07,8.08-.75,1.42-1.95,2.76-3.26,3.68-.92.64-2.37.56-3.59.72-3.86.51-7.82.61-11.56,1.59-4.09,1.07-8.21.85-12.3,1.29-.91.1-1.97-.1-2.78-.52-1.86-.94-3.78-.61-5.62-.33-3.31.49-6.58.47-9.88.11-.47-.05-.99-.07-1.39-.28-2.88-1.51-5.9-1.35-9.04-1.15-2.96.19-5.75.93-8.42,1.96-2.73,1.05-5.35.48-8,.22-2.28-.22-4.52-.83-6.77-1.28-2.67-.53-3.08-.97-2.52-3.51.59-2.7-.14-5.35-.04-8.03.11-2.82-.35-5.59-.95-8.37-.29-1.35.12-2.83,0-4.24-.1-1.25-.5-2.47-.77-3.7-.07-.31-.27-.61-.25-.91.31-4.51-1.43-8.89-.77-13.42.31-2.12.22-4.22-.26-6.35-.29-1.28-.07-2.7.04-4.05.3-3.69.75-7.37.96-11.06.1-1.77.01-3.61-.34-5.35-.5-2.39-1.32-4.72-2.02-7.07-.2-.68-.46-1.35-.77-2.28-2.24-.59-4.67-1.07-6.99-1.87-4.3-1.49-8.63-.61-12.96-.51-2.92.07-5.85,0-8.76.22-1.88.15-3.74.7-5.6,1.12-1.46.32-2.89.75-4.36,1.05-3.56.74-7.13,1.44-10.7,2.12-.77.15-1.56.22-2.35.24-2.54.09-5.08.04-7.51,1.05-1.73.72-3.5.72-5.38.24-1.26-.32-2.69-.11-4.02.01-5.43.49-10.85,1.1-16.28,1.55-3.16.26-6.41-.05-9.5.53-6.82,1.27-13.67,1.48-20.56,1.59-3,.05-6,.7-9,1.03-2.37.26-4.75.44-7.12.68-1.98.2-3.97.41-5.94.69-3.13.45-6.17.14-9.22-.66-1.92-.51-3.9-.81-5.91.1,0,1.43.22,2.87-.04,4.21-.63,3.29.91,6.2,1.69,9.14.66,2.49,1.27,4.76.67,7.28-.07.3-.1.66-.02.95.9,3.24.46,6.44-.2,9.66-.2.98-.08,2.04-.09,3.06,0,2.18-.04,4.36,0,6.54.07,2.93.2,5.87.32,8.8.07,1.91.07,3.83.27,5.73.11,1.09.55,2.14.83,3.21.44,1.64-.44,2.82-2.13,2.86-1.04.02-2.08.1-3.11,0-2.53-.24-4.84.49-7.23,1.21-3.09.93-6.32,1.42-9.5,2.07-1.7.35-3.4.69-5.12.96-1.63.26-3.28.45-4.93.61-3.63.35-7.26.6-10.88,1-1.88.21-3.74.68-5.62.96-3.02.45-3.17.22-4.27-2.59-.59-1.52-.77-3.03-.98-4.59-.38-2.77-1.21-5.43-2.65-7.86-.23-.39-.34-.85-.49-1.28-1.3-3.69-1.69-7.55-2.16-11.39-.26-2.1-.27-4.23-.44-6.34-.13-1.63-.34-3.25-.53-5.11-3.82.17-7.38.33-10.94.49-.32.01-.66.1-.95.02-3.39-.89-6.39.56-9.52,1.44-3.82,1.08-7.69,1.97-11.55,2.94-.15.04-.32,0-.48.04-2.36.52-4.14,1.51-4.99,4.1-.88,2.69-1.83,5.42-3.67,7.71-.52.65-.61,1.63-.94,2.44-.26.66-.41,1.48-.89,1.92-1.82,1.65-2.06,4.07-3.15,6.07-.29.53-.28,1.23-.37,1.85-.11.8-.17,1.68-1.17,1.86-1.22.21-1.43-.86-1.69-1.64-.34-1.05-.4-2.25-1.49-2.85-1.39-.76-2.83-1.43-4.28-2.06-.77-.34-1.51-.52-2.46-.48-5.38.21-10.44,1.98-15.68,2.88-1.96.34-3.94,1.2-5.84,1.02-2.31-.21-4.27.6-6.36,1.07-.43.1-.82.37-1.29.59.77,3.07,3.87,1.84,5.42,3.24.05,2.6-.07,2.92-1.4,3.39v-2.21c-.89-.32-1.76-.68-2.67-.93-1.59-.43-2.12-.95-2.34-2.53-.04-.31-.03-.64-.01-.96.03-.63.07-1.25.12-2.17Z" />
    <path d="m247.19,289.21c1.08.29,1.63.45,2.27.62.09-.16.27-.35.27-.53-.02-1.34.55-2.05,1.94-2.21,3.38-.39,6.75-.83,10.11-1.32,2.27-.33,4.52-.78,6.78-1.16,1.49-.26,3-.44,4.48-.76,1.75-.38,3.34-.36,4.65,1.51.25,2.84.51,5.98.82,9.13.04.45.39.88.44,1.33.13,1.14.44,2.23.09,3.44-.25.85.09,1.85.05,2.78-.16,3.88.49,7.71.76,11.56.1,1.42.25,2.86.11,4.26-.49,5.06,1.33,9.85,1.55,14.82.04.91.3,1.82.48,2.85-1.71.11-3.18.32-4.65.28-2.93-.07-5.76.53-8.6,1.09-.7.14-1.46.31-2.13.19-2.61-.48-5.2,0-7.8-.01-.74,0-1.48.45-2.21.71-1.94.69-3.04-.1-3.14-2.15-.09-1.98-.03-4.03-.53-5.93-.54-2.06-.59-4.05-.41-6.11.05-.54,0-1.17-.24-1.62-1.35-2.46-1.37-5.16-1.66-7.84-.48-4.33-.27-8.71-1.2-13.03-.67-3.09-.81-6.28-1.26-9.42-.09-.66-.49-1.28-.98-2.48Zm6.06-.48c0,2.74-.05,5.4.01,8.06.05,2.13.24,4.25.35,6.37.09,1.89.14,3.79.25,5.68.02.3.26.58.37.88.4,1.1,1.03,2.18,1.12,3.31.2,2.51.08,5.03.18,7.55.05,1.26.17,2.55.49,3.77.9,3.38,1.29,6.8,1.21,10.27,3.43,1.16,6.86-1.19,10.23.15,3.41-.64,6.82-1.29,10.43-1.97,0-.92.07-2.1-.01-3.27-.34-4.6-.71-9.19-1.12-13.78-.26-3.01-.64-6.01-.9-9.02-.13-1.57-.13-3.16-.17-4.74-.06-2.37-.03-4.74-.17-7.1-.12-1.87-.66-3.74-.6-5.6.04-1.18-.06-2.13-.87-3.3-6.76.89-13.61,1.8-20.79,2.74Z" />
    <path d="m183.26,332.21c.59.71,1.18,1.41,1.79,2.14.79-.18,1.17-.53,1.11-1.47-.12-1.84.15-2.09,1.97-1.81,1.49.22,2.97.56,4.39,1.04,1.28.43,2.48.3,3.73.03,1.98-.43,3.31.71,3.24,2.76-.04,1.11-.02,2.23-.07,3.34-.13,2.77.52,5.4,1.11,8.08.49,2.22.39,4.57.52,6.86.05.78-.05,1.58.01,2.36.16,2.09.4,4.17.54,6.25.09,1.4-1.06,2.68-2.3,2.42-3.61-.73-7.05.46-10.57.73-.98.08-1.97-.03-3.23-.05-.34-2.6-.73-4.93-.94-7.28-.31-3.46-.11-6.95-.78-10.4-.32-1.67-.07-3.44-.11-5.17-.06-2.43-.46-4.82-.96-7.19-.17-.8-.03-1.66-.03-2.49.19-.05.39-.09.58-.14Zm2.76,4.53c.13,2.17.23,4.06.38,5.95.04.47.1.99.34,1.37.56.92.25,1.82.17,2.77-.15,1.84-.19,3.69-.1,5.53.08,1.75.41,3.48.58,5.23.12,1.18.08,2.37.23,3.54.14,1.12.82,1.68,2,1.48,2.72-.45,5.44-.9,8.34-1.38,0-2.49.16-5.11-.04-7.71-.28-3.64-.85-7.26-1.26-10.9-.29-2.51-.52-5.02-.76-7.3-2.25-.48-4.26-.91-6.31-1.34.08,2.46-2.16,2.16-3.56,2.75Z" />
    <path d="m503.59,302.3v-1.64h1.57c.09.16.24.29.24.42.01,2.79.01,5.58.01,8.36q-1.42.08-.91-1.08c-.08-.13-.14-.3-.26-.39-1.03-.75-2.24-.57-3.39-.77-1.04-.18-1.88-1.42-2.92-1.63-2.75-.54-5.56-.45-8.24.47-3.48,1.19-5.21.52-7-2.79-.55-1.02-1.35-1.89-2.01-2.85-.67-.98-1.46-1.92-1.92-2.99-.5-1.14-1.28-1.55-2.39-1.58-1.76-.06-3.46.07-5.18.62-4.73,1.51-9.55,2.27-14.53,1.31-1.4-.27-2.86-.25-4.3-.26-8.24-.08-16.35.74-24.21,3.44-4.03,1.38-8.18,2.43-12.26,3.68-.93.29-1.69.5-2.18-.78,1.42-1.77,3.93-1.25,5.55-2.64.2.45.35.8.49,1.1,1.67-1.1,3.36-1.84,5.4-2.13,2.1-.3,4.09-1.36,6.15-2.04,1.69-.56,3.3-1.65,5.22-.9,2.06-1.09,4.47-.29,6.58-1.22.55-.24,1.23-.21,1.85-.23,2.34-.06,4.68-.15,7.02-.11,1.56.03,3.14.13,4.66.43,4.77.92,9.24-.46,13.71-1.7,2.68-.74,5.25-1.6,8.09-.6.53.19,1.35,0,2.08.29.85.33,1.42.78,1.45,1.68.05,1.48,1.07,2.39,1.9,3.38.94,1.14,2.08,2.07,2.75,3.47.38.79,1.19,1.2,2.4.97,3.81-.72,7.67-1.06,11.58-.74.91.07,1.86-.33,3.01-.56Z" />
    <path d="m68.91,352.45c-.55.32-1,.81-1.48.83-5.66.3-10.96,2.97-16.45,2.82-.63-1.47-1.2-2.63-1.63-3.85-.22-.63-.31-1.37-.24-2.03.29-2.53.79-5.05.99-7.58.24-3.13.6-6.26.34-9.43-.15-1.8.11-3.66.39-5.46.24-1.58,2.85-3.43,4.53-3.22,1.21.15,2.23.1,3.41-.41,2.25-.96,4.23.11,4.68,2.53.68,3.67,1.05,7.4,1.64,11.09.58,3.6,1.17,7.19,1.97,10.75.3,1.34,1.18,2.56,1.86,3.95Zm-15.72,1.17c3.76-.16,9.38-1.45,11.65-2.64-.23-1.07-.46-2.16-.7-3.25-.43-1.93-1.25-3.86-1.21-5.78.05-2.14-.63-4.01-1.07-5.99-.4-1.78-.91-3.61-.83-5.4.06-1.36-.13-2.47-.93-3.81-1.13,0-2.4-.03-3.66,0-1.67.05-2.7.94-2.79,2.62-.2,3.58-.43,7.16-.39,10.74.02,2.11.59,4.21.81,6.32.1.92.3,2.35-.18,2.72-1.78,1.37-.61,2.85-.69,4.46Z" />
    <path d="m471.12,305.28c.24.03.48.07.71.08,3.69.11,4.07.64,4.22,4.71.12,3.32-.11,6.66-.06,9.99.03,1.48.45,2.95.56,4.43.12,1.64-.2,2.04-1.75,2.57-2.19.75-4.44.91-6.76,1.04-2.77.16-5.34-.58-8-.85-1.46-.15-2.04-.86-1.63-2.3.59-2.07.21-3.96-.07-6.03-.44-3.26-.82-6.55-1.24-9.82-.13-1.02.19-1.9,1.29-2.29.45-.16.88-.43,1.35-.49,3.78-.45,7.57-.87,11.35-1.29,0,.08.02.16.02.24Zm1.23,19.77c0-1.85,0-3.59,0-5.33-.02-3.26-.02-6.51-.07-9.77-.02-1.53-.36-2.03-1.74-2.01-2.69.04-5.41-.19-8.04.7-2.24.76-2.7,1.82-2.22,4.1.55,2.63.78,5.33,1.09,8.01.09.79,0,1.59.01,2.39.03,1.12.6,1.76,1.72,1.93,3.08.48,6.15.6,9.24-.02Z" />
    <path d="m394.77,306.23c.62,0,1.24,0,1.85,0,1.12,0,2.09-.15,3.23-.65,1.25-.55,2.88-1.4,4.51-.71.18.08.46.05.64-.04,1.76-.9,3.72-.75,5.56-1.17,1.2-.27,1.91-.08,2.84.91-1.98.4-3.83.79-5.68,1.15-3.24.64-6.49,1.28-9.74,1.89-.78.15-1.6.3-2.36.2-.45-.06-.83-.64-1.24-.98.13-.2.25-.39.38-.59Z" />
  </g>
</svg>
