<?xml version="1.0" encoding="UTF-8" standalone="no"?>
<svg
  id="runes-kerryCook-original"
  data-name="Runes - Kerry Cook original"
  viewBox="0 0 505.54 166.00001"
  width="505.54001"
  height="166"
  xmlns="http://www.w3.org/2000/svg"
  style="width:100%;height:auto;"
>
  <title id="rune-kerryCook-original">Rune - Kerry Cook original</title>
  <defs
    id="defs29" />
  <g
    id="g24">
    <path
      d="m 161.98,67.82 h 2.41 c -0.28,1.39 -0.75,2.63 -0.73,3.86 0.06,3.14 -0.75,6.23 -0.4,9.4 0.11,0.97 -0.59,2.1 -1.12,3.04 -0.97,1.71 -0.91,2.99 0.38,4.7 0.26,0.34 0.54,0.98 0.39,1.26 -0.89,1.64 -0.22,3.77 -1.71,5.2 -0.2,0.19 -0.26,0.53 -0.47,0.96 0.77,-0.08 1.35,-0.15 1.92,-0.21 0.58,1.27 -0.33,1.64 -1.06,2.13 0.44,4.05 0.67,8.14 2.71,11.85 0.3,-0.18 0.67,-0.4 1.31,-0.78 -0.13,2.06 1.61,2.75 2.46,4.07 0.59,0.91 1.77,1.08 2.84,0.74 1.16,-0.37 2.09,-0.3 3.03,0.65 0.44,0.44 1.2,1.17 2.02,0.34 2.1,0.83 4.53,-0.31 6.57,1.27 0.71,0.55 1.97,0.41 3.1,0.6 0.23,-0.4 0.45,-0.8 0.69,-1.18 0.54,-0.85 1.09,-1.31 2.32,-1.17 1.71,0.2 3.49,-0.03 5.22,-0.23 0.53,-0.06 1.28,-0.54 1.45,-1 0.83,-2.29 1.99,-4.52 1.73,-7.08 -0.17,-1.65 -0.46,-3.3 -0.5,-4.96 -0.07,-2.55 0.04,-5.08 -0.74,-7.58 -0.31,-1.01 -0.1,-2.23 0.06,-3.32 0.44,-3.06 0.99,-6.1 1.47,-9.16 0.08,-0.54 0.07,-1.13 -0.02,-1.67 -0.46,-2.72 -0.82,-5.45 -0.52,-8.22 0.08,-0.78 0.35,-1.53 0.44,-2.31 0.14,-1.17 0.47,-2.4 0.26,-3.52 -0.45,-2.4 -0.47,-4.73 0.16,-7.09 0.16,-0.59 0.08,-1.26 0.07,-1.89 -0.02,-1.49 -0.42,-3.01 0.52,-4.43 0.23,-0.35 0.13,-0.93 0.13,-1.41 0,-3.19 -0.1,-6.38 0.01,-9.57 0.12,-3.26 0.46,-6.51 0.68,-9.77 0.06,-0.95 0.03,-1.9 0.02,-2.85 0,-0.32 -0.17,-0.7 -0.04,-0.94 1.4,-2.72 0.5,-5.57 0.51,-8.36 0,-1.02 0,-2.03 0,-3.22 1.38,-0.14 2.62,-0.04 3.68,-0.43 1.08,-0.4 1.95,-1.33 2.96,-1.94 0.45,-0.28 1.01,-0.42 1.55,-0.53 1.68,-0.33 3.02,-1.6 3.19,-3.28 0.25,-2.52 0.4,-5.05 0.58,-7.49 1.03,-0.62 2.04,-1.23 3.04,-1.84 1.07,-0.65 3.08,-0.6 4.04,0.16 0.23,0.19 0.49,0.48 0.53,0.75 0.19,1.44 0.28,2.9 0.48,4.34 0.22,1.63 0.53,3.25 0.79,4.85 3.93,0.62 7.33,-1.4 11.01,-1.52 0.27,-0.67 0.46,-1.19 0.7,-1.69 0.76,-1.62 1.38,-1.89 3.13,-1.67 1.23,0.16 2.5,0.08 3.74,0.21 2.28,0.25 3.04,1.03 3.46,3.61 1.39,0.15 2.84,0.31 4.28,0.48 1.79,0.21 3.42,1.82 3.78,3.58 0.49,2.34 0.75,4.62 0.22,7.04 -0.38,1.71 0.05,3.58 -0.02,5.38 -0.1,2.5 0.29,4.93 0.61,7.39 0.07,0.51 -0.05,1.17 -0.34,1.58 -0.83,1.16 -0.73,2.42 -0.6,3.68 0.36,3.51 0.46,6.98 -0.2,10.51 -0.34,1.81 0.11,3.77 0.16,5.66 0.02,0.78 0.08,1.61 -0.16,2.33 -0.93,2.82 0,5.23 1.94,7.08 2.12,2.02 4.53,3.71 6.27,6.13 0.35,0.49 0.97,0.88 1.55,1.08 1.47,0.5 1.98,1.69 2.55,2.96 0.4,0.9 1.13,1.66 1.84,2.67 -0.23,1.78 -0.53,3.89 -0.75,6.01 -0.16,1.5 -0.25,3.01 -0.3,4.52 -0.03,1.09 0.05,2.18 0.08,3.27 0,0.08 0.08,0.16 0.06,0.23 -0.37,2.36 -0.46,4.81 -1.2,7.05 -0.64,1.95 -0.98,3.91 -1.31,5.9 -0.1,0.63 -0.08,1.3 -0.31,1.87 -1.36,3.4 -1.13,7.03 -1.66,10.55 -0.27,1.8 -0.83,3.55 -1.16,5.34 -0.38,2.08 -1.12,4.09 -0.51,6.31 0.3,1.09 0.15,2.37 -0.03,3.53 -0.23,1.46 -0.86,2.87 -1.02,4.34 -0.1,0.85 0.38,1.77 0.57,2.53 1.31,0.26 2.38,0.57 3.47,0.65 0.76,0.06 1.55,-0.14 2.31,-0.32 1.27,-0.31 2.52,-0.7 4.32,-1.21 1.22,-2.1 1.71,-4.59 0.25,-7.51 -1.25,-2.49 -1.03,-5.25 -0.11,-7.9 0.21,-0.6 0.59,-1.17 0.64,-1.77 0.34,-4.26 0.64,-8.52 0.89,-12.79 0.19,-3.15 0.11,-6.34 0.48,-9.47 0.33,-2.81 1.95,-4.87 4.62,-6.11 2.32,-1.08 5.03,-1.67 6.22,-4.37 0.34,-0.78 0.97,-1.62 0.88,-2.36 -0.25,-2.23 0.96,-3.82 2.14,-5.35 0.54,-0.7 0.77,-1.26 0.81,-2.1 0.03,-0.75 0.33,-1.5 0.57,-2.23 0.43,-1.31 0.89,-2.62 1.37,-3.91 0.62,-1.69 1.28,-3.36 1.92,-5.04 0.17,-0.44 0.39,-0.88 0.45,-1.34 0.36,-2.91 -0.12,-3.73 -2.87,-5.08 -0.4,-0.2 -0.77,-0.45 -1.63,-0.95 1.68,-0.79 2.98,-1.4 4.44,-2.09 -0.12,-1.49 0.69,-3 0.26,-4.73 -0.37,-1.48 0.41,-2.16 2.6,-2.77 1.4,1.09 0.8,2.77 1.16,4.17 0.34,1.31 0.89,2.56 1.4,3.99 0.85,0.12 1.83,0.26 2.74,0.39 0.38,1.62 -0.57,1.81 -1.57,2 -1.06,0.2 -2.43,0.13 -3.06,0.77 -0.55,0.55 -0.25,1.94 -0.32,2.96 -0.06,0.88 -0.13,1.75 -0.17,2.63 -0.06,1.26 0.37,2.33 1.2,3.28 0.46,0.53 1.01,1.11 1.16,1.75 0.63,2.66 1.98,4.9 3.49,7.15 1.13,1.68 1.62,3.78 2.36,5.71 0.54,1.41 1.12,2.82 1.51,4.27 0.23,0.83 0.83,1.95 -0.52,2.46 -1.16,0.43 -2.19,-0.39 -2.51,-1.81 -0.23,-1 -0.57,-1.98 -0.85,-2.97 -1,-3.66 -2.96,-6.85 -4.83,-10.11 -0.58,-1.01 -0.84,-2.21 -1.28,-3.31 -0.27,-0.68 -0.6,-1.34 -1.03,-2.3 -1.32,3.54 -2.29,6.69 -3.66,9.66 -1.18,2.56 -1.52,5.37 -2.66,7.88 -0.73,1.63 -2.04,3.01 -3.2,4.42 -0.29,0.35 -1.05,0.56 -1.53,0.47 -2.08,-0.39 -3.35,1.15 -4.86,2.01 -0.73,0.41 -1.1,1.21 -1.14,2.36 -0.09,2.5 -0.81,4.98 -1.1,7.49 -0.17,1.5 -0.3,3.1 0.05,4.53 0.5,2.1 0.13,4.12 -0.26,6.08 -0.4,1.99 -0.39,4.11 -1.07,5.96 -0.96,2.6 -0.43,4.9 0.28,7.33 1.16,3.94 0.88,7.76 -1.09,11.39 -1.08,-0.08 -2.06,-0.2 -3.04,-0.19 -0.42,0 -0.9,0.22 -1.25,0.47 -2.24,1.62 -4.21,1.6 -6.52,-0.21 -1.81,1.35 -3.55,0.28 -4.91,-0.74 -0.7,-0.53 -0.74,-2.17 -0.76,-3.32 -0.02,-1.09 0.26,-2.23 0.59,-3.28 0.73,-2.33 0.54,-4.69 0.47,-7.07 -0.04,-1.25 0.23,-2.52 0.44,-3.77 0.44,-2.66 0.96,-5.3 1.41,-7.96 0.52,-3.05 0.93,-6.12 1.53,-9.16 0.67,-3.43 1.6,-6.81 2.22,-10.25 0.32,-1.77 0.18,-3.62 0.31,-5.43 0.26,-3.73 0.46,-7.47 0.92,-11.18 0.13,-1.06 0.11,-1.9 -0.51,-2.66 -1.09,-1.33 -2.21,-2.66 -3.45,-3.85 -0.55,-0.53 -1.42,-0.74 -2.39,-1.21 -0.41,-1.88 -2.29,-2.91 -3.76,-4.31 -0.67,-0.63 -1.22,-1.4 -1.8,-2.12 -0.45,-0.55 -0.83,-1.16 -1.31,-1.68 -1.13,-1.23 -1.68,-2.44 -1.36,-4.29 0.62,-3.53 0.73,-7.14 1.23,-10.69 0.53,-3.72 0.25,-7.41 -0.02,-11.11 -0.04,-0.55 -0.12,-1.22 0.14,-1.65 1.07,-1.75 0.54,-3.57 0.34,-5.35 -0.28,-2.47 -0.25,-4.89 0.07,-7.38 0.32,-2.42 0.32,-4.95 0.04,-7.38 -0.26,-2.26 -1.19,-2.7 -3.29,-2.35 -3.43,0.58 -4.08,0.16 -5.07,-3.27 -0.06,-0.21 -0.19,-0.41 -0.28,-0.62 h -4.13 c -0.13,0.16 -0.31,0.32 -0.4,0.52 -1.19,2.72 -1.8,3.07 -4.77,2.92 -0.68,-0.03 -1.37,0.14 -2.06,0.23 -2.35,0.32 -4.69,0.79 -7.05,0.95 -2.42,0.16 -3.96,-1.84 -4.06,-4.6 -0.06,-1.7 -0.43,-3.4 -0.66,-5.16 -1.26,0.01 -2.09,0.12 -2.07,1.51 0.03,1.73 -0.06,3.47 -0.05,5.2 0.01,1.82 -1.02,4.51 -3.86,4.98 -0.69,0.11 -1.37,0.37 -2.02,0.65 -1.74,0.74 -3.46,1.52 -5.34,2.35 0.01,-0.02 -0.13,0.11 -0.13,0.25 -0.21,4.51 -0.34,9.03 -0.64,13.54 -0.16,2.35 -0.62,4.68 -0.96,7.02 -0.07,0.46 -0.28,0.93 -0.25,1.38 0.18,2.99 -0.51,6.01 0.31,8.99 0.16,0.58 0,1.27 -0.11,1.89 -0.55,2.89 -1.31,5.76 -1.65,8.68 -0.24,2.09 0.11,4.24 0.15,6.36 0.01,1.01 -0.09,2.02 -0.17,3.03 -0.14,1.72 -0.38,3.44 -0.43,5.16 -0.06,2.06 -0.06,4.1 0.46,6.15 0.23,0.93 -0.03,2.01 -0.17,3 -0.43,3.14 -0.99,6.26 -1.3,9.41 -0.11,1.14 0.4,2.34 0.51,3.52 0.15,1.5 0.18,3 0.28,4.5 0.18,2.53 0.6,5.06 0.49,7.58 -0.08,1.86 -0.81,3.7 -1.32,5.53 -0.4,1.43 -1.51,1.96 -2.91,1.94 -0.8,-0.01 -1.6,-0.13 -2.39,-0.09 -0.7,0.04 -1.41,0.15 -2.07,0.36 -1.27,0.4 -2.51,0.89 -4,1.43 0,-0.02 -0.04,0.29 -0.14,0.58 -0.43,1.28 -0.89,1.56 -2.06,1.19 -2.11,-0.67 -4.21,-1.36 -6.48,-1.01 -0.31,0.05 -0.69,0.06 -0.94,-0.08 -1.86,-1.08 -3.82,-0.62 -5.78,-0.55 -0.71,0.02 -1.51,-0.32 -2.14,-0.71 -1.74,-1.09 -3.26,-2.62 -5.69,-2.17 0.17,-1.01 0.3,-1.83 0.5,-3.05 -0.64,0.43 -0.97,0.64 -1.41,0.94 -1.52,-3.23 -3.6,-6.31 -4.02,-9.99 -0.3,-2.6 -0.29,-5.24 -0.21,-7.86 0.05,-1.72 0.49,-3.43 0.74,-5.14 0.16,-1.12 -0.96,-2 -0.55,-3.24 0.2,-0.6 -0.37,-1.51 -0.11,-2.03 1.14,-2.29 0.41,-4.63 0.45,-6.96 0.03,-1.66 0.43,-3.3 0.56,-4.96 0.12,-1.66 0.24,-3.33 0.11,-4.98 -0.23,-3.02 -0.64,-6.01 0.46,-8.98 0.24,-0.66 -0.13,-1.54 -0.21,-2.32 -0.12,-1.22 -0.49,-2.48 -0.27,-3.64 0.38,-2.1 0,-4.21 0.33,-6.29 0.29,-1.86 0.26,-3.66 -0.18,-5.55 -0.32,-1.39 0.23,-2.95 0.23,-4.44 0.01,-2.28 -0.1,-4.56 -0.16,-6.85 -0.02,-0.63 -0.05,-1.27 -0.04,-1.9 0.02,-1.23 -0.13,-2.23 -1.29,-3.11 -0.78,-0.6 -1.04,-1.89 -1.54,-2.86 -0.21,-0.42 -0.44,-0.82 -0.75,-1.39 -1.54,0.67 -3.24,0.48 -4.65,0.9 -1.76,0.53 -3.22,-0.24 -4.85,-0.25 -1.35,1.44 -0.38,3.53 -1.64,5.05 -1.05,1.26 -1.57,2.96 -2.33,4.47 -2.36,1 -4.56,0.79 -6.84,-0.49 -2.03,-1.13 -4.2,-1.05 -5.94,0.31 -1.14,-0.38 -2.13,-0.81 -3.16,-1 -0.45,-0.08 -1.21,0.17 -1.46,0.52 -1.48,2.15 -3.99,2.23 -6.08,2.86 -2.97,0.89 -4.72,2.86 -4.47,6.04 0.04,0.53 0.22,1.12 0.04,1.57 -0.45,1.08 -0.53,1.94 -0.01,3.14 0.4,0.95 -0.07,2.3 -0.25,3.46 -0.2,1.25 -0.61,2.47 -0.73,3.72 -0.06,0.66 0.2,1.4 0.49,2.03 0.7,1.55 0.57,1.75 -1.47,1.65 0.64,1.1 0.73,2 0.09,3.2 -0.67,1.26 -0.97,2.98 -0.77,4.4 0.45,3.1 0.27,6.16 0.06,9.23 -0.17,2.53 -0.57,5.04 -0.81,7.57 -0.11,1.23 -0.11,2.47 -0.09,3.71 0.04,2.63 -0.6,3.11 -3.13,2.21 -0.71,0.51 -0.58,1.61 -1.9,2 -1.62,0.48 -3.02,1.92 -4.3,3.18 -0.68,0.67 -1.31,0.68 -2.1,0.79 -2.47,0.34 -4.81,1.01 -6.69,2.8 -0.39,0.37 -0.9,0.77 -1.39,0.85 -3.3,0.48 -3.7,3.48 -4.96,5.69 -0.23,0.4 0.14,1.23 0.37,1.81 0.75,1.91 0.44,3.55 -1.05,4.98 -0.16,0.15 -0.22,0.42 -0.4,0.8 0.94,1.4 0.85,2.8 -0.27,4.27 -0.45,0.59 -0.26,1.64 -0.58,2.38 -0.3,0.67 -0.12,0.75 0.45,0.9 0.16,0.04 0.25,0.57 0.26,0.88 0,0.21 -0.29,0.58 -0.24,0.62 1.67,1.36 0.04,3.21 0.68,4.77 0.18,0.43 -0.43,1.31 -0.87,1.82 -0.35,0.41 -0.98,0.57 -1.55,0.88 0.39,0.23 0.83,0.5 1.37,0.83 -0.32,1.26 -0.42,2.67 -1.03,3.8 -0.7,1.29 -0.39,2.45 0.2,3.36 1,1.56 0.99,3.15 0.99,4.87 0,1.5 -1.1,2.59 -1.91,2.71 -1.95,0.28 -2.38,1.99 -3.58,2.93 -0.3,0.24 -0.47,0.64 -0.76,1.06 -3.39,-0.12 -6.74,-0.17 -9.9,-1.94 -1.72,-0.97 -3.07,-1.9 -3.06,-3.92 -2.07,0.13 -4.03,0.17 -5.96,0.43 -0.91,0.12 -1.73,0.81 -2.64,1.03 -2.7,0.65 -5.43,1.19 -8.15,1.77 -0.16,0.03 -0.35,0.16 -0.46,0.11 -0.44,-0.23 -0.86,-0.51 -1.28,-0.77 0.29,-0.33 0.52,-0.86 0.88,-0.97 1.63,-0.5 3.3,-0.91 4.96,-1.3 3,-0.71 6.07,-1.18 8.98,-2.16 1.73,-0.58 3.29,-0.07 4.91,-0.05 0.47,0 1.03,0.87 1.34,1.46 0.24,0.45 0.14,1.07 0.18,1.5 1.2,0.71 2.28,1.34 3.35,2 1.17,0.73 2.5,0.76 3.79,0.91 0.37,0.04 0.84,-0.08 1.13,-0.3 0.96,-0.72 1.86,-1.53 2.88,-2.38 -1.89,-2.46 -1.25,-5.08 -0.38,-7.74 0.31,-0.94 0.44,-1.97 0.46,-2.97 0.05,-2.18 0.39,-4.27 -0.52,-6.53 -0.72,-1.8 -0.28,-4.09 -0.3,-6.16 0,-0.34 0.33,-0.68 0.48,-1.03 0.18,-0.41 0.52,-0.88 0.45,-1.25 -0.57,-3.1 0.17,-5.96 1.49,-8.73 0.13,-0.28 0.14,-0.62 0.22,-0.97 0.48,-0.07 0.94,-0.15 1.6,-0.25 -1.29,-3.38 1.17,-6.02 1.85,-9.31 3.14,-1.06 5.47,-3.67 8.27,-5.64 1.61,1.31 3.41,0.51 4.69,-0.14 2.48,-1.27 4.64,-3.14 6.94,-4.76 0.77,-0.54 1.54,-1.07 2.52,-1.75 0.08,-1.35 0.09,-2.92 0.3,-4.47 0.18,-1.3 0.37,-2.68 0.94,-3.82 1,-2 0.48,-4.01 0.45,-6.01 -0.03,-1.99 -1.34,-3.93 -0.2,-5.97 -0.58,-2.74 0.33,-5.29 0.95,-7.89 0.48,-1.99 1.24,-4.12 0.95,-6.05 -0.42,-2.81 0.46,-5.45 0.3,-8.2 -0.11,-1.78 0.3,-3.58 0.36,-5.38 0.05,-1.61 1.53,-1.95 2.41,-2.61 1.21,-0.91 2.88,-1.2 4.33,-1.82 1.35,-0.58 2.83,-1.05 3.97,-1.93 1.81,-1.4 3.5,-0.85 5.3,-0.25 0.22,0.07 0.44,0.16 0.77,0.29 1.29,-1.41 3.06,-1.54 4.8,-1.36 1.14,0.12 2.43,0.47 3.28,1.17 1.1,0.9 2.1,0.98 3.26,0.64 1.77,-2.63 2.59,-5.51 2.89,-8.59 0.05,-0.52 0.44,-1 0.72,-1.61 0.58,0.07 1.11,0.15 1.65,0.2 1.79,0.15 3.55,0.3 5.33,-0.4 0.8,-0.32 1.83,-0.02 2.76,-0.06 1.04,-0.04 2.08,-0.14 3.42,-0.24 0.98,0.87 2.24,2 3.51,3.13 0.24,0.21 0.71,0.4 0.71,0.59 -0.03,2.75 2.74,3.92 3.46,6.23 0.11,0.36 0.31,0.95 0.15,1.11 -1.11,1.13 -0.39,2.22 -0.06,3.33 0.55,1.85 1.01,3.66 0,5.57 -0.38,0.73 -0.57,1.77 -0.37,2.55 0.38,1.43 -0.27,2.78 0.1,4.28 0.4,1.64 -0.34,3.55 -0.6,5.45 h -1.29 c -0.09,0.1 -0.19,0.18 -0.18,0.22 0.7,1.86 -1.07,4 1.02,5.87 1.13,1.01 1.88,2.94 1.05,4.8 -0.13,0.29 -0.29,0.57 -0.48,0.82 -0.78,0.99 0.74,2.09 -0.32,3.24 -0.69,0.75 -0.75,2.09 -1.15,3.38 z"
      id="path2" />
    <path
      d="m 447.07,143.49 c -2.35,0 -4.25,1.11 -6.29,0.25 -2.94,1.1 -5.84,-0.71 -8.75,-0.16 -3.67,0.7 -7.22,0.32 -10.82,-0.54 -1.56,-0.37 -3.28,-0.05 -4.91,-0.21 -1.61,-0.15 -3.2,-0.52 -4.8,-0.75 -0.68,-0.1 -1.38,-0.06 -2.07,-0.09 -2.06,-0.09 -4.12,-0.17 -6.18,-0.27 -0.56,-0.03 -1.11,-0.08 -1.67,-0.11 -2.33,-0.11 -3.31,-0.95 -3.66,-3.28 -0.28,-1.88 -0.51,-3.77 -0.66,-5.66 -0.11,-1.29 -0.36,-2.29 -1.84,-2.68 -1.06,-0.28 -2.03,-0.86 -3.05,-1.3 -1.24,-0.54 -2.07,-1.26 -2.12,-2.84 -0.08,-2.38 -0.38,-4.76 -0.7,-7.12 -0.28,-2.04 -0.99,-2.07 -2.61,-1.89 -5.18,0.57 -10.14,-0.13 -14.79,-2.56 -1.31,-0.68 -2.02,-1.72 -1.89,-3.3 0.1,-1.34 0.02,-2.69 0.02,-4.47 -1.49,0.54 -2.64,0.96 -3.79,1.38 -0.52,0.19 -1.04,0.41 -1.58,0.52 -3.47,0.74 -6.94,1.48 -10.43,2.17 -1.41,0.28 -1.8,0.73 -2.15,2.14 -0.68,2.72 -1,5.52 -2.32,8.09 -0.74,1.45 -1.02,3.17 -1.35,4.8 -0.47,2.36 -0.58,2.48 -2.94,3.09 -3.32,0.87 -6.66,0.51 -9.98,0.22 -2.28,-0.2 -4.45,-1.11 -6.67,-1.62 -2.35,-0.55 -4.85,-1.36 -7.39,-0.27 -1.44,0.61 -2.88,-0.62 -3.11,-2.19 -0.15,-1 -0.57,-1.95 -0.84,-2.94 -0.33,-1.22 -0.62,-2.45 -0.93,-3.69 -1.49,-0.84 -3.01,-1.03 -4.75,-0.9 -1.42,0.11 -2.99,-0.37 -4.32,-0.97 -1.56,-0.7 -2.06,-2.49 -1.46,-4.34 0.33,-1.02 0.68,-1.94 -0.09,-2.93 -0.21,-0.28 -0.24,-0.76 -0.22,-1.14 0.24,-4.1 0.48,-8.2 0.76,-12.3 0.11,-1.59 -0.54,-2.43 -2.16,-2.5 -0.71,-0.03 -1.42,0.12 -2.31,0.2 -0.07,-0.41 -0.33,-1.12 -0.2,-1.21 1.07,-0.66 2.17,-1.31 3.34,-1.74 0.52,-0.19 1.25,0.07 1.85,0.24 1.23,0.35 2.13,1.02 2.16,2.47 0.04,1.58 0.17,3.16 0.2,4.74 0.03,2.04 0.02,4.09 -0.05,6.14 -0.02,0.68 -0.27,1.35 -0.42,2.03 -0.41,1.86 0.06,3.78 -0.62,5.69 -0.55,1.54 1.5,3.47 3.24,3.57 1.83,0.1 3.66,0.22 5.47,0.51 2.3,0.37 3.51,1.67 3.94,3.82 0.31,1.54 0.67,3.07 1.02,4.66 1.91,0.11 3.53,0.83 5.34,0.3 0.74,-0.22 1.84,0.07 2.53,0.51 2.68,1.74 5.7,1.5 8.65,1.83 1.94,0.22 3.77,0.25 5.4,-0.44 0.61,-1.88 0.87,-3.78 1.82,-5.24 0.83,-1.27 1.71,-2.43 1.97,-3.94 0.11,-0.63 0.23,-1.26 0.25,-1.9 0.06,-1.95 0.62,-3.7 1.59,-5.4 0.36,-0.64 0.7,-0.97 1.37,-1.1 0.85,-0.17 1.69,-0.51 2.55,-0.57 5.29,-0.39 10.21,-2.04 14.99,-4.23 0.71,-0.32 1.48,-0.55 2.24,-0.68 0.43,-0.07 0.97,0.06 1.36,0.27 1.12,0.62 2.44,4.06 2.17,5.35 -0.22,1.04 -0.39,2.09 -0.58,3.07 0.69,0.31 1.17,0.43 1.53,0.7 2.31,1.71 5.04,1.8 7.72,1.89 2.7,0.09 5.41,-0.04 8.11,-0.05 0.31,0 0.61,0.11 0.9,0.16 0.53,1.86 1.23,3.63 1.48,5.45 0.25,1.88 0.06,3.82 0.06,5.62 1.87,0.98 3.47,1.85 5.1,2.67 1.8,0.91 2.27,1.83 2.1,3.79 -0.16,1.85 -0.31,3.72 -0.18,5.56 0.04,0.51 1.01,1.19 1.67,1.36 1.53,0.41 3.12,0.64 4.71,0.8 3.86,0.4 7.73,0.67 11.58,1.1 2.36,0.26 4.69,0.86 7.06,1.02 2.67,0.17 5.36,-0.02 8.04,0.02 1.82,0.03 3.64,0.25 5.47,0.29 1.49,0.03 3,0 4.47,-0.19 1.18,-0.16 2.16,-0.02 3.41,1.22 z"
      id="path4" />
    <path
      d="m 224.58,26.59 c 2.35,0 4.56,-0.02 6.76,0 1.26,0.01 2.52,0.09 3.78,0.16 1.64,0.08 2.35,0.71 2.35,2.35 0.01,1.9 -0.14,3.81 -0.21,5.72 -0.04,1.03 -0.14,2.08 -0.04,3.1 0.18,1.74 0.13,3.34 -0.44,5.1 -0.47,1.46 -0.77,3.29 0.03,5 0.38,0.8 0.35,1.89 0.24,2.81 -0.19,1.57 -0.6,3.11 -0.89,4.67 -0.21,1.11 -0.85,1.77 -1.97,1.65 -3.31,-0.34 -6.61,-0.75 -9.91,-1.16 -0.21,-0.03 -0.41,-0.22 -0.92,-0.52 0.46,-1.4 1.09,-2.82 1.35,-4.31 0.21,-1.21 1.28,-2.58 -0.2,-3.78 -0.16,-0.13 0.03,-0.69 0.04,-1.05 0.1,-3.06 0.29,-6.12 0.26,-9.18 -0.03,-3.23 -0.28,-6.46 -0.42,-9.7 0,-0.23 0.09,-0.46 0.17,-0.87 z m 4.13,1.96 c 0,3.17 0.06,6 -0.02,8.84 -0.08,3.03 -0.26,6.05 -0.48,9.07 -0.05,0.65 -0.82,1.45 -0.62,1.87 0.88,1.82 0.06,3.52 -0.2,5.29 1.55,1 3.14,0.52 4.79,0.56 0.09,-0.54 0.21,-1 0.24,-1.46 0.16,-2.77 0.26,-5.54 0.45,-8.31 0.07,-1.03 0.5,-2.05 0.46,-3.06 -0.14,-3.25 -0.28,-6.48 -0.01,-9.73 0.14,-1.67 -0.47,-2.33 -2.07,-2.71 -0.68,-0.16 -1.39,-0.2 -2.54,-0.35 z"
      id="path6" />
    <path
      d="m 475.64,165.1 c 3.76,-1.36 5.49,-4.13 4.41,-6.97 -0.53,0.47 -0.99,1.25 -1.59,1.37 -2.99,0.6 -3.61,2.97 -4.3,5.35 -0.13,0.44 -0.17,1.04 -0.47,1.25 -0.4,0.29 -1.11,0.49 -1.51,0.32 -0.35,-0.15 -0.68,-0.88 -0.64,-1.33 0.15,-1.74 0.45,-3.47 0.68,-5.2 0.05,-0.38 0.05,-0.78 0.09,-1.4 -0.62,0.05 -1.13,0.09 -1.56,0.12 -0.15,0.22 -0.29,0.34 -0.3,0.47 -0.21,2.12 -0.26,2.29 -2.16,2.3 -2.54,0.02 -5.09,-0.18 -7.64,-0.26 -1.01,-0.03 -2.03,0 -3.16,0 v 2.02 c -0.33,0.04 -0.62,0.17 -0.75,0.08 -0.56,-0.4 -1.41,-0.79 -1.53,-1.32 -0.36,-1.6 -1.43,-1.84 -2.78,-2.07 -1.17,-0.21 -2.55,-0.3 -3.33,-1.96 1.2,-0.4 2.3,-0.75 3.39,-1.14 0.92,-0.32 1.51,-0.83 1.19,-1.97 -0.96,-3.41 -0.98,-6.93 -1.08,-10.43 -0.03,-0.98 0,-1.94 -1.4,-2.06 0.38,-1.27 0.7,-2.32 1.01,-3.35 2.37,0.12 3.37,1.34 3.19,3.4 -0.26,2.98 -0.47,5.98 -0.45,8.97 0,1.02 0.74,2.04 1.14,3.04 1.46,-0.4 2.81,-0.85 4.2,-1.09 0.51,-0.09 1.37,0.18 1.6,0.57 0.23,0.38 -0.01,1.19 -0.27,1.69 -0.58,1.1 -1.3,2.12 -2.09,3.39 2.82,0.88 5.3,0.66 7.89,0.42 0,-2.82 0,-5.43 0,-8.04 0,-0.31 -0.13,-0.62 -0.18,-0.94 -0.13,-0.82 -0.14,-1.69 0.8,-1.99 1.04,-0.33 1.61,0.29 1.9,1.28 0.56,1.88 1.17,3.75 1.81,5.79 0.35,-0.24 0.79,-0.49 1.18,-0.8 0.68,-0.55 1.54,-0.89 2.15,-0.26 0.37,0.38 0.28,1.29 0.24,1.95 -0.05,0.71 -0.28,1.4 -0.01,2.25 0.79,-1.22 1.59,-2.44 2.48,-3.83 -0.2,-0.49 -0.45,-1.12 -0.71,-1.76 2.24,-0.51 2.68,-0.41 3.51,1.07 0.81,1.45 1.76,2.89 2.19,4.46 0.47,1.75 0.46,3.57 -1.12,5.07 -1.22,1.16 -2.27,2.48 -4.03,2.81 -1.04,0.19 -1.9,0.07 -1.97,-1.27 z"
      id="path8" />
    <path
      d="m 133.84,126.58 c -0.16,-3.55 -0.27,-6.7 0.48,-9.82 0.18,-0.76 0.08,-1.38 -0.13,-2.18 -0.35,-1.36 0.01,-2.91 0.09,-4.38 0.03,-0.61 0.35,-1.36 0.1,-1.81 -1.38,-2.48 -0.35,-4.4 1.26,-6.22 0.21,-0.24 0.46,-0.43 0.79,-0.74 1.22,0.59 2.4,0.55 3.78,0.09 1.23,-0.42 2.71,-0.25 4.05,-0.09 1.18,0.14 1.34,1.19 1.34,2.21 0,1.64 -0.07,3.29 0.04,4.93 0.17,2.54 0.23,5.12 0.78,7.58 0.57,2.57 -0.18,4.85 -0.78,7.2 -0.12,0.47 -0.83,0.97 -1.37,1.12 -1.37,0.38 -2.8,0.55 -4.19,0.85 -1.07,0.23 -2.12,0.57 -3.19,0.79 -0.92,0.19 -1.86,0.29 -3.07,0.46 z m 7.07,-4.1 c 0.36,-1.74 1.02,-3.45 1,-5.15 -0.04,-3.41 -0.45,-6.81 -0.72,-10.22 -0.07,-0.89 -0.16,-1.78 -0.25,-2.84 -0.83,0.99 -2.35,-0.81 -3.08,0.54 0.17,1.17 0.47,2.09 0.4,2.98 -0.14,1.65 -0.43,3.26 0.91,4.45 -1.85,3.61 -2.64,7.17 -1.72,11.14 1.24,-0.33 2.15,-0.57 3.46,-0.91 z"
      id="path10" />
    <path
      d="m 127.04,68.93 c -2.62,-0.17 -3.29,-1.02 -2.77,-3.52 0.16,-0.76 0.25,-1.56 0.23,-2.33 -0.1,-3.97 -0.34,-7.95 -0.3,-11.92 0.01,-1.26 0.73,-2.52 1.22,-3.74 0.12,-0.31 0.58,-0.63 0.91,-0.67 1.89,-0.22 3.8,-0.47 5.7,-0.48 1,0 1.76,0.66 1.83,1.82 0.16,2.66 0.19,5.34 0.54,7.98 0.24,1.83 0.25,3.57 -0.13,5.38 -0.14,0.67 0.31,1.49 0.58,2.21 0.69,1.81 0.43,2.38 -1.37,3.02 -1.2,0.42 -2.35,0.98 -3.54,1.41 -0.95,0.34 -1.94,0.57 -2.91,0.85 z m 2.48,-16.43 c -1.69,2.69 -2.18,10.6 -0.82,13.29 0.74,-0.36 1.48,-0.73 1.96,-0.96 0,-3.12 0.09,-5.9 -0.04,-8.67 -0.06,-1.19 0.28,-2.6 -1.1,-3.66 z m 0.18,-1.22 c 0.16,-0.2 0.33,-0.35 0.4,-0.53 0.03,-0.08 -0.14,-0.24 -0.22,-0.36 -0.14,0.15 -0.31,0.28 -0.4,0.46 -0.04,0.07 0.11,0.24 0.22,0.43 z"
      id="path12" />
    <path
      d="m 288.93,100.86 c 2.86,0.32 5.22,0.56 7.58,0.87 1.55,0.2 2.53,1.35 2.5,2.84 -0.04,1.49 -0.16,2.98 -0.12,4.47 0.01,0.48 0.37,0.98 0.65,1.42 0.79,1.26 0.77,1.68 -0.42,2.58 -0.88,0.66 -1.82,1.24 -2.74,1.84 -0.4,0.26 -0.96,0.38 -1.21,0.74 -1.64,2.34 -4.22,1.87 -6.48,2.12 -2.43,0.27 -4.76,-0.45 -6.84,-1.67 -0.75,-0.44 -1.26,-1.37 -1.72,-2.17 -0.38,-0.66 -0.59,-1.45 -0.73,-2.21 -0.15,-0.84 -0.36,-1.79 -0.13,-2.56 0.63,-2.12 1.42,-4.2 2.29,-6.24 0.24,-0.57 0.92,-1.24 1.49,-1.34 2.1,-0.36 4.24,-0.5 5.89,-0.68 z m 6.2,3 c -2.18,-0.73 -4.52,-1.09 -6.91,-0.93 -2.23,0.15 -3.25,1.51 -2.97,3.72 0.37,2.98 3.5,6.23 6.42,6.66 1.36,0.2 2.98,-0.75 3.34,-2.09 0.65,-2.39 1.21,-4.8 0.12,-7.37 z m -12.85,3.56 c -1.4,1.88 -1.46,4.71 -0.21,6.43 0.27,0.37 0.59,0.77 0.98,0.99 1.87,1.1 4.84,1.29 7.09,0.51 -0.46,-0.23 -0.87,-0.46 -1.31,-0.65 -2.24,-0.97 -4.22,-2.13 -4.94,-4.75 -0.25,-0.91 -1.04,-1.67 -1.62,-2.53 z"
      id="path14" />
    <path
      d="m 222.48,80.32 c -0.07,1.08 -0.02,1.89 -0.19,2.65 -0.47,2.13 -0.29,4.21 0.18,6.3 0.17,0.75 0.12,1.55 0.17,2.33 0.09,1.66 0.15,3.32 0.25,4.98 0.1,1.66 -0.21,2.13 -1.95,2.28 -2.51,0.22 -5.04,0.3 -7.82,0.45 0,-1.98 -0.37,-3.87 0.09,-5.52 0.64,-2.28 0.33,-4.47 -0.03,-6.61 -0.46,-2.72 1.43,-4.42 2.26,-6.58 0.08,-0.21 0.59,-0.44 0.81,-0.37 1.56,0.5 2.99,-0.16 4.48,-0.35 0.5,-0.07 1.04,0.25 1.77,0.44 z m -3.85,16.49 V 81.98 c -1.06,0.65 -1.69,1.04 -2.34,1.44 0.23,4.5 0.46,8.9 0.69,13.39 z"
      id="path16" />
    <path
      d="m 356.81,125.59 c 0.3,-2.23 0.71,-4.21 0.78,-6.21 0.03,-0.94 -0.61,-1.89 -0.96,-2.9 1.75,-3.13 2.02,-3.22 3.78,-1.56 1.69,0 3.11,-0.05 4.52,0.02 0.94,0.05 1.68,0.5 1.87,1.53 0.14,0.77 0.37,1.55 0.35,2.32 -0.04,2.22 -0.16,4.43 -0.3,6.64 -0.1,1.59 -0.52,2 -2.09,1.84 -2.2,-0.23 -4.4,-0.58 -6.59,-0.94 -0.43,-0.07 -0.82,-0.43 -1.36,-0.73 z m 2.89,-1.81 c 1.05,0.05 1.93,0.24 2.75,0.08 0.52,-0.1 1.39,-0.8 1.34,-1.09 -0.29,-1.63 0.35,-3.53 -1.14,-4.83 -2.21,0.39 -2.21,0.39 -2.45,2.38 -0.13,1.02 -0.28,2.03 -0.49,3.46 z"
      id="path18" />
    <path
      d="m 27.82,140.1 c 0.86,-0.65 1.69,-0.25 2.48,0.12 3.21,1.51 6.44,1.88 9.84,0.56 1.68,-0.65 3.61,-0.49 5.21,-1.55 0.33,-0.22 1.01,0.08 1.54,0.14 -0.05,1.17 -0.47,1.77 -1.53,1.93 -3.3,0.5 -6.44,1.84 -9.85,1.82 -1.4,0 -2.74,0.29 -4.05,-0.71 -0.68,-0.52 -1.81,-0.44 -2.74,-0.64 -1.01,-0.22 -1.31,-0.8 -0.85,-1.74 z"
      id="path20" />
    <path
      d="m 27.87,140.03 c -1.04,1.36 -2.53,0.87 -3.86,0.84 -0.33,0 -0.64,-0.67 -1.18,-1.28 1.74,-0.19 3.06,-0.33 4.55,-0.49 0.07,0.17 0.26,0.59 0.45,1.01 0,0 0.05,-0.07 0.05,-0.07 z"
      id="path22" />
  </g>
</svg>
