<?xml version="1.0" encoding="UTF-8"?>
<svg id="runes-kerryCook-original" data-name="Runes - Kerry Cook original" xmlns="http://www.w3.org/2000/svg" viewBox="0 0 505.54 554.66" style="width:100%;height:auto;">
  <title id="runes1-kerryCook-original">Runes, layer 1 - Kerry Cook original</title>
  <g>
    <path d="m161.98,67.82h2.41c-.28,1.39-.75,2.63-.73,3.86.06,3.14-.75,6.23-.4,9.4.11.97-.59,2.1-1.12,3.04-.97,1.71-.91,2.99.38,4.7.26.34.54.98.39,1.26-.89,1.64-.22,3.77-1.71,5.2-.2.19-.26.53-.47.96.77-.08,1.35-.15,1.92-.21.58,1.27-.33,1.64-1.06,2.13.44,4.05.67,8.14,2.71,11.85.3-.18.67-.4,1.31-.78-.13,2.06,1.61,2.75,2.46,4.07.59.91,1.77,1.08,2.84.74,1.16-.37,2.09-.3,3.03.65.44.44,1.2,1.17,2.02.34,2.1.83,4.53-.31,6.57,1.27.71.55,1.97.41,3.1.6.23-.4.45-.8.69-1.18.54-.85,1.09-1.31,2.32-1.17,1.71.2,3.49-.03,5.22-.23.53-.06,1.28-.54,1.45-1,.83-2.29,1.99-4.52,1.73-7.08-.17-1.65-.46-3.3-.5-4.96-.07-2.55.04-5.08-.74-7.58-.31-1.01-.1-2.23.06-3.32.44-3.06.99-6.1,1.47-9.16.08-.54.07-1.13-.02-1.67-.46-2.72-.82-5.45-.52-8.22.08-.78.35-1.53.44-2.31.14-1.17.47-2.4.26-3.52-.45-2.4-.47-4.73.16-7.09.16-.59.08-1.26.07-1.89-.02-1.49-.42-3.01.52-4.43.23-.35.13-.93.13-1.41,0-3.19-.1-6.38.01-9.57.12-3.26.46-6.51.68-9.77.06-.95.03-1.9.02-2.85,0-.32-.17-.7-.04-.94,1.4-2.72.5-5.57.51-8.36,0-1.02,0-2.03,0-3.22,1.38-.14,2.62-.04,3.68-.43,1.08-.4,1.95-1.33,2.96-1.94.45-.28,1.01-.42,1.55-.53,1.68-.33,3.02-1.6,3.19-3.28.25-2.52.4-5.05.58-7.49,1.03-.62,2.04-1.23,3.04-1.84,1.07-.65,3.08-.6,4.04.16.23.19.49.48.53.75.19,1.44.28,2.9.48,4.34.22,1.63.53,3.25.79,4.85,3.93.62,7.33-1.4,11.01-1.52.27-.67.46-1.19.7-1.69.76-1.62,1.38-1.89,3.13-1.67,1.23.16,2.5.08,3.74.21,2.28.25,3.04,1.03,3.46,3.61,1.39.15,2.84.31,4.28.48,1.79.21,3.42,1.82,3.78,3.58.49,2.34.75,4.62.22,7.04-.38,1.71.05,3.58-.02,5.38-.1,2.5.29,4.93.61,7.39.07.51-.05,1.17-.34,1.58-.83,1.16-.73,2.42-.6,3.68.36,3.51.46,6.98-.2,10.51-.34,1.81.11,3.77.16,5.66.02.78.08,1.61-.16,2.33-.93,2.82,0,5.23,1.94,7.08,2.12,2.02,4.53,3.71,6.27,6.13.35.49.97.88,1.55,1.08,1.47.5,1.98,1.69,2.55,2.96.4.9,1.13,1.66,1.84,2.67-.23,1.78-.53,3.89-.75,6.01-.16,1.5-.25,3.01-.3,4.52-.03,1.09.05,2.18.08,3.27,0,.08.08.16.06.23-.37,2.36-.46,4.81-1.2,7.05-.64,1.95-.98,3.91-1.31,5.9-.1.63-.08,1.3-.31,1.87-1.36,3.4-1.13,7.03-1.66,10.55-.27,1.8-.83,3.55-1.16,5.34-.38,2.08-1.12,4.09-.51,6.31.3,1.09.15,2.37-.03,3.53-.23,1.46-.86,2.87-1.02,4.34-.1.85.38,1.77.57,2.53,1.31.26,2.38.57,3.47.65.76.06,1.55-.14,2.31-.32,1.27-.31,2.52-.7,4.32-1.21,1.22-2.1,1.71-4.59.25-7.51-1.25-2.49-1.03-5.25-.11-7.9.21-.6.59-1.17.64-1.77.34-4.26.64-8.52.89-12.79.19-3.15.11-6.34.48-9.47.33-2.81,1.95-4.87,4.62-6.11,2.32-1.08,5.03-1.67,6.22-4.37.34-.78.97-1.62.88-2.36-.25-2.23.96-3.82,2.14-5.35.54-.7.77-1.26.81-2.1.03-.75.33-1.5.57-2.23.43-1.31.89-2.62,1.37-3.91.62-1.69,1.28-3.36,1.92-5.04.17-.44.39-.88.45-1.34.36-2.91-.12-3.73-2.87-5.08-.4-.2-.77-.45-1.63-.95,1.68-.79,2.98-1.4,4.44-2.09-.12-1.49.69-3,.26-4.73-.37-1.48.41-2.16,2.6-2.77,1.4,1.09.8,2.77,1.16,4.17.34,1.31.89,2.56,1.4,3.99.85.12,1.83.26,2.74.39.38,1.62-.57,1.81-1.57,2-1.06.2-2.43.13-3.06.77-.55.55-.25,1.94-.32,2.96-.06.88-.13,1.75-.17,2.63-.06,1.26.37,2.33,1.2,3.28.46.53,1.01,1.11,1.16,1.75.63,2.66,1.98,4.9,3.49,7.15,1.13,1.68,1.62,3.78,2.36,5.71.54,1.41,1.12,2.82,1.51,4.27.23.83.83,1.95-.52,2.46-1.16.43-2.19-.39-2.51-1.81-.23-1-.57-1.98-.85-2.97-1-3.66-2.96-6.85-4.83-10.11-.58-1.01-.84-2.21-1.28-3.31-.27-.68-.6-1.34-1.03-2.3-1.32,3.54-2.29,6.69-3.66,9.66-1.18,2.56-1.52,5.37-2.66,7.88-.73,1.63-2.04,3.01-3.2,4.42-.29.35-1.05.56-1.53.47-2.08-.39-3.35,1.15-4.86,2.01-.73.41-1.1,1.21-1.14,2.36-.09,2.5-.81,4.98-1.1,7.49-.17,1.5-.3,3.1.05,4.53.5,2.1.13,4.12-.26,6.08-.4,1.99-.39,4.11-1.07,5.96-.96,2.6-.43,4.9.28,7.33,1.16,3.94.88,7.76-1.09,11.39-1.08-.08-2.06-.2-3.04-.19-.42,0-.9.22-1.25.47-2.24,1.62-4.21,1.6-6.52-.21-1.81,1.35-3.55.28-4.91-.74-.7-.53-.74-2.17-.76-3.32-.02-1.09.26-2.23.59-3.28.73-2.33.54-4.69.47-7.07-.04-1.25.23-2.52.44-3.77.44-2.66.96-5.3,1.41-7.96.52-3.05.93-6.12,1.53-9.16.67-3.43,1.6-6.81,2.22-10.25.32-1.77.18-3.62.31-5.43.26-3.73.46-7.47.92-11.18.13-1.06.11-1.9-.51-2.66-1.09-1.33-2.21-2.66-3.45-3.85-.55-.53-1.42-.74-2.39-1.21-.41-1.88-2.29-2.91-3.76-4.31-.67-.63-1.22-1.4-1.8-2.12-.45-.55-.83-1.16-1.31-1.68-1.13-1.23-1.68-2.44-1.36-4.29.62-3.53.73-7.14,1.23-10.69.53-3.72.25-7.41-.02-11.11-.04-.55-.12-1.22.14-1.65,1.07-1.75.54-3.57.34-5.35-.28-2.47-.25-4.89.07-7.38.32-2.42.32-4.95.04-7.38-.26-2.26-1.19-2.7-3.29-2.35-3.43.58-4.08.16-5.07-3.27-.06-.21-.19-.41-.28-.62h-4.13c-.13.16-.31.32-.4.52-1.19,2.72-1.8,3.07-4.77,2.92-.68-.03-1.37.14-2.06.23-2.35.32-4.69.79-7.05.95-2.42.16-3.96-1.84-4.06-4.6-.06-1.7-.43-3.4-.66-5.16-1.26.01-2.09.12-2.07,1.51.03,1.73-.06,3.47-.05,5.2.01,1.82-1.02,4.51-3.86,4.98-.69.11-1.37.37-2.02.65-1.74.74-3.46,1.52-5.34,2.35.01-.02-.13.11-.13.25-.21,4.51-.34,9.03-.64,13.54-.16,2.35-.62,4.68-.96,7.02-.07.46-.28.93-.25,1.38.18,2.99-.51,6.01.31,8.99.16.58,0,1.27-.11,1.89-.55,2.89-1.31,5.76-1.65,8.68-.24,2.09.11,4.24.15,6.36.01,1.01-.09,2.02-.17,3.03-.14,1.72-.38,3.44-.43,5.16-.06,2.06-.06,4.1.46,6.15.23.93-.03,2.01-.17,3-.43,3.14-.99,6.26-1.3,9.41-.11,1.14.4,2.34.51,3.52.15,1.5.18,3,.28,4.5.18,2.53.6,5.06.49,7.58-.08,1.86-.81,3.7-1.32,5.53-.4,1.43-1.51,1.96-2.91,1.94-.8-.01-1.6-.13-2.39-.09-.7.04-1.41.15-2.07.36-1.27.4-2.51.89-4,1.43,0-.02-.04.29-.14.58-.43,1.28-.89,1.56-2.06,1.19-2.11-.67-4.21-1.36-6.48-1.01-.31.05-.69.06-.94-.08-1.86-1.08-3.82-.62-5.78-.55-.71.02-1.51-.32-2.14-.71-1.74-1.09-3.26-2.62-5.69-2.17.17-1.01.3-1.83.5-3.05-.64.43-.97.64-1.41.94-1.52-3.23-3.6-6.31-4.02-9.99-.3-2.6-.29-5.24-.21-7.86.05-1.72.49-3.43.74-5.14.16-1.12-.96-2-.55-3.24.2-.6-.37-1.51-.11-2.03,1.14-2.29.41-4.63.45-6.96.03-1.66.43-3.3.56-4.96.12-1.66.24-3.33.11-4.98-.23-3.02-.64-6.01.46-8.98.24-.66-.13-1.54-.21-2.32-.12-1.22-.49-2.48-.27-3.64.38-2.1,0-4.21.33-6.29.29-1.86.26-3.66-.18-5.55-.32-1.39.23-2.95.23-4.44.01-2.28-.1-4.56-.16-6.85-.02-.63-.05-1.27-.04-1.9.02-1.23-.13-2.23-1.29-3.11-.78-.6-1.04-1.89-1.54-2.86-.21-.42-.44-.82-.75-1.39-1.54.67-3.24.48-4.65.9-1.76.53-3.22-.24-4.85-.25-1.35,1.44-.38,3.53-1.64,5.05-1.05,1.26-1.57,2.96-2.33,4.47-2.36,1-4.56.79-6.84-.49-2.03-1.13-4.2-1.05-5.94.31-1.14-.38-2.13-.81-3.16-1-.45-.08-1.21.17-1.46.52-1.48,2.15-3.99,2.23-6.08,2.86-2.97.89-4.72,2.86-4.47,6.04.04.53.22,1.12.04,1.57-.45,1.08-.53,1.94-.01,3.14.4.95-.07,2.3-.25,3.46-.2,1.25-.61,2.47-.73,3.72-.06.66.2,1.4.49,2.03.7,1.55.57,1.75-1.47,1.65.64,1.1.73,2,.09,3.2-.67,1.26-.97,2.98-.77,4.4.45,3.1.27,6.16.06,9.23-.17,2.53-.57,5.04-.81,7.57-.11,1.23-.11,2.47-.09,3.71.04,2.63-.6,3.11-3.13,2.21-.71.51-.58,1.61-1.9,2-1.62.48-3.02,1.92-4.3,3.18-.68.67-1.31.68-2.1.79-2.47.34-4.81,1.01-6.69,2.8-.39.37-.9.77-1.39.85-3.3.48-3.7,3.48-4.96,5.69-.23.4.14,1.23.37,1.81.75,1.91.44,3.55-1.05,4.98-.16.15-.22.42-.4.8.94,1.4.85,2.8-.27,4.27-.45.59-.26,1.64-.58,2.38-.3.67-.12.75.45.9.16.04.25.57.26.88,0,.21-.29.58-.24.62,1.67,1.36.04,3.21.68,4.77.18.43-.43,1.31-.87,1.82-.35.41-.98.57-1.55.88.39.23.83.5,1.37.83-.32,1.26-.42,2.67-1.03,3.8-.7,1.29-.39,2.45.2,3.36,1,1.56.99,3.15.99,4.87,0,1.5-1.1,2.59-1.91,2.71-1.95.28-2.38,1.99-3.58,2.93-.3.24-.47.64-.76,1.06-3.39-.12-6.74-.17-9.9-1.94-1.72-.97-3.07-1.9-3.06-3.92-2.07.13-4.03.17-5.96.43-.91.12-1.73.81-2.64,1.03-2.7.65-5.43,1.19-8.15,1.77-.16.03-.35.16-.46.11-.44-.23-.86-.51-1.28-.77.29-.33.52-.86.88-.97,1.63-.5,3.3-.91,4.96-1.3,3-.71,6.07-1.18,8.98-2.16,1.73-.58,3.29-.07,4.91-.05.47,0,1.03.87,1.34,1.46.24.45.14,1.07.18,1.5,1.2.71,2.28,1.34,3.35,2,1.17.73,2.5.76,3.79.91.37.04.84-.08,1.13-.3.96-.72,1.86-1.53,2.88-2.38-1.89-2.46-1.25-5.08-.38-7.74.31-.94.44-1.97.46-2.97.05-2.18.39-4.27-.52-6.53-.72-1.8-.28-4.09-.3-6.16,0-.34.33-.68.48-1.03.18-.41.52-.88.45-1.25-.57-3.1.17-5.96,1.49-8.73.13-.28.14-.62.22-.97.48-.07.94-.15,1.6-.25-1.29-3.38,1.17-6.02,1.85-9.31,3.14-1.06,5.47-3.67,8.27-5.64,1.61,1.31,3.41.51,4.69-.14,2.48-1.27,4.64-3.14,6.94-4.76.77-.54,1.54-1.07,2.52-1.75.08-1.35.09-2.92.3-4.47.18-1.3.37-2.68.94-3.82,1-2,.48-4.01.45-6.01-.03-1.99-1.34-3.93-.2-5.97-.58-2.74.33-5.29.95-7.89.48-1.99,1.24-4.12.95-6.05-.42-2.81.46-5.45.3-8.2-.11-1.78.3-3.58.36-5.38.05-1.61,1.53-1.95,2.41-2.61,1.21-.91,2.88-1.2,4.33-1.82,1.35-.58,2.83-1.05,3.97-1.93,1.81-1.4,3.5-.85,5.3-.25.22.07.44.16.77.29,1.29-1.41,3.06-1.54,4.8-1.36,1.14.12,2.43.47,3.28,1.17,1.1.9,2.1.98,3.26.64,1.77-2.63,2.59-5.51,2.89-8.59.05-.52.44-1,.72-1.61.58.07,1.11.15,1.65.2,1.79.15,3.55.3,5.33-.4.8-.32,1.83-.02,2.76-.06,1.04-.04,2.08-.14,3.42-.24.98.87,2.24,2,3.51,3.13.24.21.71.4.71.59-.03,2.75,2.74,3.92,3.46,6.23.11.36.31.95.15,1.11-1.11,1.13-.39,2.22-.06,3.33.55,1.85,1.01,3.66,0,5.57-.38.73-.57,1.77-.37,2.55.38,1.43-.27,2.78.1,4.28.4,1.64-.34,3.55-.6,5.45h-1.29c-.09.1-.19.18-.18.22.7,1.86-1.07,4,1.02,5.87,1.13,1.01,1.88,2.94,1.05,4.8-.13.29-.29.57-.48.82-.78.99.74,2.09-.32,3.24-.69.75-.75,2.09-1.15,3.38Z" />
    <path d="m447.07,143.49c-2.35,0-4.25,1.11-6.29.25-2.94,1.1-5.84-.71-8.75-.16-3.67.7-7.22.32-10.82-.54-1.56-.37-3.28-.05-4.91-.21-1.61-.15-3.2-.52-4.8-.75-.68-.1-1.38-.06-2.07-.09-2.06-.09-4.12-.17-6.18-.27-.56-.03-1.11-.08-1.67-.11-2.33-.11-3.31-.95-3.66-3.28-.28-1.88-.51-3.77-.66-5.66-.11-1.29-.36-2.29-1.84-2.68-1.06-.28-2.03-.86-3.05-1.3-1.24-.54-2.07-1.26-2.12-2.84-.08-2.38-.38-4.76-.7-7.12-.28-2.04-.99-2.07-2.61-1.89-5.18.57-10.14-.13-14.79-2.56-1.31-.68-2.02-1.72-1.89-3.3.1-1.34.02-2.69.02-4.47-1.49.54-2.64.96-3.79,1.38-.52.19-1.04.41-1.58.52-3.47.74-6.94,1.48-10.43,2.17-1.41.28-1.8.73-2.15,2.14-.68,2.72-1,5.52-2.32,8.09-.74,1.45-1.02,3.17-1.35,4.8-.47,2.36-.58,2.48-2.94,3.09-3.32.87-6.66.51-9.98.22-2.28-.2-4.45-1.11-6.67-1.62-2.35-.55-4.85-1.36-7.39-.27-1.44.61-2.88-.62-3.11-2.19-.15-1-.57-1.95-.84-2.94-.33-1.22-.62-2.45-.93-3.69-1.49-.84-3.01-1.03-4.75-.9-1.42.11-2.99-.37-4.32-.97-1.56-.7-2.06-2.49-1.46-4.34.33-1.02.68-1.94-.09-2.93-.21-.28-.24-.76-.22-1.14.24-4.1.48-8.2.76-12.3.11-1.59-.54-2.43-2.16-2.5-.71-.03-1.42.12-2.31.2-.07-.41-.33-1.12-.2-1.21,1.07-.66,2.17-1.31,3.34-1.74.52-.19,1.25.07,1.85.24,1.23.35,2.13,1.02,2.16,2.47.04,1.58.17,3.16.2,4.74.03,2.04.02,4.09-.05,6.14-.02.68-.27,1.35-.42,2.03-.41,1.86.06,3.78-.62,5.69-.55,1.54,1.5,3.47,3.24,3.57,1.83.1,3.66.22,5.47.51,2.3.37,3.51,1.67,3.94,3.82.31,1.54.67,3.07,1.02,4.66,1.91.11,3.53.83,5.34.3.74-.22,1.84.07,2.53.51,2.68,1.74,5.7,1.5,8.65,1.83,1.94.22,3.77.25,5.4-.44.61-1.88.87-3.78,1.82-5.24.83-1.27,1.71-2.43,1.97-3.94.11-.63.23-1.26.25-1.9.06-1.95.62-3.7,1.59-5.4.36-.64.7-.97,1.37-1.1.85-.17,1.69-.51,2.55-.57,5.29-.39,10.21-2.04,14.99-4.23.71-.32,1.48-.55,2.24-.68.43-.07.97.06,1.36.27,1.12.62,2.44,4.06,2.17,5.35-.22,1.04-.39,2.09-.58,3.07.69.31,1.17.43,1.53.7,2.31,1.71,5.04,1.8,7.72,1.89,2.7.09,5.41-.04,8.11-.05.31,0,.61.11.9.16.53,1.86,1.23,3.63,1.48,5.45.25,1.88.06,3.82.06,5.62,1.87.98,3.47,1.85,5.1,2.67,1.8.91,2.27,1.83,2.1,3.79-.16,1.85-.31,3.72-.18,5.56.04.51,1.01,1.19,1.67,1.36,1.53.41,3.12.64,4.71.8,3.86.4,7.73.67,11.58,1.1,2.36.26,4.69.86,7.06,1.02,2.67.17,5.36-.02,8.04.02,1.82.03,3.64.25,5.47.29,1.49.03,3,0,4.47-.19,1.18-.16,2.16-.02,3.41,1.22Z" />
    <path d="m224.58,26.59c2.35,0,4.56-.02,6.76,0,1.26.01,2.52.09,3.78.16,1.64.08,2.35.71,2.35,2.35.01,1.9-.14,3.81-.21,5.72-.04,1.03-.14,2.08-.04,3.1.18,1.74.13,3.34-.44,5.1-.47,1.46-.77,3.29.03,5,.38.8.35,1.89.24,2.81-.19,1.57-.6,3.11-.89,4.67-.21,1.11-.85,1.77-1.97,1.65-3.31-.34-6.61-.75-9.91-1.16-.21-.03-.41-.22-.92-.52.46-1.4,1.09-2.82,1.35-4.31.21-1.21,1.28-2.58-.2-3.78-.16-.13.03-.69.04-1.05.1-3.06.29-6.12.26-9.18-.03-3.23-.28-6.46-.42-9.7,0-.23.09-.46.17-.87Zm4.13,1.96c0,3.17.06,6-.02,8.84-.08,3.03-.26,6.05-.48,9.07-.05.65-.82,1.45-.62,1.87.88,1.82.06,3.52-.2,5.29,1.55,1,3.14.52,4.79.56.09-.54.21-1,.24-1.46.16-2.77.26-5.54.45-8.31.07-1.03.5-2.05.46-3.06-.14-3.25-.28-6.48-.01-9.73.14-1.67-.47-2.33-2.07-2.71-.68-.16-1.39-.2-2.54-.35Z" />
    <path d="m475.64,165.1c3.76-1.36,5.49-4.13,4.41-6.97-.53.47-.99,1.25-1.59,1.37-2.99.6-3.61,2.97-4.3,5.35-.13.44-.17,1.04-.47,1.25-.4.29-1.11.49-1.51.32-.35-.15-.68-.88-.64-1.33.15-1.74.45-3.47.68-5.2.05-.38.05-.78.09-1.4-.62.05-1.13.09-1.56.12-.15.22-.29.34-.3.47-.21,2.12-.26,2.29-2.16,2.3-2.54.02-5.09-.18-7.64-.26-1.01-.03-2.03,0-3.16,0v2.02c-.33.04-.62.17-.75.08-.56-.4-1.41-.79-1.53-1.32-.36-1.6-1.43-1.84-2.78-2.07-1.17-.21-2.55-.3-3.33-1.96,1.2-.4,2.3-.75,3.39-1.14.92-.32,1.51-.83,1.19-1.97-.96-3.41-.98-6.93-1.08-10.43-.03-.98,0-1.94-1.4-2.06.38-1.27.7-2.32,1.01-3.35,2.37.12,3.37,1.34,3.19,3.4-.26,2.98-.47,5.98-.45,8.97,0,1.02.74,2.04,1.14,3.04,1.46-.4,2.81-.85,4.2-1.09.51-.09,1.37.18,1.6.57.23.38-.01,1.19-.27,1.69-.58,1.1-1.3,2.12-2.09,3.39,2.82.88,5.3.66,7.89.42,0-2.82,0-5.43,0-8.04,0-.31-.13-.62-.18-.94-.13-.82-.14-1.69.8-1.99,1.04-.33,1.61.29,1.9,1.28.56,1.88,1.17,3.75,1.81,5.79.35-.24.79-.49,1.18-.8.68-.55,1.54-.89,2.15-.26.37.38.28,1.29.24,1.95-.05.71-.28,1.4-.01,2.25.79-1.22,1.59-2.44,2.48-3.83-.2-.49-.45-1.12-.71-1.76,2.24-.51,2.68-.41,3.51,1.07.81,1.45,1.76,2.89,2.19,4.46.47,1.75.46,3.57-1.12,5.07-1.22,1.16-2.27,2.48-4.03,2.81-1.04.19-1.9.07-1.97-1.27Z" />
    <path d="m133.84,126.58c-.16-3.55-.27-6.7.48-9.82.18-.76.08-1.38-.13-2.18-.35-1.36.01-2.91.09-4.38.03-.61.35-1.36.1-1.81-1.38-2.48-.35-4.4,1.26-6.22.21-.24.46-.43.79-.74,1.22.59,2.4.55,3.78.09,1.23-.42,2.71-.25,4.05-.09,1.18.14,1.34,1.19,1.34,2.21,0,1.64-.07,3.29.04,4.93.17,2.54.23,5.12.78,7.58.57,2.57-.18,4.85-.78,7.2-.12.47-.83.97-1.37,1.12-1.37.38-2.8.55-4.19.85-1.07.23-2.12.57-3.19.79-.92.19-1.86.29-3.07.46Zm7.07-4.1c.36-1.74,1.02-3.45,1-5.15-.04-3.41-.45-6.81-.72-10.22-.07-.89-.16-1.78-.25-2.84-.83.99-2.35-.81-3.08.54.17,1.17.47,2.09.4,2.98-.14,1.65-.43,3.26.91,4.45-1.85,3.61-2.64,7.17-1.72,11.14,1.24-.33,2.15-.57,3.46-.91Z" />
    <path d="m127.04,68.93c-2.62-.17-3.29-1.02-2.77-3.52.16-.76.25-1.56.23-2.33-.1-3.97-.34-7.95-.3-11.92.01-1.26.73-2.52,1.22-3.74.12-.31.58-.63.91-.67,1.89-.22,3.8-.47,5.7-.48,1,0,1.76.66,1.83,1.82.16,2.66.19,5.34.54,7.98.24,1.83.25,3.57-.13,5.38-.14.67.31,1.49.58,2.21.69,1.81.43,2.38-1.37,3.02-1.2.42-2.35.98-3.54,1.41-.95.34-1.94.57-2.91.85Zm2.48-16.43c-1.69,2.69-2.18,10.6-.82,13.29.74-.36,1.48-.73,1.96-.96,0-3.12.09-5.9-.04-8.67-.06-1.19.28-2.6-1.1-3.66Zm.18-1.22c.16-.2.33-.35.4-.53.03-.08-.14-.24-.22-.36-.14.15-.31.28-.4.46-.04.07.11.24.22.43Z" />
    <path d="m288.93,100.86c2.86.32,5.22.56,7.58.87,1.55.2,2.53,1.35,2.5,2.84-.04,1.49-.16,2.98-.12,4.47.01.48.37.98.65,1.42.79,1.26.77,1.68-.42,2.58-.88.66-1.82,1.24-2.74,1.84-.4.26-.96.38-1.21.74-1.64,2.34-4.22,1.87-6.48,2.12-2.43.27-4.76-.45-6.84-1.67-.75-.44-1.26-1.37-1.72-2.17-.38-.66-.59-1.45-.73-2.21-.15-.84-.36-1.79-.13-2.56.63-2.12,1.42-4.2,2.29-6.24.24-.57.92-1.24,1.49-1.34,2.1-.36,4.24-.5,5.89-.68Zm6.2,3c-2.18-.73-4.52-1.09-6.91-.93-2.23.15-3.25,1.51-2.97,3.72.37,2.98,3.5,6.23,6.42,6.66,1.36.2,2.98-.75,3.34-2.09.65-2.39,1.21-4.8.12-7.37Zm-12.85,3.56c-1.4,1.88-1.46,4.71-.21,6.43.27.37.59.77.98.99,1.87,1.1,4.84,1.29,7.09.51-.46-.23-.87-.46-1.31-.65-2.24-.97-4.22-2.13-4.94-4.75-.25-.91-1.04-1.67-1.62-2.53Z" />
    <path d="m222.48,80.32c-.07,1.08-.02,1.89-.19,2.65-.47,2.13-.29,4.21.18,6.3.17.75.12,1.55.17,2.33.09,1.66.15,3.32.25,4.98.1,1.66-.21,2.13-1.95,2.28-2.51.22-5.04.3-7.82.45,0-1.98-.37-3.87.09-5.52.64-2.28.33-4.47-.03-6.61-.46-2.72,1.43-4.42,2.26-6.58.08-.21.59-.44.81-.37,1.56.5,2.99-.16,4.48-.35.5-.07,1.04.25,1.77.44Zm-3.85,16.49v-14.83c-1.06.65-1.69,1.04-2.34,1.44.23,4.5.46,8.9.69,13.39h1.65Z" />
    <path d="m356.81,125.59c.3-2.23.71-4.21.78-6.21.03-.94-.61-1.89-.96-2.9,1.75-3.13,2.02-3.22,3.78-1.56,1.69,0,3.11-.05,4.52.02.94.05,1.68.5,1.87,1.53.14.77.37,1.55.35,2.32-.04,2.22-.16,4.43-.3,6.64-.1,1.59-.52,2-2.09,1.84-2.2-.23-4.4-.58-6.59-.94-.43-.07-.82-.43-1.36-.73Zm2.89-1.81c1.05.05,1.93.24,2.75.08.52-.1,1.39-.8,1.34-1.09-.29-1.63.35-3.53-1.14-4.83-2.21.39-2.21.39-2.45,2.38-.13,1.02-.28,2.03-.49,3.46Z" />
    <path d="m27.82,140.1c.86-.65,1.69-.25,2.48.12,3.21,1.51,6.44,1.88,9.84.56,1.68-.65,3.61-.49,5.21-1.55.33-.22,1.01.08,1.54.14-.05,1.17-.47,1.77-1.53,1.93-3.3.5-6.44,1.84-9.85,1.82-1.4,0-2.74.29-4.05-.71-.68-.52-1.81-.44-2.74-.64-1.01-.22-1.31-.8-.85-1.74l-.05.07Z" />
    <path d="m27.87,140.03c-1.04,1.36-2.53.87-3.86.84-.33,0-.64-.67-1.18-1.28,1.74-.19,3.06-.33,4.55-.49.07.17.26.59.45,1.01,0,0,.05-.07.05-.07Z" />
  </g>
</svg>
