<?xml version="1.0" encoding="UTF-8"?>
<svg id="runes-kerryCook-original" data-name="Runes - Kerry Cook original" xmlns="http://www.w3.org/2000/svg" viewBox="0 0 505.54 554.66" style="width:100%;height:auto;">
  <title id="runes-kerryCook-original">Runes - Kerry Cook original</title>
  <g>
    <path d="m.14,323.8c2.25-.47,4.46-1.11,6.72-1.37,4.98-.56,9.92-1.3,14.77-2.61,2.14-.58,4.48-.51,6.54-1.25,2.62-.94,4.7-.27,6.88,1.08,1.16.72,2.51,1.12,3.96,1.74,2.26-2.07,4.06-4.66,5.2-7.88.91-2.57,2.49-4.9,3.77-7.33.15-.28.38-.53.44-.83.9-4.4,1.46-4.94,5.47-5.75,5.03-1.02,9.98-2.33,14.89-3.88,2.72-.85,5.59-1.59,8.58-1.01.6.12,1.33-.45,2.4-.85-.19-.12.04.14.29.17,2.17.23,4.35.47,6.53.61,1.01.06,2.04-.14,3.06-.12,1.81.03,2.14.43,2.3,2.28.42,4.88.87,9.76,1.3,14.64.02.23-.05.52.06.69,1.58,2.54,1.27,5.52,1.98,8.25.27,1.06.74,2.06,1.03,3.12.89,3.21,1.73,6.43,2.68,9.97,15.36-1.22,30.72-3.68,46.1-7.36,0-.24.09-.87-.02-1.46-.41-2.3-.23-4.58.08-6.88.16-1.17-.06-2.38-.09-3.58-.03-1.34,0-2.67-.06-4.01-.06-1.48-.27-2.96-.28-4.44,0-1.33.19-2.66.29-3.99.07-1.02.11-2.04.17-3.06.07-1.21-.15-2.52.27-3.59.62-1.58-.3-3.1.19-4.62.14-.43.15-1-.02-1.41-.51-1.18-.47-2.28-.04-3.47.3-.83.34-1.73-.66-2.3-.31-.18-.57-.58-.67-.93-.56-2.05-1.54-4.12-1.49-6.17.08-2.98-.31-5.83-.78-8.72-.12-.77.36-1.16,1.13-1.55,3.25-1.65,6.55-1.12,9.76-.23,1.67.46,3.29.65,4.93.53,3.86-.29,7.72-.67,11.58-1.1,3.77-.42,7.52-1.09,11.3-1.38,4.54-.36,9.12-.3,13.66-.69,3.61-.31,7.19-1.03,10.78-1.56.52-.08,1.07-.17,1.59-.1,1,.13,1.95.62,2.97-.1.29-.21.91.07,1.39.08.52.01,1.11.12,1.55-.08,1.01-.47,1.94-.6,2.95-.02.28.16.73.12,1.08.06,4.29-.7,8.57-1.44,12.86-2.1.85-.13,1.77-.08,2.62.09,2.07.42,4.09.41,6.13-.19,1.6-.47,3.24-.55,4.93-.53,1.56.02,3.12-.48,4.68-.74,1.07-.18,2.15-.32,3.22-.53.99-.19,1.96-.44,2.94-.68.38-.1.76-.4,1.12-.36,2.51.26,4.73-.74,7.07-1.37,2.2-.59,4.52-.71,6.79-1.04,1.01-.15,2.02-.44,3.03-.47,2.23-.06,4.47.05,6.7,0,3.01-.08,6.02-.17,9.01-.47.94-.09,1.62-.06,2.44.42.87.5,1.93.65,2.88,1.02,1.91.74,3.87,1.1,5.91,1.28,1.43.13,2.11,1.54,2.44,2.64.94,3.09,1.94,6.23,2.22,9.42.36,4.07.73,8.23-.65,12.28-.59,1.72-.63,3.49-.3,5.36.33,1.84-.06,3.8-.03,5.71.06,4.04-.2,8.14.42,12.1.47,3.02.76,6.05,1.14,9.08.61,4.85,1.18,9.71,1.67,14.57.12,1.24-.05,2.53-.23,3.78-.32,2.25.52,3.27,2.76,3.51,1.26.13,2.54.41,3.71.89,2.27.93,4.46.67,6.72.06,2.67-.72,5.35-1.52,8.07-1.93,3.88-.58,7.74-.21,11.52,1,2.41.77,4.86,1.26,7.44.47,2.02-.62,4.13-1.12,6.25-.24.11.04.3-.07.43-.14,1.26-.68,2.4-.26,3.61.26,2.6,1.12,5.29.56,7.94.22,3.14-.41,6.2-1.27,9.42-1.16,1.59.06,3.21-.35,4.81-.57.31-.04.62-.29.91-.26,3.68.32,5.19-2.51,6.94-4.88,1.04-1.4,1.7-3.08,2.7-4.52,1.8-2.59,2.47-5.31,1.98-8.49-.3-1.99-.15-4.15.3-6.12.23-1.01,1.58-1.76,2.43-2.62.18.09.36.18.53.28-.24,2.14-.54,4.27-.7,6.41-.06.83.08,1.72.31,2.53.75,2.56.25,4.73-.87,7.21-1.35,2.97-3.57,5.27-5.07,8.08-.75,1.42-1.95,2.76-3.26,3.68-.92.64-2.37.56-3.59.72-3.86.51-7.82.61-11.56,1.59-4.09,1.07-8.21.85-12.3,1.29-.91.1-1.97-.1-2.78-.52-1.86-.94-3.78-.61-5.62-.33-3.31.49-6.58.47-9.88.11-.47-.05-.99-.07-1.39-.28-2.88-1.51-5.9-1.35-9.04-1.15-2.96.19-5.75.93-8.42,1.96-2.73,1.05-5.35.48-8,.22-2.28-.22-4.52-.83-6.77-1.28-2.67-.53-3.08-.97-2.52-3.51.59-2.7-.14-5.35-.04-8.03.11-2.82-.35-5.59-.95-8.37-.29-1.35.12-2.83,0-4.24-.1-1.25-.5-2.47-.77-3.7-.07-.31-.27-.61-.25-.91.31-4.51-1.43-8.89-.77-13.42.31-2.12.22-4.22-.26-6.35-.29-1.28-.07-2.7.04-4.05.3-3.69.75-7.37.96-11.06.1-1.77.01-3.61-.34-5.35-.5-2.39-1.32-4.72-2.02-7.07-.2-.68-.46-1.35-.77-2.28-2.24-.59-4.67-1.07-6.99-1.87-4.3-1.49-8.63-.61-12.96-.51-2.92.07-5.85,0-8.76.22-1.88.15-3.74.7-5.6,1.12-1.46.32-2.89.75-4.36,1.05-3.56.74-7.13,1.44-10.7,2.12-.77.15-1.56.22-2.35.24-2.54.09-5.08.04-7.51,1.05-1.73.72-3.5.72-5.38.24-1.26-.32-2.69-.11-4.02.01-5.43.49-10.85,1.1-16.28,1.55-3.16.26-6.41-.05-9.5.53-6.82,1.27-13.67,1.48-20.56,1.59-3,.05-6,.7-9,1.03-2.37.26-4.75.44-7.12.68-1.98.2-3.97.41-5.94.69-3.13.45-6.17.14-9.22-.66-1.92-.51-3.9-.81-5.91.1,0,1.43.22,2.87-.04,4.21-.63,3.29.91,6.2,1.69,9.14.66,2.49,1.27,4.76.67,7.28-.07.3-.1.66-.02.95.9,3.24.46,6.44-.2,9.66-.2.98-.08,2.04-.09,3.06,0,2.18-.04,4.36,0,6.54.07,2.93.2,5.87.32,8.8.07,1.91.07,3.83.27,5.73.11,1.09.55,2.14.83,3.21.44,1.64-.44,2.82-2.13,2.86-1.04.02-2.08.1-3.11,0-2.53-.24-4.84.49-7.23,1.21-3.09.93-6.32,1.42-9.5,2.07-1.7.35-3.4.69-5.12.96-1.63.26-3.28.45-4.93.61-3.63.35-7.26.6-10.88,1-1.88.21-3.74.68-5.62.96-3.02.45-3.17.22-4.27-2.59-.59-1.52-.77-3.03-.98-4.59-.38-2.77-1.21-5.43-2.65-7.86-.23-.39-.34-.85-.49-1.28-1.3-3.69-1.69-7.55-2.16-11.39-.26-2.1-.27-4.23-.44-6.34-.13-1.63-.34-3.25-.53-5.11-3.82.17-7.38.33-10.94.49-.32.01-.66.1-.95.02-3.39-.89-6.39.56-9.52,1.44-3.82,1.08-7.69,1.97-11.55,2.94-.15.04-.32,0-.48.04-2.36.52-4.14,1.51-4.99,4.1-.88,2.69-1.83,5.42-3.67,7.71-.52.65-.61,1.63-.94,2.44-.26.66-.41,1.48-.89,1.92-1.82,1.65-2.06,4.07-3.15,6.07-.29.53-.28,1.23-.37,1.85-.11.8-.17,1.68-1.17,1.86-1.22.21-1.43-.86-1.69-1.64-.34-1.05-.4-2.25-1.49-2.85-1.39-.76-2.83-1.43-4.28-2.06-.77-.34-1.51-.52-2.46-.48-5.38.21-10.44,1.98-15.68,2.88-1.96.34-3.94,1.2-5.84,1.02-2.31-.21-4.27.6-6.36,1.07-.43.1-.82.37-1.29.59.77,3.07,3.87,1.84,5.42,3.24.05,2.6-.07,2.92-1.4,3.39v-2.21c-.89-.32-1.76-.68-2.67-.93-1.59-.43-2.12-.95-2.34-2.53-.04-.31-.03-.64-.01-.96.03-.63.07-1.25.12-2.17Z" />
    <path d="m247.19,289.21c1.08.29,1.63.45,2.27.62.09-.16.27-.35.27-.53-.02-1.34.55-2.05,1.94-2.21,3.38-.39,6.75-.83,10.11-1.32,2.27-.33,4.52-.78,6.78-1.16,1.49-.26,3-.44,4.48-.76,1.75-.38,3.34-.36,4.65,1.51.25,2.84.51,5.98.82,9.13.04.45.39.88.44,1.33.13,1.14.44,2.23.09,3.44-.25.85.09,1.85.05,2.78-.16,3.88.49,7.71.76,11.56.1,1.42.25,2.86.11,4.26-.49,5.06,1.33,9.85,1.55,14.82.04.91.3,1.82.48,2.85-1.71.11-3.18.32-4.65.28-2.93-.07-5.76.53-8.6,1.09-.7.14-1.46.31-2.13.19-2.61-.48-5.2,0-7.8-.01-.74,0-1.48.45-2.21.71-1.94.69-3.04-.1-3.14-2.15-.09-1.98-.03-4.03-.53-5.93-.54-2.06-.59-4.05-.41-6.11.05-.54,0-1.17-.24-1.62-1.35-2.46-1.37-5.16-1.66-7.84-.48-4.33-.27-8.71-1.2-13.03-.67-3.09-.81-6.28-1.26-9.42-.09-.66-.49-1.28-.98-2.48Zm6.06-.48c0,2.74-.05,5.4.01,8.06.05,2.13.24,4.25.35,6.37.09,1.89.14,3.79.25,5.68.02.3.26.58.37.88.4,1.1,1.03,2.18,1.12,3.31.2,2.51.08,5.03.18,7.55.05,1.26.17,2.55.49,3.77.9,3.38,1.29,6.8,1.21,10.27,3.43,1.16,6.86-1.19,10.23.15,3.41-.64,6.82-1.29,10.43-1.97,0-.92.07-2.1-.01-3.27-.34-4.6-.71-9.19-1.12-13.78-.26-3.01-.64-6.01-.9-9.02-.13-1.57-.13-3.16-.17-4.74-.06-2.37-.03-4.74-.17-7.1-.12-1.87-.66-3.74-.6-5.6.04-1.18-.06-2.13-.87-3.3-6.76.89-13.61,1.8-20.79,2.74Z" />
    <path d="m183.26,332.21c.59.71,1.18,1.41,1.79,2.14.79-.18,1.17-.53,1.11-1.47-.12-1.84.15-2.09,1.97-1.81,1.49.22,2.97.56,4.39,1.04,1.28.43,2.48.3,3.73.03,1.98-.43,3.31.71,3.24,2.76-.04,1.11-.02,2.23-.07,3.34-.13,2.77.52,5.4,1.11,8.08.49,2.22.39,4.57.52,6.86.05.78-.05,1.58.01,2.36.16,2.09.4,4.17.54,6.25.09,1.4-1.06,2.68-2.3,2.42-3.61-.73-7.05.46-10.57.73-.98.08-1.97-.03-3.23-.05-.34-2.6-.73-4.93-.94-7.28-.31-3.46-.11-6.95-.78-10.4-.32-1.67-.07-3.44-.11-5.17-.06-2.43-.46-4.82-.96-7.19-.17-.8-.03-1.66-.03-2.49.19-.05.39-.09.58-.14Zm2.76,4.53c.13,2.17.23,4.06.38,5.95.04.47.1.99.34,1.37.56.92.25,1.82.17,2.77-.15,1.84-.19,3.69-.1,5.53.08,1.75.41,3.48.58,5.23.12,1.18.08,2.37.23,3.54.14,1.12.82,1.68,2,1.48,2.72-.45,5.44-.9,8.34-1.38,0-2.49.16-5.11-.04-7.71-.28-3.64-.85-7.26-1.26-10.9-.29-2.51-.52-5.02-.76-7.3-2.25-.48-4.26-.91-6.31-1.34.08,2.46-2.16,2.16-3.56,2.75Z" />
    <path d="m503.59,302.3v-1.64h1.57c.09.16.24.29.24.42.01,2.79.01,5.58.01,8.36q-1.42.08-.91-1.08c-.08-.13-.14-.3-.26-.39-1.03-.75-2.24-.57-3.39-.77-1.04-.18-1.88-1.42-2.92-1.63-2.75-.54-5.56-.45-8.24.47-3.48,1.19-5.21.52-7-2.79-.55-1.02-1.35-1.89-2.01-2.85-.67-.98-1.46-1.92-1.92-2.99-.5-1.14-1.28-1.55-2.39-1.58-1.76-.06-3.46.07-5.18.62-4.73,1.51-9.55,2.27-14.53,1.31-1.4-.27-2.86-.25-4.3-.26-8.24-.08-16.35.74-24.21,3.44-4.03,1.38-8.18,2.43-12.26,3.68-.93.29-1.69.5-2.18-.78,1.42-1.77,3.93-1.25,5.55-2.64.2.45.35.8.49,1.1,1.67-1.1,3.36-1.84,5.4-2.13,2.1-.3,4.09-1.36,6.15-2.04,1.69-.56,3.3-1.65,5.22-.9,2.06-1.09,4.47-.29,6.58-1.22.55-.24,1.23-.21,1.85-.23,2.34-.06,4.68-.15,7.02-.11,1.56.03,3.14.13,4.66.43,4.77.92,9.24-.46,13.71-1.7,2.68-.74,5.25-1.6,8.09-.6.53.19,1.35,0,2.08.29.85.33,1.42.78,1.45,1.68.05,1.48,1.07,2.39,1.9,3.38.94,1.14,2.08,2.07,2.75,3.47.38.79,1.19,1.2,2.4.97,3.81-.72,7.67-1.06,11.58-.74.91.07,1.86-.33,3.01-.56Z" />
    <path d="m68.91,352.45c-.55.32-1,.81-1.48.83-5.66.3-10.96,2.97-16.45,2.82-.63-1.47-1.2-2.63-1.63-3.85-.22-.63-.31-1.37-.24-2.03.29-2.53.79-5.05.99-7.58.24-3.13.6-6.26.34-9.43-.15-1.8.11-3.66.39-5.46.24-1.58,2.85-3.43,4.53-3.22,1.21.15,2.23.1,3.41-.41,2.25-.96,4.23.11,4.68,2.53.68,3.67,1.05,7.4,1.64,11.09.58,3.6,1.17,7.19,1.97,10.75.3,1.34,1.18,2.56,1.86,3.95Zm-15.72,1.17c3.76-.16,9.38-1.45,11.65-2.64-.23-1.07-.46-2.16-.7-3.25-.43-1.93-1.25-3.86-1.21-5.78.05-2.14-.63-4.01-1.07-5.99-.4-1.78-.91-3.61-.83-5.4.06-1.36-.13-2.47-.93-3.81-1.13,0-2.4-.03-3.66,0-1.67.05-2.7.94-2.79,2.62-.2,3.58-.43,7.16-.39,10.74.02,2.11.59,4.21.81,6.32.1.92.3,2.35-.18,2.72-1.78,1.37-.61,2.85-.69,4.46Z" />
    <path d="m471.12,305.28c.24.03.48.07.71.08,3.69.11,4.07.64,4.22,4.71.12,3.32-.11,6.66-.06,9.99.03,1.48.45,2.95.56,4.43.12,1.64-.2,2.04-1.75,2.57-2.19.75-4.44.91-6.76,1.04-2.77.16-5.34-.58-8-.85-1.46-.15-2.04-.86-1.63-2.3.59-2.07.21-3.96-.07-6.03-.44-3.26-.82-6.55-1.24-9.82-.13-1.02.19-1.9,1.29-2.29.45-.16.88-.43,1.35-.49,3.78-.45,7.57-.87,11.35-1.29,0,.08.02.16.02.24Zm1.23,19.77c0-1.85,0-3.59,0-5.33-.02-3.26-.02-6.51-.07-9.77-.02-1.53-.36-2.03-1.74-2.01-2.69.04-5.41-.19-8.04.7-2.24.76-2.7,1.82-2.22,4.1.55,2.63.78,5.33,1.09,8.01.09.79,0,1.59.01,2.39.03,1.12.6,1.76,1.72,1.93,3.08.48,6.15.6,9.24-.02Z" />
    <path d="m394.77,306.23c.62,0,1.24,0,1.85,0,1.12,0,2.09-.15,3.23-.65,1.25-.55,2.88-1.4,4.51-.71.18.08.46.05.64-.04,1.76-.9,3.72-.75,5.56-1.17,1.2-.27,1.91-.08,2.84.91-1.98.4-3.83.79-5.68,1.15-3.24.64-6.49,1.28-9.74,1.89-.78.15-1.6.3-2.36.2-.45-.06-.83-.64-1.24-.98.13-.2.25-.39.38-.59Z" />
  </g>
  <g>
    <path d="m161.98,67.82h2.41c-.28,1.39-.75,2.63-.73,3.86.06,3.14-.75,6.23-.4,9.4.11.97-.59,2.1-1.12,3.04-.97,1.71-.91,2.99.38,4.7.26.34.54.98.39,1.26-.89,1.64-.22,3.77-1.71,5.2-.2.19-.26.53-.47.96.77-.08,1.35-.15,1.92-.21.58,1.27-.33,1.64-1.06,2.13.44,4.05.67,8.14,2.71,11.85.3-.18.67-.4,1.31-.78-.13,2.06,1.61,2.75,2.46,4.07.59.91,1.77,1.08,2.84.74,1.16-.37,2.09-.3,3.03.65.44.44,1.2,1.17,2.02.34,2.1.83,4.53-.31,6.57,1.27.71.55,1.97.41,3.1.6.23-.4.45-.8.69-1.18.54-.85,1.09-1.31,2.32-1.17,1.71.2,3.49-.03,5.22-.23.53-.06,1.28-.54,1.45-1,.83-2.29,1.99-4.52,1.73-7.08-.17-1.65-.46-3.3-.5-4.96-.07-2.55.04-5.08-.74-7.58-.31-1.01-.1-2.23.06-3.32.44-3.06.99-6.1,1.47-9.16.08-.54.07-1.13-.02-1.67-.46-2.72-.82-5.45-.52-8.22.08-.78.35-1.53.44-2.31.14-1.17.47-2.4.26-3.52-.45-2.4-.47-4.73.16-7.09.16-.59.08-1.26.07-1.89-.02-1.49-.42-3.01.52-4.43.23-.35.13-.93.13-1.41,0-3.19-.1-6.38.01-9.57.12-3.26.46-6.51.68-9.77.06-.95.03-1.9.02-2.85,0-.32-.17-.7-.04-.94,1.4-2.72.5-5.57.51-8.36,0-1.02,0-2.03,0-3.22,1.38-.14,2.62-.04,3.68-.43,1.08-.4,1.95-1.33,2.96-1.94.45-.28,1.01-.42,1.55-.53,1.68-.33,3.02-1.6,3.19-3.28.25-2.52.4-5.05.58-7.49,1.03-.62,2.04-1.23,3.04-1.84,1.07-.65,3.08-.6,4.04.16.23.19.49.48.53.75.19,1.44.28,2.9.48,4.34.22,1.63.53,3.25.79,4.85,3.93.62,7.33-1.4,11.01-1.52.27-.67.46-1.19.7-1.69.76-1.62,1.38-1.89,3.13-1.67,1.23.16,2.5.08,3.74.21,2.28.25,3.04,1.03,3.46,3.61,1.39.15,2.84.31,4.28.48,1.79.21,3.42,1.82,3.78,3.58.49,2.34.75,4.62.22,7.04-.38,1.71.05,3.58-.02,5.38-.1,2.5.29,4.93.61,7.39.07.51-.05,1.17-.34,1.58-.83,1.16-.73,2.42-.6,3.68.36,3.51.46,6.98-.2,10.51-.34,1.81.11,3.77.16,5.66.02.78.08,1.61-.16,2.33-.93,2.82,0,5.23,1.94,7.08,2.12,2.02,4.53,3.71,6.27,6.13.35.49.97.88,1.55,1.08,1.47.5,1.98,1.69,2.55,2.96.4.9,1.13,1.66,1.84,2.67-.23,1.78-.53,3.89-.75,6.01-.16,1.5-.25,3.01-.3,4.52-.03,1.09.05,2.18.08,3.27,0,.08.08.16.06.23-.37,2.36-.46,4.81-1.2,7.05-.64,1.95-.98,3.91-1.31,5.9-.1.63-.08,1.3-.31,1.87-1.36,3.4-1.13,7.03-1.66,10.55-.27,1.8-.83,3.55-1.16,5.34-.38,2.08-1.12,4.09-.51,6.31.3,1.09.15,2.37-.03,3.53-.23,1.46-.86,2.87-1.02,4.34-.1.85.38,1.77.57,2.53,1.31.26,2.38.57,3.47.65.76.06,1.55-.14,2.31-.32,1.27-.31,2.52-.7,4.32-1.21,1.22-2.1,1.71-4.59.25-7.51-1.25-2.49-1.03-5.25-.11-7.9.21-.6.59-1.17.64-1.77.34-4.26.64-8.52.89-12.79.19-3.15.11-6.34.48-9.47.33-2.81,1.95-4.87,4.62-6.11,2.32-1.08,5.03-1.67,6.22-4.37.34-.78.97-1.62.88-2.36-.25-2.23.96-3.82,2.14-5.35.54-.7.77-1.26.81-2.1.03-.75.33-1.5.57-2.23.43-1.31.89-2.62,1.37-3.91.62-1.69,1.28-3.36,1.92-5.04.17-.44.39-.88.45-1.34.36-2.91-.12-3.73-2.87-5.08-.4-.2-.77-.45-1.63-.95,1.68-.79,2.98-1.4,4.44-2.09-.12-1.49.69-3,.26-4.73-.37-1.48.41-2.16,2.6-2.77,1.4,1.09.8,2.77,1.16,4.17.34,1.31.89,2.56,1.4,3.99.85.12,1.83.26,2.74.39.38,1.62-.57,1.81-1.57,2-1.06.2-2.43.13-3.06.77-.55.55-.25,1.94-.32,2.96-.06.88-.13,1.75-.17,2.63-.06,1.26.37,2.33,1.2,3.28.46.53,1.01,1.11,1.16,1.75.63,2.66,1.98,4.9,3.49,7.15,1.13,1.68,1.62,3.78,2.36,5.71.54,1.41,1.12,2.82,1.51,4.27.23.83.83,1.95-.52,2.46-1.16.43-2.19-.39-2.51-1.81-.23-1-.57-1.98-.85-2.97-1-3.66-2.96-6.85-4.83-10.11-.58-1.01-.84-2.21-1.28-3.31-.27-.68-.6-1.34-1.03-2.3-1.32,3.54-2.29,6.69-3.66,9.66-1.18,2.56-1.52,5.37-2.66,7.88-.73,1.63-2.04,3.01-3.2,4.42-.29.35-1.05.56-1.53.47-2.08-.39-3.35,1.15-4.86,2.01-.73.41-1.1,1.21-1.14,2.36-.09,2.5-.81,4.98-1.1,7.49-.17,1.5-.3,3.1.05,4.53.5,2.1.13,4.12-.26,6.08-.4,1.99-.39,4.11-1.07,5.96-.96,2.6-.43,4.9.28,7.33,1.16,3.94.88,7.76-1.09,11.39-1.08-.08-2.06-.2-3.04-.19-.42,0-.9.22-1.25.47-2.24,1.62-4.21,1.6-6.52-.21-1.81,1.35-3.55.28-4.91-.74-.7-.53-.74-2.17-.76-3.32-.02-1.09.26-2.23.59-3.28.73-2.33.54-4.69.47-7.07-.04-1.25.23-2.52.44-3.77.44-2.66.96-5.3,1.41-7.96.52-3.05.93-6.12,1.53-9.16.67-3.43,1.6-6.81,2.22-10.25.32-1.77.18-3.62.31-5.43.26-3.73.46-7.47.92-11.18.13-1.06.11-1.9-.51-2.66-1.09-1.33-2.21-2.66-3.45-3.85-.55-.53-1.42-.74-2.39-1.21-.41-1.88-2.29-2.91-3.76-4.31-.67-.63-1.22-1.4-1.8-2.12-.45-.55-.83-1.16-1.31-1.68-1.13-1.23-1.68-2.44-1.36-4.29.62-3.53.73-7.14,1.23-10.69.53-3.72.25-7.41-.02-11.11-.04-.55-.12-1.22.14-1.65,1.07-1.75.54-3.57.34-5.35-.28-2.47-.25-4.89.07-7.38.32-2.42.32-4.95.04-7.38-.26-2.26-1.19-2.7-3.29-2.35-3.43.58-4.08.16-5.07-3.27-.06-.21-.19-.41-.28-.62h-4.13c-.13.16-.31.32-.4.52-1.19,2.72-1.8,3.07-4.77,2.92-.68-.03-1.37.14-2.06.23-2.35.32-4.69.79-7.05.95-2.42.16-3.96-1.84-4.06-4.6-.06-1.7-.43-3.4-.66-5.16-1.26.01-2.09.12-2.07,1.51.03,1.73-.06,3.47-.05,5.2.01,1.82-1.02,4.51-3.86,4.98-.69.11-1.37.37-2.02.65-1.74.74-3.46,1.52-5.34,2.35.01-.02-.13.11-.13.25-.21,4.51-.34,9.03-.64,13.54-.16,2.35-.62,4.68-.96,7.02-.07.46-.28.93-.25,1.38.18,2.99-.51,6.01.31,8.99.16.58,0,1.27-.11,1.89-.55,2.89-1.31,5.76-1.65,8.68-.24,2.09.11,4.24.15,6.36.01,1.01-.09,2.02-.17,3.03-.14,1.72-.38,3.44-.43,5.16-.06,2.06-.06,4.1.46,6.15.23.93-.03,2.01-.17,3-.43,3.14-.99,6.26-1.3,9.41-.11,1.14.4,2.34.51,3.52.15,1.5.18,3,.28,4.5.18,2.53.6,5.06.49,7.58-.08,1.86-.81,3.7-1.32,5.53-.4,1.43-1.51,1.96-2.91,1.94-.8-.01-1.6-.13-2.39-.09-.7.04-1.41.15-2.07.36-1.27.4-2.51.89-4,1.43,0-.02-.04.29-.14.58-.43,1.28-.89,1.56-2.06,1.19-2.11-.67-4.21-1.36-6.48-1.01-.31.05-.69.06-.94-.08-1.86-1.08-3.82-.62-5.78-.55-.71.02-1.51-.32-2.14-.71-1.74-1.09-3.26-2.62-5.69-2.17.17-1.01.3-1.83.5-3.05-.64.43-.97.64-1.41.94-1.52-3.23-3.6-6.31-4.02-9.99-.3-2.6-.29-5.24-.21-7.86.05-1.72.49-3.43.74-5.14.16-1.12-.96-2-.55-3.24.2-.6-.37-1.51-.11-2.03,1.14-2.29.41-4.63.45-6.96.03-1.66.43-3.3.56-4.96.12-1.66.24-3.33.11-4.98-.23-3.02-.64-6.01.46-8.98.24-.66-.13-1.54-.21-2.32-.12-1.22-.49-2.48-.27-3.64.38-2.1,0-4.21.33-6.29.29-1.86.26-3.66-.18-5.55-.32-1.39.23-2.95.23-4.44.01-2.28-.1-4.56-.16-6.85-.02-.63-.05-1.27-.04-1.9.02-1.23-.13-2.23-1.29-3.11-.78-.6-1.04-1.89-1.54-2.86-.21-.42-.44-.82-.75-1.39-1.54.67-3.24.48-4.65.9-1.76.53-3.22-.24-4.85-.25-1.35,1.44-.38,3.53-1.64,5.05-1.05,1.26-1.57,2.96-2.33,4.47-2.36,1-4.56.79-6.84-.49-2.03-1.13-4.2-1.05-5.94.31-1.14-.38-2.13-.81-3.16-1-.45-.08-1.21.17-1.46.52-1.48,2.15-3.99,2.23-6.08,2.86-2.97.89-4.72,2.86-4.47,6.04.04.53.22,1.12.04,1.57-.45,1.08-.53,1.94-.01,3.14.4.95-.07,2.3-.25,3.46-.2,1.25-.61,2.47-.73,3.72-.06.66.2,1.4.49,2.03.7,1.55.57,1.75-1.47,1.65.64,1.1.73,2,.09,3.2-.67,1.26-.97,2.98-.77,4.4.45,3.1.27,6.16.06,9.23-.17,2.53-.57,5.04-.81,7.57-.11,1.23-.11,2.47-.09,3.71.04,2.63-.6,3.11-3.13,2.21-.71.51-.58,1.61-1.9,2-1.62.48-3.02,1.92-4.3,3.18-.68.67-1.31.68-2.1.79-2.47.34-4.81,1.01-6.69,2.8-.39.37-.9.77-1.39.85-3.3.48-3.7,3.48-4.96,5.69-.23.4.14,1.23.37,1.81.75,1.91.44,3.55-1.05,4.98-.16.15-.22.42-.4.8.94,1.4.85,2.8-.27,4.27-.45.59-.26,1.64-.58,2.38-.3.67-.12.75.45.9.16.04.25.57.26.88,0,.21-.29.58-.24.62,1.67,1.36.04,3.21.68,4.77.18.43-.43,1.31-.87,1.82-.35.41-.98.57-1.55.88.39.23.83.5,1.37.83-.32,1.26-.42,2.67-1.03,3.8-.7,1.29-.39,2.45.2,3.36,1,1.56.99,3.15.99,4.87,0,1.5-1.1,2.59-1.91,2.71-1.95.28-2.38,1.99-3.58,2.93-.3.24-.47.64-.76,1.06-3.39-.12-6.74-.17-9.9-1.94-1.72-.97-3.07-1.9-3.06-3.92-2.07.13-4.03.17-5.96.43-.91.12-1.73.81-2.64,1.03-2.7.65-5.43,1.19-8.15,1.77-.16.03-.35.16-.46.11-.44-.23-.86-.51-1.28-.77.29-.33.52-.86.88-.97,1.63-.5,3.3-.91,4.96-1.3,3-.71,6.07-1.18,8.98-2.16,1.73-.58,3.29-.07,4.91-.05.47,0,1.03.87,1.34,1.46.24.45.14,1.07.18,1.5,1.2.71,2.28,1.34,3.35,2,1.17.73,2.5.76,3.79.91.37.04.84-.08,1.13-.3.96-.72,1.86-1.53,2.88-2.38-1.89-2.46-1.25-5.08-.38-7.74.31-.94.44-1.97.46-2.97.05-2.18.39-4.27-.52-6.53-.72-1.8-.28-4.09-.3-6.16,0-.34.33-.68.48-1.03.18-.41.52-.88.45-1.25-.57-3.1.17-5.96,1.49-8.73.13-.28.14-.62.22-.97.48-.07.94-.15,1.6-.25-1.29-3.38,1.17-6.02,1.85-9.31,3.14-1.06,5.47-3.67,8.27-5.64,1.61,1.31,3.41.51,4.69-.14,2.48-1.27,4.64-3.14,6.94-4.76.77-.54,1.54-1.07,2.52-1.75.08-1.35.09-2.92.3-4.47.18-1.3.37-2.68.94-3.82,1-2,.48-4.01.45-6.01-.03-1.99-1.34-3.93-.2-5.97-.58-2.74.33-5.29.95-7.89.48-1.99,1.24-4.12.95-6.05-.42-2.81.46-5.45.3-8.2-.11-1.78.3-3.58.36-5.38.05-1.61,1.53-1.95,2.41-2.61,1.21-.91,2.88-1.2,4.33-1.82,1.35-.58,2.83-1.05,3.97-1.93,1.81-1.4,3.5-.85,5.3-.25.22.07.44.16.77.29,1.29-1.41,3.06-1.54,4.8-1.36,1.14.12,2.43.47,3.28,1.17,1.1.9,2.1.98,3.26.64,1.77-2.63,2.59-5.51,2.89-8.59.05-.52.44-1,.72-1.61.58.07,1.11.15,1.65.2,1.79.15,3.55.3,5.33-.4.8-.32,1.83-.02,2.76-.06,1.04-.04,2.08-.14,3.42-.24.98.87,2.24,2,3.51,3.13.24.21.71.4.71.59-.03,2.75,2.74,3.92,3.46,6.23.11.36.31.95.15,1.11-1.11,1.13-.39,2.22-.06,3.33.55,1.85,1.01,3.66,0,5.57-.38.73-.57,1.77-.37,2.55.38,1.43-.27,2.78.1,4.28.4,1.64-.34,3.55-.6,5.45h-1.29c-.09.1-.19.18-.18.22.7,1.86-1.07,4,1.02,5.87,1.13,1.01,1.88,2.94,1.05,4.8-.13.29-.29.57-.48.82-.78.99.74,2.09-.32,3.24-.69.75-.75,2.09-1.15,3.38Z" />
    <path d="m447.07,143.49c-2.35,0-4.25,1.11-6.29.25-2.94,1.1-5.84-.71-8.75-.16-3.67.7-7.22.32-10.82-.54-1.56-.37-3.28-.05-4.91-.21-1.61-.15-3.2-.52-4.8-.75-.68-.1-1.38-.06-2.07-.09-2.06-.09-4.12-.17-6.18-.27-.56-.03-1.11-.08-1.67-.11-2.33-.11-3.31-.95-3.66-3.28-.28-1.88-.51-3.77-.66-5.66-.11-1.29-.36-2.29-1.84-2.68-1.06-.28-2.03-.86-3.05-1.3-1.24-.54-2.07-1.26-2.12-2.84-.08-2.38-.38-4.76-.7-7.12-.28-2.04-.99-2.07-2.61-1.89-5.18.57-10.14-.13-14.79-2.56-1.31-.68-2.02-1.72-1.89-3.3.1-1.34.02-2.69.02-4.47-1.49.54-2.64.96-3.79,1.38-.52.19-1.04.41-1.58.52-3.47.74-6.94,1.48-10.43,2.17-1.41.28-1.8.73-2.15,2.14-.68,2.72-1,5.52-2.32,8.09-.74,1.45-1.02,3.17-1.35,4.8-.47,2.36-.58,2.48-2.94,3.09-3.32.87-6.66.51-9.98.22-2.28-.2-4.45-1.11-6.67-1.62-2.35-.55-4.85-1.36-7.39-.27-1.44.61-2.88-.62-3.11-2.19-.15-1-.57-1.95-.84-2.94-.33-1.22-.62-2.45-.93-3.69-1.49-.84-3.01-1.03-4.75-.9-1.42.11-2.99-.37-4.32-.97-1.56-.7-2.06-2.49-1.46-4.34.33-1.02.68-1.94-.09-2.93-.21-.28-.24-.76-.22-1.14.24-4.1.48-8.2.76-12.3.11-1.59-.54-2.43-2.16-2.5-.71-.03-1.42.12-2.31.2-.07-.41-.33-1.12-.2-1.21,1.07-.66,2.17-1.31,3.34-1.74.52-.19,1.25.07,1.85.24,1.23.35,2.13,1.02,2.16,2.47.04,1.58.17,3.16.2,4.74.03,2.04.02,4.09-.05,6.14-.02.68-.27,1.35-.42,2.03-.41,1.86.06,3.78-.62,5.69-.55,1.54,1.5,3.47,3.24,3.57,1.83.1,3.66.22,5.47.51,2.3.37,3.51,1.67,3.94,3.82.31,1.54.67,3.07,1.02,4.66,1.91.11,3.53.83,5.34.3.74-.22,1.84.07,2.53.51,2.68,1.74,5.7,1.5,8.65,1.83,1.94.22,3.77.25,5.4-.44.61-1.88.87-3.78,1.82-5.24.83-1.27,1.71-2.43,1.97-3.94.11-.63.23-1.26.25-1.9.06-1.95.62-3.7,1.59-5.4.36-.64.7-.97,1.37-1.1.85-.17,1.69-.51,2.55-.57,5.29-.39,10.21-2.04,14.99-4.23.71-.32,1.48-.55,2.24-.68.43-.07.97.06,1.36.27,1.12.62,2.44,4.06,2.17,5.35-.22,1.04-.39,2.09-.58,3.07.69.31,1.17.43,1.53.7,2.31,1.71,5.04,1.8,7.72,1.89,2.7.09,5.41-.04,8.11-.05.31,0,.61.11.9.16.53,1.86,1.23,3.63,1.48,5.45.25,1.88.06,3.82.06,5.62,1.87.98,3.47,1.85,5.1,2.67,1.8.91,2.27,1.83,2.1,3.79-.16,1.85-.31,3.72-.18,5.56.04.51,1.01,1.19,1.67,1.36,1.53.41,3.12.64,4.71.8,3.86.4,7.73.67,11.58,1.1,2.36.26,4.69.86,7.06,1.02,2.67.17,5.36-.02,8.04.02,1.82.03,3.64.25,5.47.29,1.49.03,3,0,4.47-.19,1.18-.16,2.16-.02,3.41,1.22Z" />
    <path d="m224.58,26.59c2.35,0,4.56-.02,6.76,0,1.26.01,2.52.09,3.78.16,1.64.08,2.35.71,2.35,2.35.01,1.9-.14,3.81-.21,5.72-.04,1.03-.14,2.08-.04,3.1.18,1.74.13,3.34-.44,5.1-.47,1.46-.77,3.29.03,5,.38.8.35,1.89.24,2.81-.19,1.57-.6,3.11-.89,4.67-.21,1.11-.85,1.77-1.97,1.65-3.31-.34-6.61-.75-9.91-1.16-.21-.03-.41-.22-.92-.52.46-1.4,1.09-2.82,1.35-4.31.21-1.21,1.28-2.58-.2-3.78-.16-.13.03-.69.04-1.05.1-3.06.29-6.12.26-9.18-.03-3.23-.28-6.46-.42-9.7,0-.23.09-.46.17-.87Zm4.13,1.96c0,3.17.06,6-.02,8.84-.08,3.03-.26,6.05-.48,9.07-.05.65-.82,1.45-.62,1.87.88,1.82.06,3.52-.2,5.29,1.55,1,3.14.52,4.79.56.09-.54.21-1,.24-1.46.16-2.77.26-5.54.45-8.31.07-1.03.5-2.05.46-3.06-.14-3.25-.28-6.48-.01-9.73.14-1.67-.47-2.33-2.07-2.71-.68-.16-1.39-.2-2.54-.35Z" />
    <path d="m475.64,165.1c3.76-1.36,5.49-4.13,4.41-6.97-.53.47-.99,1.25-1.59,1.37-2.99.6-3.61,2.97-4.3,5.35-.13.44-.17,1.04-.47,1.25-.4.29-1.11.49-1.51.32-.35-.15-.68-.88-.64-1.33.15-1.74.45-3.47.68-5.2.05-.38.05-.78.09-1.4-.62.05-1.13.09-1.56.12-.15.22-.29.34-.3.47-.21,2.12-.26,2.29-2.16,2.3-2.54.02-5.09-.18-7.64-.26-1.01-.03-2.03,0-3.16,0v2.02c-.33.04-.62.17-.75.08-.56-.4-1.41-.79-1.53-1.32-.36-1.6-1.43-1.84-2.78-2.07-1.17-.21-2.55-.3-3.33-1.96,1.2-.4,2.3-.75,3.39-1.14.92-.32,1.51-.83,1.19-1.97-.96-3.41-.98-6.93-1.08-10.43-.03-.98,0-1.94-1.4-2.06.38-1.27.7-2.32,1.01-3.35,2.37.12,3.37,1.34,3.19,3.4-.26,2.98-.47,5.98-.45,8.97,0,1.02.74,2.04,1.14,3.04,1.46-.4,2.81-.85,4.2-1.09.51-.09,1.37.18,1.6.57.23.38-.01,1.19-.27,1.69-.58,1.1-1.3,2.12-2.09,3.39,2.82.88,5.3.66,7.89.42,0-2.82,0-5.43,0-8.04,0-.31-.13-.62-.18-.94-.13-.82-.14-1.69.8-1.99,1.04-.33,1.61.29,1.9,1.28.56,1.88,1.17,3.75,1.81,5.79.35-.24.79-.49,1.18-.8.68-.55,1.54-.89,2.15-.26.37.38.28,1.29.24,1.95-.05.71-.28,1.4-.01,2.25.79-1.22,1.59-2.44,2.48-3.83-.2-.49-.45-1.12-.71-1.76,2.24-.51,2.68-.41,3.51,1.07.81,1.45,1.76,2.89,2.19,4.46.47,1.75.46,3.57-1.12,5.07-1.22,1.16-2.27,2.48-4.03,2.81-1.04.19-1.9.07-1.97-1.27Z" />
    <path d="m133.84,126.58c-.16-3.55-.27-6.7.48-9.82.18-.76.08-1.38-.13-2.18-.35-1.36.01-2.91.09-4.38.03-.61.35-1.36.1-1.81-1.38-2.48-.35-4.4,1.26-6.22.21-.24.46-.43.79-.74,1.22.59,2.4.55,3.78.09,1.23-.42,2.71-.25,4.05-.09,1.18.14,1.34,1.19,1.34,2.21,0,1.64-.07,3.29.04,4.93.17,2.54.23,5.12.78,7.58.57,2.57-.18,4.85-.78,7.2-.12.47-.83.97-1.37,1.12-1.37.38-2.8.55-4.19.85-1.07.23-2.12.57-3.19.79-.92.19-1.86.29-3.07.46Zm7.07-4.1c.36-1.74,1.02-3.45,1-5.15-.04-3.41-.45-6.81-.72-10.22-.07-.89-.16-1.78-.25-2.84-.83.99-2.35-.81-3.08.54.17,1.17.47,2.09.4,2.98-.14,1.65-.43,3.26.91,4.45-1.85,3.61-2.64,7.17-1.72,11.14,1.24-.33,2.15-.57,3.46-.91Z" />
    <path d="m127.04,68.93c-2.62-.17-3.29-1.02-2.77-3.52.16-.76.25-1.56.23-2.33-.1-3.97-.34-7.95-.3-11.92.01-1.26.73-2.52,1.22-3.74.12-.31.58-.63.91-.67,1.89-.22,3.8-.47,5.7-.48,1,0,1.76.66,1.83,1.82.16,2.66.19,5.34.54,7.98.24,1.83.25,3.57-.13,5.38-.14.67.31,1.49.58,2.21.69,1.81.43,2.38-1.37,3.02-1.2.42-2.35.98-3.54,1.41-.95.34-1.94.57-2.91.85Zm2.48-16.43c-1.69,2.69-2.18,10.6-.82,13.29.74-.36,1.48-.73,1.96-.96,0-3.12.09-5.9-.04-8.67-.06-1.19.28-2.6-1.1-3.66Zm.18-1.22c.16-.2.33-.35.4-.53.03-.08-.14-.24-.22-.36-.14.15-.31.28-.4.46-.04.07.11.24.22.43Z" />
    <path d="m288.93,100.86c2.86.32,5.22.56,7.58.87,1.55.2,2.53,1.35,2.5,2.84-.04,1.49-.16,2.98-.12,4.47.01.48.37.98.65,1.42.79,1.26.77,1.68-.42,2.58-.88.66-1.82,1.24-2.74,1.84-.4.26-.96.38-1.21.74-1.64,2.34-4.22,1.87-6.48,2.12-2.43.27-4.76-.45-6.84-1.67-.75-.44-1.26-1.37-1.72-2.17-.38-.66-.59-1.45-.73-2.21-.15-.84-.36-1.79-.13-2.56.63-2.12,1.42-4.2,2.29-6.24.24-.57.92-1.24,1.49-1.34,2.1-.36,4.24-.5,5.89-.68Zm6.2,3c-2.18-.73-4.52-1.09-6.91-.93-2.23.15-3.25,1.51-2.97,3.72.37,2.98,3.5,6.23,6.42,6.66,1.36.2,2.98-.75,3.34-2.09.65-2.39,1.21-4.8.12-7.37Zm-12.85,3.56c-1.4,1.88-1.46,4.71-.21,6.43.27.37.59.77.98.99,1.87,1.1,4.84,1.29,7.09.51-.46-.23-.87-.46-1.31-.65-2.24-.97-4.22-2.13-4.94-4.75-.25-.91-1.04-1.67-1.62-2.53Z" />
    <path d="m222.48,80.32c-.07,1.08-.02,1.89-.19,2.65-.47,2.13-.29,4.21.18,6.3.17.75.12,1.55.17,2.33.09,1.66.15,3.32.25,4.98.1,1.66-.21,2.13-1.95,2.28-2.51.22-5.04.3-7.82.45,0-1.98-.37-3.87.09-5.52.64-2.28.33-4.47-.03-6.61-.46-2.72,1.43-4.42,2.26-6.58.08-.21.59-.44.81-.37,1.56.5,2.99-.16,4.48-.35.5-.07,1.04.25,1.77.44Zm-3.85,16.49v-14.83c-1.06.65-1.69,1.04-2.34,1.44.23,4.5.46,8.9.69,13.39h1.65Z" />
    <path d="m356.81,125.59c.3-2.23.71-4.21.78-6.21.03-.94-.61-1.89-.96-2.9,1.75-3.13,2.02-3.22,3.78-1.56,1.69,0,3.11-.05,4.52.02.94.05,1.68.5,1.87,1.53.14.77.37,1.55.35,2.32-.04,2.22-.16,4.43-.3,6.64-.1,1.59-.52,2-2.09,1.84-2.2-.23-4.4-.58-6.59-.94-.43-.07-.82-.43-1.36-.73Zm2.89-1.81c1.05.05,1.93.24,2.75.08.52-.1,1.39-.8,1.34-1.09-.29-1.63.35-3.53-1.14-4.83-2.21.39-2.21.39-2.45,2.38-.13,1.02-.28,2.03-.49,3.46Z" />
    <path d="m27.82,140.1c.86-.65,1.69-.25,2.48.12,3.21,1.51,6.44,1.88,9.84.56,1.68-.65,3.61-.49,5.21-1.55.33-.22,1.01.08,1.54.14-.05,1.17-.47,1.77-1.53,1.93-3.3.5-6.44,1.84-9.85,1.82-1.4,0-2.74.29-4.05-.71-.68-.52-1.81-.44-2.74-.64-1.01-.22-1.31-.8-.85-1.74l-.05.07Z" />
    <path d="m27.87,140.03c-1.04,1.36-2.53.87-3.86.84-.33,0-.64-.67-1.18-1.28,1.74-.19,3.06-.33,4.55-.49.07.17.26.59.45,1.01,0,0,.05-.07.05-.07Z" />
  </g>
  <g>
    <path d="m356.34,188.79c.35-.12.71-.25,1.06-.37.22.64.64,1.29.63,1.93,0,1.44-.22,2.89-.36,4.41-.35-.33-.84-.79-1.68-1.59.31,2.16.64,3.93-.54,5.53.23,1.36,1.36.56,2.19.75.33,1.95.47,3.83-.79,5.64-.68.98-1.3,1.42-2.53,1.25-1.15-.16-2.35-.02-3.53.06-1.14.08-1.71.72-1.65,1.9.05.87,0,1.74.07,2.61.14,1.71.43,3.39-.41,5.07-.4.81-.8,2.25-.39,2.72,1.19,1.4.83,3.01,1.14,4.51.06.3.23.64.15.9-.69,2.31-.68,4.73-1.63,7.04-.94,2.3-1.05,4.93-1.54,7.41-.12.61-.36,1.2-.46,1.82-.22,1.32-1.1,1.72-2.25,1.59-2.32-.27-4.8.02-6.64-1.95-.23-.25-.72-.27-1.22-.44.15-3.24.22-6.46-1.11-9.55-1.38-.14-2.81-.47-4.18-.34-.93.09-2.07.63-2.62,1.35-.85,1.12-1.72.96-2.43.3-1.49-1.37-3.44-2.08-4.71-3.86-1.25-1.75-3.41-2.45-5.47-3.08-.6-.19-1.2-.41-1.77-.68-1.7-.81-2.84-2.01-2.73-4.04.13-2.38.11-4.78.4-7.13.34-2.73,1.64-5.37.68-8.21.92-2.27-.36-4.53.03-6.63-2.63-.65-5.14-1.46-7.71-1.84-2.26-.33-4.58-.24-6.88-.24-2.18,0-2.67-.4-3.39-2.4-1.47-4.05-1.82-8.15-1.26-12.4.18-1.36-.26-2.81-.41-4.1-2.57-1.24-4.99-.78-7.43-.34-2.44.44-3.77-.46-4.35-2.86-.69-2.88-1.92-3.51-4.6-2.47-1.05.41-2.17.64-3.35.98-.12,1.8.07,3.68,1.1,5.62,1.12,2.1,1.17,4.63.89,7.02-.24,2.11.44,4.03.82,6.03.2,1.06.29,2.23.05,3.27-.41,1.78-2.5,3.28-4.34,2.74-3.1-.91-5.77.51-8.63.9-.84.11-1.73.13-2.55-.04-.82-.17-1.4-.27-2.34.05-2.53.85-5.24,1.17-7.87,1.73-1.52.32-3.02.69-4.54,1.05-.18,1.98-.36,3.86-.52,5.73-.06.69-.13,1.39-.09,2.08.06.92.17,1.84.36,2.74.26,1.21.67,2.39.93,3.6.16.74-.17,1.58.74,2.13.22.13.29,1.08.08,1.26-1.07.95-.76,1.93-.36,3.02.16.43.06.95.12,1.42.16,1.24.29,2.5.54,3.72.13.66.85,1.41.66,1.88-.33.84-1.01,1.65-1.75,2.18-1.39,1-2.85,2.01-4.44,2.61-2.01.76-4.08,1.69-5.27,3.26-1.27,1.69-3.49,2.72-3.83,5.21-.09.67-1.32,1.19-1.8,1.6-2.62-.64-4.95-1.25-7.31-1.76-.37-.08-.84.21-1.25.38-2.11.85-3.33.58-4.87-1.05-.43-.46-.92-.9-1.46-1.2-1.55-.85-1.94-2.21-1.88-3.82.02-.47.2-1.01.03-1.4-.95-2.24-.1-4.38.25-6.56.24-1.48.5-2.96.69-4.45.48-3.69,1.04-7.37,1.36-11.07.16-1.89-.09-3.81-.19-5.71-.07-1.34-.13-2.69-.35-4.01-.16-.97-.38-2.04-.92-2.82-.64-.93-1-1.68-.51-2.8.24-.53.16-1.27.05-1.88-.53-2.94-.2-5.86.02-8.79.12-1.56.39-3.11.59-4.61-1.98-1.06-4.14-1.64-5.4-3.04-1.62-1.8-3.59-3.61-2.81-6.84.73-3.05.53-6.32.76-9.49.05-.71.1-1.47.36-2.12.98-2.37.48-4.67-.11-7-.34-1.38-.52-2.79-.81-4.4-1.21,0-2.31.07-3.4-.02-1.32-.11-2.63-.44-3.96-.52-1.07-.07-2.22-.12-3.23.17-2.91.84-5.74,1.95-8.65,2.76-1.44.4-2.99.51-4.49.49-1.53-.02-3-.11-4.42.7-.42.24-1.15.23-1.61.04-3.88-1.65-7.86-.71-11.79-.42-1.78.13-3.67-.24-5.32,1-1.03.78-1.48,1.31-.86,2.27,1.24,1.9.83,4,.96,6.02.15,2.46-.04,4.94.08,7.41.06,1.37.7,2.74.63,4.08-.12,2.35-.61,4.67-.9,7.01-.18,1.48-.35,2.97-.4,4.46-.05,1.72-.36,3.38-.09,5.18.32,2.2-.44,4.53-.53,6.82-.06,1.55-.24,3.38.46,4.62,1.05,1.87.98,3.78,1.25,5.71.12.84.44,1.67.48,2.51.07,1.48.05,2.98-.07,4.45-.03.32-.6.75-1,.87-2.8.85-5.62,1.63-8.43,2.43-.46.13-.93.2-1.62.34,0,1.01-.19,2.06.04,3,.55,2.33.86,4.65.6,7.04-.1.87-.23,1.77-.11,2.63.29,2.08-.67,3.56-2.44,4.18-2.73.96-5.15,2.59-8.09,3.15-3.32.64-6.48,2.13-9.79,2.83-2.3.49-4.5,1.2-6.73,1.86-.67.2-1.43.15-2.14.12-1.64-.07-2.51-.74-2.83-2.33-.19-.92-.49-2.03-.15-2.8.59-1.39-.21-2.25-.68-3.28-.43-.94-.84-1.9-1.39-2.76-.83-1.31-.84-2.71-.74-4.16.13-1.99-1.11-3.16-3-2.72-1.98.46-3.91,1.18-5.91,1.5-1.38.22-2.84-.03-4.26-.11-.2-.01-.53-.2-.58-.36-.66-2.42-2.63-4.49-2.12-7.2.31-1.62.89-3.18,1.36-4.77.24-.81.48-1.61.85-2.82-2.82,0-5.26.12-7.68-.04-1.86-.12-3.72-.51-5.54-.97-.7-.18-1.44-.77-1.87-1.38-1.33-1.89-3-3.38-5-4.49-1.28-.71-1.88-1.6-1.48-3.11.28-1.07.39-2.19.55-3.28.16-1.03.07-1.77-1.23-2.13-1.9-.54-2.89-2.12-2.64-4,.26-1.95.48-3.95,1.12-5.79.58-1.68,1.7-3.17,2.75-5.06-.59-.7-1.23-1.59-1.99-2.34-1.35-1.32-2.78-2.55-4.56-4.16-3.66.61-7.91.37-12.14,1.3-2.62.58-4.99,1.36-7.35,2.97-1.8-1.55-3.54-3.04-5.31-4.58-1.1.31-1.03,1.18-.87,2.08.48,2.66.85,5.35,1.48,7.97.7,2.87.71,5.61-.26,8.45-1.37,3.99-1.3,8.06-.25,12.17.38,1.49.54,3.05-.02,4.69-.34,1,.15,2.28.32,3.92-.46.8-1.34,1.52-2.99,1.19-.86-.17-1.82.17-2.93.31.45,2.12.6,3.94-.29,5.8-.39.81.13,2.01,0,3-.3,2.35-.78,4.66-.31,7.08.22,1.13-.09,2.37-.15,3.56-.04.64-.23,1.31-.07,1.9.67,2.56.05,5.05-.22,7.58-.3,2.87-.09,5.75.32,8.65.37,2.58.3,5.25.16,7.87-.13,2.35-3.39,5.06-5.4,4.33-2.58-.93-5.1-.6-7.55-.13-2.5.48-4.87.54-7.41-.15-.11-.82-.05-1.73,1.04-1.56,3.48.54,6.78-.76,10.19-.77,1.28,0,2.55.05,3.83.15,1.95.15,2.65-.21,2.9-2.2.28-2.18.67-4.52.19-6.6-.69-3.02-.46-6.03-.33-8.96.26-5.9,0-11.78.11-17.66.07-3.32.45-6.64.64-9.96.07-1.18.01-2.37.01-3.86,1.82-.29,3.58-.56,5.66-.89,0-2.01.53-4.23-.09-6.06-.96-2.83-.13-5.7-.84-8.48-.19-.75.28-1.69.53-2.52.4-1.29.92-2.54,1.31-3.84.48-1.61.68-3.15-.11-4.85-.6-1.32-.25-3.06-.81-4.41-1-2.43-.3-5.03-1.12-7.62.9-.73,1.9-1.52,1.5-3.05-.07-.28.57-.92,1-1.09.27-.11.83.28,1.14.58,1.72,1.62,3.4,3.28,5.14,4.98,2.54-1.69,5.25-2.18,8.06-2.33.48-.02.97-.07,1.42-.22,3.48-1.15,7.1-.56,10.64-.85.52-.04,1.21.39,1.63.79,1.58,1.55,3.06,3.2,4.63,4.77,1.5,1.49,1.77,3.29,1.39,5.24-.66,3.32.13,6.57.35,9.85.17,2.61.12,5.24.17,7.85,0,.39,0,.79,0,.79,2.16,2.18,4.11,4.14,6.06,6.09.22.22.53.57.75.54,2.41-.34,4.4,1.57,6.95,1.08,1.98-.38,4.14-.04,6.2.2,2.1.24,2.4.97,1.63,2.88-.75,1.84-1.45,3.7-2.1,5.57-.18.51-.27,1.13-.15,1.65.37,1.61.85,3.19,1.37,5.05,2.18-.43,4.19-.81,6.19-1.22.78-.16,1.53-.45,2.31-.6,3.61-.7,6.43,1.73,6.34,5.42-.04,1.53.14,2.98,1.38,4.12,1.52,1.39,1.13,3.43,1.41,5.16.55,3.34.39,3.46,3.62,2.56,6.05-1.68,12.09-3.44,18.11-5.24,1.05-.31,2-.97,3-1.48.89-.45,1.18-1.1,1.04-2.16-.13-.99.19-2.03.14-3.04-.08-1.5-.36-2.99-.46-4.48-.11-1.65-.01-3.32-.19-4.96-.18-1.68.72-2.27,2.1-2.64,2.22-.6,4.43-1.26,6.64-1.89.75-.21,1.5-.42,2.48-.69-.15-1.46-.31-2.79-.41-4.12-.08-1.09-.09-2.18-.14-3.27-.02-.4.09-.87-.09-1.18-.98-1.69-1.21-3.58-1.68-5.42-.23-.89-.29-1.61-.11-2.51.3-1.47.35-2.99.46-4.49.45-5.77.51-11.56,1.31-17.32.26-1.86.43-3.91-.33-5.86-.35-.9-.13-2.01-.22-3.02-.33-3.55-.7-7.09-1.01-10.64-.08-.94-.01-1.89-.01-2.65,2.15-1.01,4.17-2,6.22-2.9.35-.15.96-.08,1.27.14,1.1.77,2.13.73,3.22.02.31-.2.79-.43,1.07-.32,2.48,1,4.94.13,7.41.07.44-.01.88.29,1.33.43.45.14,1,.47,1.34.33,1.56-.67,3.13.03,4.67-.18,2.1-.29,4.19-.65,6.25-1.15,2.38-.58,4.75-1.24,7.05-2.06,2.08-.73,4.15-.44,6.12,0,1.03.23,1.95.36,2.97.22.63-.09,1.27-.14,1.91-.14,2.38-.03,2.79.33,3.29,2.67.31,1.45.51,2.96,1.06,4.32,1.33,3.28.39,6.44-.39,9.57-.51,2.04-.26,4.14-.86,6.16-.35,1.19-.31,2.5-.41,3.77-.05.63.08,1.1.65,1.63.77.71.99,2.1,1.81,2.64.82.55,2.15.25,3.15.63,1.45.55,2.79,1.38,4.41,2.21-.6,1.19-1.08,2.14-1.67,3.3.71,1.15.5,2.49.17,4-.74,3.41-1.17,7-.56,10.38.46,2.53,1.53,4.92,1.73,7.63.12,1.61,1.13,3.07.11,4.79-.23.4.35,1.28.61,2.08-.8,1.12-.95,2.35-.47,3.89.35,1.11.15,2.6-.3,3.72-.89,2.18-.63,4.52-1.23,6.7-.64,2.32-.72,4.7-1.13,7.03-.37,2.12,1.71,4.75,3.21,5.87.17.13.44.18.66.19,2.59.11,5.19.2,8.05.3,2.93-2.93,6.2-6.05,10.14-8.34.82-.48,1.71-.87,2.62-1.13,1.19-.34,1.68-1.1,1.68-2.25.01-3.08.12-6.16-.06-9.23-.07-1.2-.79-2.36-1.2-3.54-.2-.58-.51-1.18-.52-1.78-.05-3.09-.01-6.19-.02-9.28,0-.82-.16-1.66-.07-2.46.09-.84.4-1.65.71-2.84,3.36-.77,6.89-1.56,10.42-2.38,1.62-.37,3.22-.78,4.84-1.16,1.08-.26,2.12-.55,3.25.04.52.27,1.27.27,1.88.16,3.12-.57,6.22-1.22,9.59-1.89-.16-1.18-.38-2.4-.5-3.64-.29-3.16-.49-6.32-.82-9.47-.08-.81-.52-1.58-.73-2.39-.33-1.21-.76-2.42-.87-3.66-.15-1.64-.04-3.3-.04-5.23,1.2-.09,2.29-.29,3.36-.21,2.18.17,4.28-.04,6.35-.72.6-.2,1.25-.29,1.88-.32,1.07-.05,1.82.47,2.1,1.51.3,1.08.43,2.17,1.95,2.34.32.04.51,1.19.73,1.73,2.71.28,5.43.53,8.14.86,2.25.28,3.13,1.37,3.08,3.68-.07,3.16-.22,6.31-.18,9.47.01,1.17.45,2.35.72,3.51.17.7.4,1.39.69,2.4,1.6,0,3.41.11,5.19-.05.83-.07,1.47-.08,2.24.32,2.35,1.2,4.77,1.5,7.37.54,1.84-.68,3.44.8,3.26,2.69-.15,1.56-.2,3.12-.29,4.69-.16,3.02-.28,6.04-.5,9.05-.17,2.29-.53,4.57-.68,6.87-.2,3.06.27,4.48,3,5.26,2.93.84,5.37,2.32,7.17,4.79.6.83,1.31.89,2.08.48,1.41-.75,2.86-.72,4.4-.58,1.26.11,2.55-.04,3.82-.11,2.06-.11,2.99.72,3.7,2.59,1.15,3.03,1.08,6.17,1.05,9.51,1.11.09,2.02.17,3.16.26.28-1.79.45-3.44.8-5.05.43-1.99.74-4.06,1.57-5.88,1.12-2.46.69-4.89.15-7.19-.42-1.79-.22-3.45-.15-5.16.08-2.11.27-4.22.39-6.32.09-1.56.17-3.13.26-4.79,1.8-1.07,3.79-1.29,5.79-1.29,1.73,0,2.15-.18,2.37-1.9.16-1.23-.24-2.58.12-3.72.7-2.18.11-4.38.48-6.54.07-.38.21-.87.04-1.15-1.05-1.77-.63-3.58-.3-5.41.11-.61-.09-1.28-.03-1.91.06-.55.29-1.09.47-1.7.41.22.57.26.65.35,1.74,2.08,1.45,4.49,1.09,6.91q-1.13.29.07,1.67c-.07-.76-.11-1.25-.15-1.74Z" />
    <path d="m413.35,220.79c1.28-.31,2.57-.62,3.96-.96.12.64.08,1.25.27,1.34,2.9,1.27,2.59,3.77,2.4,6.04,1.44.29,2.8.55,4.14.85.29.07.67.22.81.46,1.21,1.97,3.23,2.15,5.19,2.57.58-1.88,1.87-2.91,3.53-3.37,1.97-.55,3.9-1.24,6.07-.87,1.28.22,2.67-.16,4.01-.31,2.27-.26,4.5-.29,6.54.97.31.19.71.35.87.64.52.93,1.21,1.39,2.32,1.27,1.05-.11,1.55.63,2.02,1.69-.44.13-.82.24-1.41.41,1.42,1.07.36,2.56.75,3.88.14.46-1.07.98-.92,1.96.08.49-.15.88.33,1.43.94,1.08,1.28,2.43.94,3.96-.27,1.2-.2,2.47-.28,3.67,3.03,1.74,6.22,2.32,9.47,2.72,1.09.13,2.16.57,3.25.65,1.38.11,2.79,0,4.18-.03,2.07-.05,4.11-.02,5.92,1.2-.87,2.09-1.26,2.24-3.25,1.29-.95-.45-1.85-.88-2.85.03-.32.29-1.04.22-1.57.17-1.86-.18-3.62-1.22-5.57-.63-1.15-1.14-3.17.2-4.18-1.47-.14-.23-.74-.18-1.12-.28-1.82-.5-3.68-.9-5.45-1.54-1.66-.6-1.84-1.33-1.72-3.15.14-2.19.39-4.36-.31-6.6-.56-1.78-.61-3.79-.49-5.68.1-1.62-.39-2.55-1.78-3.24-.95-.47-1.81-1.14-2.66-1.79-1.42-.7-2.93,1.39-4.53-.27-.94,1.65-2.62.61-3.98,1.05-1.47.48-3.09.51-4.61.73-.68,1.42-1.07,3.03-3.16,2.7-.28-.04-.67.6-1.19,1.09-2.53-1.17-5.09-2.36-7.66-3.53-.58-.26-1.17-.63-1.77-.66-1.92-.08-2.52-1.32-2.85-2.92-.24-1.16-.54-2.3-.8-3.38q-2.57-.4-2.8-2.18s-.06.07-.06.07Z" />
    <path d="m382.13,205.15c0-2.03.15-3.67-.04-5.27-.26-2.26-1.7-3.34-4.19-3.32-2.83.02-5.29-1.08-8.02-2.33.37-.74.67-1.34,1.02-2.04-.31-.83-.66-1.79-1.02-2.75.47-.58.93-1.15,1.4-1.72-.08-.11-.17-.23-.25-.34-.55.13-1.1.25-2.2.5.73-1.24,1.23-2.1,1.62-2.76-.65-.85-1.3-1.47-1.66-2.23-.57-1.21.89-1.46,1.3-2.19-1.62-2.48-1.5-4.13.18-5.31,2.25.92.83,3.2,1.85,4.63.41.58-.89.57-.48,1.55.64,1.53.68,3.32.96,5,.06.37.15.8.02,1.12-.64,1.67-.27,3.28.14,4.91,2.9,2.05,6.17,2.18,9.12,1.71,1.11,1.22,1.91,2.2,2.81,3.08.85.83,1.38,1.78,1.26,2.96-.05.46-.42.88-.68,1.38,1.36,2.12,1.51,5.31.31,9.09,1.16,1.14,1.52,2.68,1.2,4.31-.2,1.03.31,1.34,1.07,1.79,1.3.77,2.74.52,4.09.82,2.51.56,4.96,1.18,7.6.47,1.03-.28,2.29.25,3.43.49.14.03.17.54.32,1.05-2.08.08-3.94.92-5.92.27-.08-.02-.16-.08-.23-.06-3.33,1-6.24-1.17-9.46-1.24-1.41-.03-2.85-.88-4.18-1.55-.36-.18-.47-1.07-.52-1.64-.14-1.8-.19-3.6-.28-5.41-.02-.47-.3-1.07-.1-1.39,1.02-1.62.3-2.83-.48-3.6Z" />
    <path d="m357.22,158.54c-1.17,2.15-1.17,2.17.33,4.23-.25.27-.5.55-.74.81-.23-.07-.43-.07-.49-.17-.29-.45-.55-.92-.81-1.39-.24-.43-.54-.85-.69-1.31-.21-.65-.2-1.39-.47-2.01-.38-.88-.58-1.67-.47-2.71.1-1.02-.49-2.14-.89-3.17-.27-.7-.72-1.33-1.09-1.98,3.2-1.44,6.28-.4,9.3-.62,2.71-.2,5.43-.31,8.45-.48.12.63.41,1.44.42,2.27.08,4.07-.04,8.14.16,12.2.12,2.43.71,4.84,1.09,7.25.1.62.34,1.27.23,1.85-.1.53-.52,1.29-.94,1.4-.71.18-1.05-.41-1.45-1.15-1.16-2.18-1.16-4.56-1.62-6.86-.31-1.55-.9-3.05,0-4.67.35-.62.18-1.56.15-2.35-.1-2.21-.2-4.42-.44-6.62-.07-.63-.54-1.28-.99-1.77-.54-.57-1.05-.18-1.65.2-.55.35-1.38.35-2.09.36-1.59.03-3.18.03-4.77-.06-1.95-.11-2.33.34-1.79,2.21.28.97.92,2.21.57,2.92-.56,1.14.43,1.12.68,1.62Z" />
    <path d="m174.65,192.47c-1.6.29-3.24.61-4.88.89-1.95.33-2.51-.13-2.43-2.07.05-1.35.36-2.7.33-4.05-.07-2.7-.37-5.39-.41-8.09-.02-1.58.24-3.17.49-4.73.09-.6.38-1.27.8-1.67.27-.26,1.34-.22,1.39-.08.51,1.47,1.71,1.14,2.77,1.18.4.02.8-.03,1.2-.02,1.64.03,1.88.38,1.94,1.96.09,2.48-.3,4.98.22,7.46.06.3,0,.63-.05.95-.44,2.72-.9,5.44-1.37,8.27Zm-2.26-1.91c0-4.7.99-9.3.41-14.14-.95-.09-1.78-.16-2.9-.27-.53,4.92.11,9.61-.05,14.41h2.54Z" />
    <path d="m64.28,198.3c-.22-4.66-.48-9.08-.61-13.5-.06-1.99.67-2.73,2.6-2.83,1.26-.07,2.54,0,3.78.18,1.49.21,2.74,1.66,2.19,3.41-1.02,3.21.3,6.2.2,9.29-.06,1.8-.52,2.44-2.25,2.71-1.46.23-2.91.59-4.37.83-.45.07-.94-.05-1.54-.09Zm2.79-2.97l.51.38c.31-.35.83-.66.91-1.06.67-3.24.52-6.44-.59-9.56-.44,1.57-1.14,3.25-.8,4.67.47,1.92.5,3.7-.03,5.57Z" />
    <path d="m377.32,205.39c.22,1.34.5,2.33.53,3.32.07,2.37.31,4.74-.31,7.09-.48,1.81-1.15,2.59-2.88,2.52-1.97-.08-3.92-.45-5.89-.58-1.12-.07-1.58-.77-1.73-1.65-.19-1.08-.23-2.21-.19-3.31.03-.86.62-1.85.36-2.56-.65-1.79,1.43-2.44,1.34-3.91,1.05-.31,2.08-.8,3.15-.89,1.73-.15,3.49-.04,5.62-.04Zm-3.4,10.52c0-1.99,0-4.02,0-6.04,0-.31-.13-.62-.18-.93-.19-1.09-.95-1.35-1.91-1.29-1.11.06-1.48.92-1.49,1.77-.01,1.47.13,2.96.33,4.43.25,1.95.91,2.37,3.26,2.07Z" />
    <path d="m252.71,206.93c1.29-.93,2.25-1.7,3.29-2.35.64-.4,1.38-.67,2.1-.91.44-.14.94-.11,1.42-.15,4-.37,4.53-.1,5.24,3.79.26,1.46-.21,3.05-.38,4.88-.97.36-2.06.78-3.16,1.15-1.27.43-2.55.87-3.85,1.19-.98.24-2.01.43-3.01.38-.93-.04-1.63-.64-1.63-1.71-.01-2.21,0-4.42,0-6.27Zm7.11-1.27q-2.27.26-3.43,1.55c1.37,1.57-.57,3.12-.04,4.98,1.49-.28,2.95-.55,4.49-.84.5-2.03.17-3.87-1.02-5.69Z" />
    <path d="m205.03,205.27c-2.06.06-4.11.14-6.16.15-.87,0-1.3-.54-1.26-1.4.13-3.09.25-6.18.43-9.27.11-1.93.16-1.93,2.26-2.26,1.16-.18,2.31-.46,3.48-.53,1.14-.07,1.82.58,1.79,1.75-.1,3.69.75,7.42-.55,11.57Zm-2.43-10.88c-1.29.15-1.57.96-1.59,1.86-.07,2.34-.07,4.69-.1,7.03,0,.06.09.12.16.2,1.26.28,1.5-.57,1.52-1.51.04-2.46.01-4.92.01-7.59Z" />
    <path d="m79.82,226.46c-1.6-1.71-.08-3.57-.38-5.31-.29-1.71-.49-3.43-.72-5.07.89-.98,1.78-.67,2.74-.5.89.16,1.84-.02,2.76.06.92.09,1.82.31,2.53.44.1,1.51.22,2.74.26,3.98.05,1.55.2,3.12.01,4.64-.13,1.1-1.29,1.34-2.24,1.44-1.65.17-3.31.21-4.95.31Zm3.57-2.05q.46-5.65-.48-6.54c-1.53,2.99-1.34,5.48.48,6.54Z" />
    <path d="m295.12,209.84c.71-.03,1.49,0,2.25-.11,2.19-.32,2.79,1.58,2.94,3.36.15,1.79.18,3.59.25,5.38.03.63.1,1.27.02,1.88-.23,1.7-2.62,2.95-4.16,2.15-.33-.17-.58-.71-.65-1.11-.23-1.31-.37-2.65-.51-3.97-.05-.46,0-.93,0-1.4-.04-1.94-.08-3.88-.13-6.18Zm2.29,6.69c.08,0,.15,0,.23,0v-1.97c-.08,0-.15,0-.23,0v1.97Z" />
    <path d="m413.41,220.71q-1.57,1.06-3.25-.65c-1.98,1.82-4.15-.26-6.18.39-.5-.94-.28-1.63.63-1.64,2.51-.02,5.05-.44,7.51.47.78.29,1.2.69,1.23,1.5,0,0,.06-.08.06-.08Z" />
    <path d="m355.83,178.2c.27-.89.46-1.53.73-2.43-.54-.36-1.22-.81-1.93-1.28v-2.38c.78.3,1.59.6,2.46.93q.77,3.72-1.26,5.15Z" />
    <path d="m355.19,167.43c.41.46.8.76.75.87-.57,1.33,1.4,2.25.55,3.78-1.28-1.25-2.29-2.41-1.3-4.65Z" />
    <path d="m355.56,178.55c.36.41,1.09,1.02,1,1.2-.26.53-.87.89-1.34,1.31l-.43-.25c.05-.66.09-1.31.14-1.97.21-.1.42-.19.62-.29Z" />
    <path d="m355.26,164.22c.33.89.66,1.78,1.02,2.77q-1.56-.54-1.5-2.69c.16-.03.32-.06.48-.08Z" />
  </g>
  <g>
    <path d="m224.68,460.8c1.82,1.4,3.88,1.14,5.79,1.5,3.07.58,6.14.46,9.08-.8.34-.15.77-.15,1.16-.14,2.49.03,4.86-.97,7.45-.5,1.23.22,2.72-.55,3.99-1.11,1.37-.6,2.63-1.46,4.34-2.44-.08-1.5-.28-3.37-.27-5.24,0-3.17-1.06-6.31-.22-9.5.08-.29,0-.65-.08-.95-.53-1.79-.43-3.59-.27-5.43.15-1.8-.01-3.62.02-5.43.05-2.5.07-5,.26-7.49.22-2.91.63-5.81.92-8.72.1-1.02.24-2.08.11-3.08-.32-2.48-.84-4.94-1.18-7.41-.26-1.88-.38-3.77-.56-5.66-.13-1.31-.25-2.63-.4-3.94-.21-1.81-.63-3.61-.65-5.42-.04-3.05,1.35-4.32,4.48-4.59.78-.07,1.53-.41,2.31-.57,2.15-.47,4.3-.88,6.44-1.38.76-.18,1.48-.55,2.19-.81,2.33.72,4.63,1.72,6.99.08.94,1.48.78,1.97-.71,2.05-4.78.27-9.35,1.5-13.92,2.82-.69.2-1.37.41-2.06.61-1.42.41-2.23,1.46-2.26,2.91-.02.93-.07,1.87-.01,2.8.04.61.23,1.21.39,1.81.14.53.54,1.1.45,1.58-.37,1.95.8,3.58.95,5.4.05.58,0,1.16-.02,1.74-.02.31-.26.75-.13.91,1.38,1.67.57,3.51.46,5.29,0,.16-.14.36-.08.46,1.47,2.24.34,4.65.45,6.97.06,1.3-.77,2.38-.92,3.71-.32,2.82-.49,5.6-.26,8.44.25,3.12.07,6.28.39,9.39.16,1.55.1,2.96-.28,4.43-.07.26.31.63.45.96.11.25.3.69.21.76-.85.71-.17,1.48-.13,2.21.1,1.98.22,3.96.33,5.95.02.32.02.64.09.96.21,1.06.56,2.11.62,3.18.07,1.12-1.43,1.49-1.45,2.82,0,.72-1,1.6-2.15,1.37-1.68-.34-2.95.5-4.41,1.18-1.61.75-3.26,1.71-5.36,1.08-1.26-.37-2.79.11-4.19.31-2.8.39-5.51,1.34-8.39,1.28-.85-.02-1.86.76-2.52.48-1.58-.66-3.2-.21-4.74-.55-1.61-.35-3.2-.88-4.74-1.48-.52-.2-1.01-.77-1.25-1.3-.83-1.81-1.63-3.64-2.28-5.52-.65-1.85-1.12-3.75-1.65-5.64-1-3.51-2.08-7-2.96-10.54-.51-2.08-.65-4.25-1.02-6.37-.72-4.14-1.46-8.27-2.24-12.4-.16-.85-.51-1.66-.76-2.48-2.5.28-4.72,1.53-7.28,1.21-1.03-.13-2.14.47-3.23.67-.82.15-1.7.37-2.49.23-2.42-.41-4.72.08-7.06.53-.91.18-1.86.13-2.8.17-.29.01-.74-.13-.86,0-1.23,1.47-2.48.77-3.85.21-1.99-.81-4-1.51-6.23-.54-.85.37-1.79-.21-2.12-1.14-.42-1.19-.84-2.44-.96-3.69-.31-3.29-.35-6.6-.71-9.88-.21-1.88-.8-3.72-1.26-5.57-.98-3.92-1.98-7.84-3.01-11.74-.52-1.99-1.13-3.96-1.76-6.15-1.87-.34-3.9-.06-5.87.32-3,.58-5.94.87-8.97.14-1.44-.35-2.98-.36-4.48-.35-3.02.02-6.06-.02-9.06.3-2.78.29-5.55.91-8.27,1.59-3.33.83-6.66,1.02-10.08.96-3-.04-6.02.5-9.01.92-1.78.25-3.51.99-5.3,1.13-3.09.24-6.21.34-9.29.18-2.06-.11-4.07-.16-6.13.13-1.88.26-2.75,1.36-3.29,2.97-.45,1.35-.83,2.73-1.32,4.06-1.4,3.81-2.35,7.72-2.49,11.8-.07,2.06-1.11,2.99-3.17,2.96-.4,0-.82.07-1.19-.04-4.91-1.41-9.76-.36-14.63.29-1.73.23-3.48.27-5.22.35-1.81.08-3.65-.04-5.44.21-1.36.19-2.66.86-4,1.25-.68.2-1.45.49-2.11.36-2.87-.58-4.86,1.16-6.92,2.57-1.5,1.02-1.24,2.94-1.26,4.4-.03,2.28.03,4.53-.56,6.76-.17.66-.12,1.5.14,2.13.71,1.73.36,3.39.07,5.12-.34,2.05-.15,4.07.17,6.15.48,3.19,1.05,6.42.35,9.7-.2.92.21,1.98.35,2.97.09.63.27,1.25.3,1.88.09,2.62.24,5.24.19,7.86-.06,3.08-.27,6.16-.47,9.24-.04.62-.3,1.22-.51,1.82-.3.85-.93,1.02-1.73.76-.91-.29-1.81-.58-2.72-.86-.38-.11-.78-.31-1.15-.27-4.54.62-9.17-.56-13.66.6-2.37.61-4.67,1.53-6.96,2.42-.51.2-.81.91-1.28,1.28-.27.22-.75.41-1.02.31-.28-.1-.57-.58-.58-.9-.03-1.17.19-2.27,1.51-2.7,1.43-.46,2.87-.87,4.3-1.3.38-.11.8-.14,1.14-.33,3.14-1.71,6.66-1.38,10.02-1.87.31-.05.66-.03.95.06,2.69.84,5.45-.03,7.92.42,2.12-1.78,1.74-4.02,1.69-6.18-.11-3.91-.25-7.81-.34-11.72-.05-2.38-.01-4.76-.04-7.15-.01-.95-.02-1.92-.15-2.86-.45-3.15-.61-6.28-.46-9.48.17-3.62-.15-7.27-.28-10.9-.1-2.63-.2-5.27.81-7.77.27-.68.73-1.49,1.33-1.8,3.23-1.64,6.5-3.08,10.28-3.22,2.38-.09,4.72-1.13,7.11-1.56,1.23-.22,2.56-.19,3.8,0,2.74.44,5.38-.16,8.02-.62,3.22-.56,6.43-.99,9.7-.6.99.12,1.98.25,3.12.39.25-1.93.59-3.57.64-5.21.1-3.57,1.09-6.87,2.53-10.09.45-1.01.91-2.03,1.24-3.09.46-1.48,1.16-2.32,2.9-2.66,2.02-.4,4.04-.39,6.02-.67,2.4-.33,4.67.55,7.01.13,2.24-.41,4.5-.72,6.75-1.1,2.25-.38,4.54-1.26,6.74-1.06,3.18.29,6.24-1.03,9.43-.2,1.17.3,2.58-.15,3.85-.43,2.36-.51,4.69-1.2,7.05-1.71,1.83-.4,3.75-1.09,5.54-.88,4.43.52,8.84-.53,13.29.32,2.43.46,5.05-.03,7.58-.16,2.54-.13,5.08-.36,7.62-.5.36-.02.73.2,1.23.34-.62,2.92.37,5.53,1.2,8.15.52,1.63,1.16,3.28,1.59,4.86.77,2.84,1.98,5.7,1.55,8.79-.02.16-.11.36-.05.47,1.2,2.26.67,4.93,1.71,7.26.39.88.26,2.01.31,3.02.03.77-.16,1.56-.03,2.3.39,2.26.74,2.53,2.94,2.61,2.91.1,5.85-.05,8.72.35,2.24.31,4.36.19,6.52-.24.31-.06.64-.11.95-.05,3.79.65,7.36-.75,11.03-1.2,1.72-.21,3.39-.8,5.09-1.16,1.57-.34,2.38.08,2.51,1.67.16,2,1.08,3.76,1.4,5.66.32,1.92.35,3.94.18,5.89-.12,1.45,0,2.67.46,4.09.68,2.15.71,4.51,1.07,6.76.26,1.6.37,3.23,1.71,4.49.57.54,1.1,1.56,1.01,2.28-.18,1.46.64,2.33,1.31,3.36.28.44.58.93.66,1.44.41,2.67,1.2,5.18,2.72,7.46.25.38.04,1.07.04,1.55Z" />
    <path d="m118.53,534.06c3.21.18,6.29.47,9.37.5,2.82.03,5.64-.34,8.45-.28,2.27.05,4.52.55,6.8.71,2.54.18,5.08.26,7.63.3,4.58.07,9.17.2,13.74.08,2.89-.08,5.77.09,8.7-.4,3.39-.57,6.92-.36,10.39-.42.52,0,1.06.32,1.58.51,1.78.62,3.54,1.33,5.36,1.82.89.24,1.9.11,2.85.04,3.18-.22,6.45.32,9.51-1.07.26-.12.66-.09.92.03,2.6,1.23,5.43.52,8.13.99,1.9.33,3.9.06,5.86.07,1.16,0,2.31.03,3.47,0,3.44-.06,6.89-.14,10.33-.21.55-.01,1.19-.15,1.65.07,1.02.5,1.8.29,2.65-.35.36-.27.86-.34,1.4-.54,1.09-3.93,1.56-7.98,1.7-12.12.07-1.97.46-3.79,2.95-4.61,2.04-.67,3.93-1.64,6.1-2.14,2.18-.51,4.35-1.35,6.58-1.83,2.95-.64,5.94-.62,8.94-.51.3.01.71.12.9-.03,1.91-1.56,4.24-.94,6.38-1.27.78-.12,1.57-.2,2.36-.27,2.43-.2,4.9-.75,7.26-.44,1.94.25,3.8,0,5.69.1.57.03,1.11.48,1.7.76.19-.5.35-.91.62-1.59,2.04,1.86,4.64.57,6.85,1.48-.62,1.67-2.08,2.49-3.68,1.8-1.87-.8-3.63-.69-5.52-.19-1.05.28-2.24.75-3.29-.15-.06-.05-.15-.13-.19-.12-2.7,1.12-5.39-.47-8.16.03-3.45.62-7.01.68-10.51,1.03-.78.08-1.55.37-2.31.57-.46.12-.99.47-1.37.35-1.75-.55-3.26.3-4.82.72-3.36.92-6.67,2.01-10.02,2.97-1.69.48-1.55,2.22-2.39,3.29-.46.58-.59,1.42-.94,2.3.37.77,1.8,1.72.02,2.69.09,1.21.17,2.43.29,3.64.05.51-.58,4.81-.93,5-.75.39-1.07,1.7-2.38,1.05-.36-.18-1.05.43-1.61.52-2.46.42-4.76,1.36-7.47.8-2.42-.51-5.05.04-7.59.15-3.5.16-7.01.48-10.51.48-3.58,0-7.15-.34-10.73-.47-1.58-.06-3.18-.16-4.73.04-5.17.68-10.08-.38-14.98-1.83-3.17-.94-6.24-.25-9.57.64-.5-.58-1.26-.99-2.45-.52-1.26.5-2.6,1.32-4.07.37-.2-.13-.62.05-.93.14-2.8.85-5.66.51-8.5.47-1.35-.02-2.75.18-4.03-.12-3-.71-6.05.18-9.06-.57-1.91-.48-3.99-.29-5.99-.4-.32-.02-.68.05-.95-.07-2.36-1.09-4.72-.05-7.08-.01-.95.02-1.89.27-2.84.25-2.15-.05-4.3-.18-6.45-.31-.95-.06-1.89-.21-2.84-.25-2.07-.08-3.12-1.19-3.55-3.16-.34-1.55-.42-1.46-2.24-1.14-1.84.32-3.74.35-5.55.78-3.67.88-7.48.47-11.14,1.44-1.57.41-3.29.22-4.93.4-2.03.23-4.08.44-6.06.9-.77.18-1.38.69-2.19.13-.2-.14-.67-.1-.88.05-1.29.93-2.55.24-3.87.12-1.8-.16-3.58-.91-5.46-.28-.73.24-1.58.1-2.37.17-1.47.12-2.95.23-4.42.4-1.25.14-2.48.38-3.73.55-1.17.16-2.35.27-3.52.42-1.52.19-3.05.32-4.54.61-2.07.41-4.14.87-6.17,1.47-1.03.3-1.95.96-2.8,1.4.23.95.59,1.69.54,2.39-.21,2.7-.5,5.39-.88,8.07-.22,1.52-.88,1.95-2.44,2-2.22.06-4.48.38-6.66.09-1.65-.22-3.32-1.04-4.74-1.95-1.37-.87-2.59-1.21-4.22-1.03-1.94.21-3.93,0-5.89-.14-2.46-.18-4.91-.51-7.36-.71-1.43-.12-2.48-.92-3.63-1.63,1.41-1.62,2.71-2.05,4.36-1.35,2.02.86,3.99,1.14,6.22.69,1.27-.25,2.73.55,4.12.81.48.09,1,.04,1.5,0,1.77-.17,3.53-.49,5.29-.5.88,0,1.82.45,2.64.86.76.38,1.52.89,2.08,1.52,1.23,1.4,2.49.21,3.69.09.41-.04,1.13-1.08,1.01-1.43-.58-1.77.62-3.07,1.02-4.55.18-.68.51-1.14.04-1.94-.41-.68-.35-1.69-.34-2.56.01-1.47.43-1.89,1.93-2.17,2.67-.5,5.34-.95,8.01-1.47.69-.14,1.33-.56,2.02-.65.43-.06.9.24,1.48.42.22-1.05,1.19-1.39,2.37-1.42.94-.03,1.89-.12,2.83-.11,1.02,0,2.07.24,3.06.09.91-.14,1.74-.94,2.63-.99,4.7-.29,9.38-1.56,14.15-.13,1.07.32,2.47.13,3.78-.13,3.93-.78,7.94-1.24,11.92-1.75,4.71-.6,9.47-.91,14.12-1.79,2.18-.41,4.3-.78,6.52-.89,2.01-.1,2.88.95,3.54,2.49.22.51.29,1.07.49,1.88Z" />
    <path d="m417.21,393.25c0-1.81-.06-3.47.02-5.12.06-1.33.13-2.7.5-3.97.83-2.92.67-5.92.93-8.88.18-2.12.19-4.25.27-6.38.08-2.26.53-2.76,2.59-3.21,1.75-.38,3.5-.79,5.23-1.16,2.17-.46,4.45-.86,6.82-.34,3.05.67,6.18,1.19,9.31.27.22-.07.51-.11.71-.02,1.66.74,3.28.33,4.96-.01,1.85-.38,3.75-.48,5.61-.78,3.7-.6,7.39-1.28,11.09-1.88.65-.11,1.33-.02,1.64-.02.79,2.16,1.43,3.91,2.12,5.8.22.04.68.13.86.17.23.9.23,1.77.64,2.35,1.02,1.43,1.08,1.64.09,2.87.44.67,1.04,1.2,1.17,1.82.97,4.55,1.84,9.13,2.73,13.7.06.3.09.67-.03.93-.71,1.54.11,2.95.45,4.33.88,3.57,1.85,7.08,1.75,10.82-.03,1.06.79,2.14,1.31,3.42-2.1,1.83.46,3.18,1.1,4.64.58,1.33,2.26.51,3.4.26.5.44.92,1.11,1.44,1.2,2.46.44,4.94.9,7.42,1,1.92.08,3.86-.36,6.06-.6-1.43-2.8,1.23-3.66,1.83-5.64,1.99.41,3.92.8,5.85,1.19.47,1.7.61,13.46.17,17.25-.82-.45-1.54-.83-2.27-1.23.49-.85.89-1.56,1.35-2.37-2.02-1.27-3.63-2.94-5.59-4.17-.22-.14-.29-.5-.43-.76-.44-.85-1.13-1.16-1.95-.66-1.01.61-1.91.49-2.9-.04-.45-.24-1.31-.46-1.56-.23-1.35,1.24-2.92.58-4.04.11-2.12-.88-4.55-.53-6.5-1.98-.55-.41-1.68-.55-2.28-.26-1.14.54-2.15.27-3.24.09-1.6-.27-1.96-.7-2.13-2.25-.34-3.06-.72-6.11-1.15-9.16-.65-4.61-1.68-9.19-1.95-13.82-.23-3.87-1.01-7.57-1.74-11.33-.89-4.62-2.47-8.96-4.21-13.28-.75-1.86-2.1-2.35-3.99-1.63-.63.24-1.35.29-2.03.4-.29.05-.65-.07-.87.07-2.17,1.37-4.52,1.3-6.91.92-.21-.03-.46.01-.67.1-2.51,1.03-4.96.46-7.49-.18-.31.77-.86,1.24-1.92,1.26-3.31.08-6.54-.54-9.8-.83-2.8-.25-5.86-.39-8.46,1.36-.26.17-.6.4-.66.65-.45,2.11-1.31,4.18,0,6.35.77,1.28.63,1.37-.31,2.19.02,1.41.2,2.55.03,3.64-.31,1.94-.92,3.82-1.23,5.76-.2,1.23-.25,2.55-.05,3.77.31,1.85.38,3.45-1.59,4.46-.39.2-.63.7-.84.93-1.22,0-2.36-.05-3.49.01-1.3.08-1.3.12-2.72-1.48,1.88-.14,3.5-.26,5.5-.41Z" />
    <path d="m382.73,514.72c-1.58-1.06-2.28.88-3.56.85-.63-.32-.92-.78-.55-1.51.28-.55.64-.59,1.29-.63,1.6-.11,3.18-.56,4.84-.9.34.77.72,1.61,1.17,2.63.61-.39,1.09-.7,1.86-1.2.15,1.19.27,2.09.41,3.18,1.12.13,1.35,1.02,1.76,2.03.64,1.59,1.31,3.16,1.86,4.8.31.93-.49,2.05.67,2.84.89.61,1.61,1.46,2.35,2.16,1.42-.71,2.63-1.03,4.07-.67,1.18.29,2.48.25,3.72.15,3.77-.31,7.53.62,11.3-.04.8-.14,1.7.41,2.55.42,4.56.03,9.12-.02,13.69-.01,1.16,0,2.33.19,3.48.1,1.8-.14,3.61-.73,5.39-.62,2.16.13,4.16-.63,6.24-.68,1.51-.04,3.03.35,4.56.45.99.06,2-.16,2.99-.11,2.71.12,5.34-.63,8.05-.57,1.4.03,2.82-.29,4.22-.48,1.64-.22,3.29-.68,4.86.28.2.12.45.32.64.28,3.76-.83,7.46.57,11.26.22,3.05-.28,6.18.32,9.28.46,1.73.08,3.41-.12,4.22-2.04.06-.14.07-.34.17-.43.45-.39,1.07-.66,1.34-1.14.22-.39.05-1.02.05-1.58,2.23.96,2.63.78,2.47-1.24.71.03,1.41.13,2.09.08.84-.06,1.17-.83.69-1.54-.47-.69-.98-1.35-1.59-2.18,1.81-.49,3.29-.31,4.81.48v15.24c-2,.42-3.98.83-6.1,1.27-.11-.71-.2-1.32-.3-1.93-.11-.1-.21-.24-.34-.3-.56-.25-1.22-.36-1.67-.73-1.26-1.03-2.71-1.23-4.25-1.3-2.54-.13-5.07-.32-7.61-.5-.47-.03-.95-.19-1.39-.1-3.8.75-7.54.17-11.33-.29-5.62-.68-11.27-.55-16.92-.03-2.52.23-5.11-.26-7.63-.02-3.46.33-6.93-.25-10.4.47-2.22.46-4.62,0-6.92.21-6.8.6-13.58-.46-20.39-.16-3.23.14-6.48-.24-9.72-.31-1.58-.04-3.22-.17-4.72.21-2.19.55-4.03-.63-6.05-.81-.4-.03-.84-.65-1.08-1.09-.41-.76-.74-1.58-.99-2.41-.88-3.02-2.42-5.72-3.99-8.42-.46-.79-.56-1.8-.86-2.81Z" />
    <path d="m304.97,399.18c1.44-.87,2.83-1.62,4.11-2.52,2.24-1.57,4.61-.84,6.97-.6.85.09,1.71.08,2.56.03.99-.06,1.97-.2,3.02-.71-.86-.15-1.71-.31-2.57-.46q.7-.69,5.19-.61c-.32.58-.6,1.09-1.15,2.08.93-.35,1.41-.53,1.98-.75.11.15.31.3.38.49.56,1.61,1.82,3.08,1.32,4.91-.42,1.57.03,3.03.13,4.54.12,1.67.09,3.35.14,5.02,0,.16,0,.34.08.46,1.3,2,1.29,4.04.58,6.29-.2.62.66,1.57,1.2,2.73-.04.12-.23.63-.38,1.15-.1.36-.35.84-.21,1.07,1.03,1.75.68,3.66.76,5.52.03.69.3,1.38.52,2.05.72,2.22.2,3.27-1.98,3.93-.53.16-1.06.45-1.6.47-2.68.08-5.35.05-7.92,1.15-1.28.55-2.76.66-4.14.98-1.01.23-2.02.56-2.91-.22-.34-2.46-.67-4.9-1.05-7.32-.03-.2-.5-.33-.84-.53,1.21-1.8.24-3.62.05-5.43-.14-1.3-.73-2.57-.75-3.86-.04-2.37-.71-4.57-1.26-6.83-.36-1.49-.28-3.08-.55-4.6-.49-2.76-1.1-5.49-1.69-8.43Zm17.58-1.23c-4.15-.18-8.21-1.34-12.28.14-.04.79-.1,1.35-.08,1.9.09,2.86.11,5.73.34,8.58.11,1.33.45,2.7,1.02,3.91.99,2.11.72,4.43,1.32,6.6.47,1.68-.38,3.49.68,5.26.64,1.07.6,2.6.66,3.93.07,1.52-.09,3.04-.15,4.57.21.08.41.15.62.23.57-.7,1.14-1.41,1.72-2.12,3.53,1.55,6.77-.04,9.98-1.04-.54-2.77-1.1-5.37-1.55-8-.25-1.47-.38-2.96-.49-4.45-.23-3.09-.62-6.19-.54-9.28.08-3.46-.54-6.76-1.24-10.22Z" />
    <path d="m101.93,458.76c-.1-4.25-.25-8.69-.25-13.13,0-.96.74-1.91.81-2.89.11-1.6.31-3.34-.16-4.81-.64-2.03-.79-3.86.18-5.73.48-.93.45-1.82.06-2.76-.68-1.66-.77-3.28-.05-5.04.35-.84,0-1.98-.08-2.98-.05-.54-.35-1.07-.35-1.61,0-1.22.91-2.12,2-1.71,2.8,1.03,5.7.21,8.52.75,3.56.67,7.22.72,10.71,1.8.15.05.32.19.45.16,2.52-.54,3.19,1.06,3.52,3.04.37,2.18.73,4.37,1.09,6.55.05.3.24.67.13.9-2.29,4.71-1.22,9.62-.88,14.48.01.16.05.33.13.46,2.18,3.22.73,6.61.33,9.89-.26,2.08-.83,2.17-2.96,2.06-2.91-.15-5.84-.7-8.75.1-.59.16-1.34.21-1.89,0-3.34-1.25-6.44-.12-9.48.97-1.13.4-1.94.46-3.06-.47Zm23.05-3.89c.18-.51.78-1.42.78-2.34,0-1.22-.35-2.49-.76-3.66-.78-2.23-1.68-4.47-1.72-6.83-.03-1.59.37-3.26.72-4.81.84-3.67,1.09-7.31.55-11.01-.33-2.26-1.42-3.4-3.64-3.77-2.43-.4-4.86-.82-7.31-1-2.4-.17-4.83-.05-7.24-.04-.13,0-.26.16-.53.35-.28,1.97-.63,4.05-.86,6.15-.2,1.8-.29,3.62-.38,5.43-.05,1.03-.18,2.11.05,3.08.59,2.47.3,4.85-.11,7.32-.37,2.21-.61,4.62-.1,6.74.35,1.45.72,2.82.65,4.32-.03.52.09,1.04.17,1.79.78-.24,1.38-.38,1.95-.61,2.33-.94,4.76-1.2,7.23-1.09,1.16.05,2.32.27,3.48.26,2.12-.03,4.24-.17,7.07-.3Z" />
    <path d="m352.53,514.26c-.66.69-1.23,1.19-2.42.96-2.91-.55-5.9.13-8.82-.12-2.03-.17-3.99,1.19-6,.14-1,.77-2.2.46-3.3.56-1.76.16-3.52.15-5.3.44-1.93.31-3.95.13-5.92-.02-2.91-.23-5.79-.69-8.7-.93-1.95-.16-3.92-.13-5.88-.17-3.38-.08-6.77-.15-10.43-.23.2-.86.36-1.51.57-2.41,1.76.24,3.4.36,4.97.75.56.14.88-.2,1.19-.17.96.09,1.94-1.36,2.9,0,.09.13.63.03.91-.09,1.02-.43,1.99-.15,3,.04,1.95.38,4.02-.06,5.9.99.73.4,1.01.1,2.27-1.37,1.47,1.25,3.34.58,5.05.93,1.43.29,2.94-.06,4.34.84.53.34,1.81.27,2.26-.14,1.23-1.13,2.12-.49,3.19.4.98-1.65,2.26-1.92,3.83-1.09.3.16.77.07,1.15.01.75-.11,1.51-.4,2.25-.37,1.35.05,2.67.25,3.86-.67.25-.2.74-.13,1.12-.11.73.04,1.45.14,2.43.25.04.14.18.57.31,1,.84-.52,1.69-1.05,2.51-1.56q.97,1.17,2.78,1.33c0,.28-.02.55-.02.83Z" />
    <path d="m341.71,378.98c-.52,3.74-1.26,5.27,1.16,7.64-.24,1.04-.51,2.17-.79,3.35.72.21,1.31.44,1.41,1.48.12,1.32-.02,2.87,1.4,3.76.39.24.8.57,1.22.62,1.1.12,2.2.08,2.9,1.23.12.2.85.03,1.7.03-.54.74-.91,1.25-1.35,1.86-1.97-1.07-3.94-1.12-5.98-1.01-1.52.09-2.1-.66-2.24-2.29.6-.54,1.62,1.45,2.15-.47-.78-.04-1.45-.08-2.47-.14.81-3.37-.59-6.53-.42-10.04-.87-.44-1.52-1.21-1.51-2.46,0-.62-.21-1.26-.43-1.85-.46-1.29-.87-2.66-2.93-2.4.42-.98.72-1.66,1.15-2.64,1.77,1.17,3.34,2.21,5.04,3.33Z" />
    <path d="m300.2,380.29c1.07.9,2.42.78,3.85-.54.22.59.38,1.05.54,1.48-2.6.58-5.03,1.31-7.5,1.64-4.1.55-8.18,1.64-12.41.46-1.45-.4-3.15-.04-4.72.14-.98.12-1.68-.1-2.36-1,.4-.28.89-.83,1.09-.74,1.86.85,3.33-.41,4.96-.77.57-.13,1.46-.25,1.76.06,1.36,1.41,3.09.9,4.67,1.14,1.65.25,3.24.42,4.88-.28,1.58-.68,3.3-1.02,5.23-1.58Z" />
    <path d="m352.53,514.26c0-.28.02-.55.02-.83.19-.29.4-.84.55-.82,1.44.19,2.87.47,4.39.73.22-.28.55-.71.91-1.18,1.64,1.09,3.41.45,5.03.34,2.02-.14,2-.42,2.39,1.86-1.16.05-2.32.07-3.48.17-.63.05-1.26.17-1.86.34-2.37.65-4.83.13-7.22.59-.16.03-.49-.78-.74-1.2Z" />
    <path d="m377.33,513.36c-.04.69-.07,1.36-.12,2.31-1.47-.14-2.8-.22-4.1-.42-1.69-.26-3.36-.67-5.06-.88-.48-.06-1.01.34-1.7.59v-1.9c.88-.19,1.67-.38,2.47-.53.46-.09,1-.3,1.38-.14,1.73.71,3.71.13,5.39,1.13.37.22,1.04-.08,1.74-.15Z" />
    <path d="m334.66,375.7v2.58c-1.5-.1-3.22-.74-4.32-.17-1.77.92-3.54.53-5.27.88-1.04.21-2.14.13-3.23.17-.31-1.33.39-1.76,1.22-1.62,1.49.26,2.78.28,4.22-.5.93-.51,2.29-.2,3.43-.4,1.23-.21,2.44-.58,3.96-.95Z" />
    <path d="m359.35,397.05c-1.45,2.11-3.79,1.43-5.8,2.34-.44-.63-.86-1.23-1.42-2.02,2.5-1.37,4.91.38,7.22-.32Z" />
    <path d="m360.2,396.69c2.83-.36,5.22-.66,7.62-.96-.39,1.87-1.24,2.38-2.97,1.89-.54-.15-1.23-.19-1.73.01-1.3.53-1.27.6-2.92-.94Z" />
    <path d="m317.79,378.82c0,1.23-.72,1.36-1.43,1.44-2.03.22-4.07.38-6.1.62-.71.08-1.36.07-1.36-.8,0-.84.59-.77,1.33-.79,1.85-.03,3.7-.32,5.55-.47.66-.05,1.33,0,2.01,0Z" />
    <path d="m390.23,394.91c-1.35.16-2.55.32-3.74.43-.15.01-.44-.27-.46-.44-.04-.27.05-.77.18-.8.75-.18,1.52-.28,2.29-.35.76-.08,1.34.18,1.74,1.17Z" />
    <path d="m395.84,394.64c-.44,2.13-1.43,1.92-2.36,1.78-1.19-.18-1.68-.97-1.81-2.15,1.67-1.02,2.22,2.24,4.16.37Z" />
    <path d="m396.9,396.32c-.29-.52-.52-.91-.94-1.65,1.08-.2,1.96-.36,2.86-.53.37,1.87-.84,1.85-1.92,2.18Z" />
    <path d="m402.07,396.32c-.92.05-1.74.09-2.69.14-.02-1.41.65-1.99,1.84-1.95,1.04.04,1.34.65.85,1.81Z" />
    <path d="m403.84,394.69h4.09c-1.01.82-1.68,1.36-2.62,2.13-.43-.62-.79-1.15-1.47-2.13Z" />
    <path d="m384.16,394.2c-.07.62-.1.92-.12,1.17-.96.46-1.93-.88-2.8.14-.18-.21-.51-.41-.52-.62-.01-.22.27-.65.44-.66.92-.07,1.85-.03,3-.03Z" />
    <path d="m318.85,378.08c.79.33,1.4.58,2.15.89-.73,1.12-1.54,1.24-2.76,1.03.21-.67.38-1.21.61-1.92Z" />
    <path d="m408.65,396.36q-.2-2.07,1.66-1.99c.11,1.24-.93,1.4-1.66,1.99Z" />
    <path d="m377.75,395.88c.28-.28.51-.67.84-.83.44-.2.96-.23,1.45-.29.02,0,.17.59.13.61-.36.17-.78.22-1.14.39-.32.15-.6.4-.9.6-.13-.16-.25-.32-.38-.48Z" />
    <path d="m316.35,393.62c.62.23,1.25.46,2.23.82q-1.74.57-2.46-.33c.07-.16.15-.32.22-.49Z" />
    <path d="m306.56,379.72q.02,1.57-1.7.89c.66-.34,1.13-.59,1.7-.89Z" />
    <path d="m371.46,395.57c.72-.22,1.45-.45,2.17-.67-.49.87-.84,2-1.96,1.38-.07-.24-.14-.48-.21-.72Z" />
    <path d="m376.24,396.22c.15-.57.3-1.13.45-1.7.85.83,1.11,1.53-.45,1.7Z" />
    <path d="m374.93,396.38c-.26-.47-.52-.72-.48-.91.04-.23.33-.42.51-.62.18.21.46.4.49.63.03.2-.24.44-.52.9Z" />
  </g>
</svg>
