<?xml version="1.0" encoding="UTF-8"?>
<svg id="runes-kerryCook-original" data-name="Runes - Kerry Cook original" xmlns="http://www.w3.org/2000/svg" viewBox="0 0 505.54 554.66" style="width:100%;height:auto;">
  <title id="runes4-kerryCook-original">Runes, layer 4 - Kerry Cook original</title>
  <g>
    <path d="m224.68,460.8c1.82,1.4,3.88,1.14,5.79,1.5,3.07.58,6.14.46,9.08-.8.34-.15.77-.15,1.16-.14,2.49.03,4.86-.97,7.45-.5,1.23.22,2.72-.55,3.99-1.11,1.37-.6,2.63-1.46,4.34-2.44-.08-1.5-.28-3.37-.27-5.24,0-3.17-1.06-6.31-.22-9.5.08-.29,0-.65-.08-.95-.53-1.79-.43-3.59-.27-5.43.15-1.8-.01-3.62.02-5.43.05-2.5.07-5,.26-7.49.22-2.91.63-5.81.92-8.72.1-1.02.24-2.08.11-3.08-.32-2.48-.84-4.94-1.18-7.41-.26-1.88-.38-3.77-.56-5.66-.13-1.31-.25-2.63-.4-3.94-.21-1.81-.63-3.61-.65-5.42-.04-3.05,1.35-4.32,4.48-4.59.78-.07,1.53-.41,2.31-.57,2.15-.47,4.3-.88,6.44-1.38.76-.18,1.48-.55,2.19-.81,2.33.72,4.63,1.72,6.99.08.94,1.48.78,1.97-.71,2.05-4.78.27-9.35,1.5-13.92,2.82-.69.2-1.37.41-2.06.61-1.42.41-2.23,1.46-2.26,2.91-.02.93-.07,1.87-.01,2.8.04.61.23,1.21.39,1.81.14.53.54,1.1.45,1.58-.37,1.95.8,3.58.95,5.4.05.58,0,1.16-.02,1.74-.02.31-.26.75-.13.91,1.38,1.67.57,3.51.46,5.29,0,.16-.14.36-.08.46,1.47,2.24.34,4.65.45,6.97.06,1.3-.77,2.38-.92,3.71-.32,2.82-.49,5.6-.26,8.44.25,3.12.07,6.28.39,9.39.16,1.55.1,2.96-.28,4.43-.07.26.31.63.45.96.11.25.3.69.21.76-.85.71-.17,1.48-.13,2.21.1,1.98.22,3.96.33,5.95.02.32.02.64.09.96.21,1.06.56,2.11.62,3.18.07,1.12-1.43,1.49-1.45,2.82,0,.72-1,1.6-2.15,1.37-1.68-.34-2.95.5-4.41,1.18-1.61.75-3.26,1.71-5.36,1.08-1.26-.37-2.79.11-4.19.31-2.8.39-5.51,1.34-8.39,1.28-.85-.02-1.86.76-2.52.48-1.58-.66-3.2-.21-4.74-.55-1.61-.35-3.2-.88-4.74-1.48-.52-.2-1.01-.77-1.25-1.3-.83-1.81-1.63-3.64-2.28-5.52-.65-1.85-1.12-3.75-1.65-5.64-1-3.51-2.08-7-2.96-10.54-.51-2.08-.65-4.25-1.02-6.37-.72-4.14-1.46-8.27-2.24-12.4-.16-.85-.51-1.66-.76-2.48-2.5.28-4.72,1.53-7.28,1.21-1.03-.13-2.14.47-3.23.67-.82.15-1.7.37-2.49.23-2.42-.41-4.72.08-7.06.53-.91.18-1.86.13-2.8.17-.29.01-.74-.13-.86,0-1.23,1.47-2.48.77-3.85.21-1.99-.81-4-1.51-6.23-.54-.85.37-1.79-.21-2.12-1.14-.42-1.19-.84-2.44-.96-3.69-.31-3.29-.35-6.6-.71-9.88-.21-1.88-.8-3.72-1.26-5.57-.98-3.92-1.98-7.84-3.01-11.74-.52-1.99-1.13-3.96-1.76-6.15-1.87-.34-3.9-.06-5.87.32-3,.58-5.94.87-8.97.14-1.44-.35-2.98-.36-4.48-.35-3.02.02-6.06-.02-9.06.3-2.78.29-5.55.91-8.27,1.59-3.33.83-6.66,1.02-10.08.96-3-.04-6.02.5-9.01.92-1.78.25-3.51.99-5.3,1.13-3.09.24-6.21.34-9.29.18-2.06-.11-4.07-.16-6.13.13-1.88.26-2.75,1.36-3.29,2.97-.45,1.35-.83,2.73-1.32,4.06-1.4,3.81-2.35,7.72-2.49,11.8-.07,2.06-1.11,2.99-3.17,2.96-.4,0-.82.07-1.19-.04-4.91-1.41-9.76-.36-14.63.29-1.73.23-3.48.27-5.22.35-1.81.08-3.65-.04-5.44.21-1.36.19-2.66.86-4,1.25-.68.2-1.45.49-2.11.36-2.87-.58-4.86,1.16-6.92,2.57-1.5,1.02-1.24,2.94-1.26,4.4-.03,2.28.03,4.53-.56,6.76-.17.66-.12,1.5.14,2.13.71,1.73.36,3.39.07,5.12-.34,2.05-.15,4.07.17,6.15.48,3.19,1.05,6.42.35,9.7-.2.92.21,1.98.35,2.97.09.63.27,1.25.3,1.88.09,2.62.24,5.24.19,7.86-.06,3.08-.27,6.16-.47,9.24-.04.62-.3,1.22-.51,1.82-.3.85-.93,1.02-1.73.76-.91-.29-1.81-.58-2.72-.86-.38-.11-.78-.31-1.15-.27-4.54.62-9.17-.56-13.66.6-2.37.61-4.67,1.53-6.96,2.42-.51.2-.81.91-1.28,1.28-.27.22-.75.41-1.02.31-.28-.1-.57-.58-.58-.9-.03-1.17.19-2.27,1.51-2.7,1.43-.46,2.87-.87,4.3-1.3.38-.11.8-.14,1.14-.33,3.14-1.71,6.66-1.38,10.02-1.87.31-.05.66-.03.95.06,2.69.84,5.45-.03,7.92.42,2.12-1.78,1.74-4.02,1.69-6.18-.11-3.91-.25-7.81-.34-11.72-.05-2.38-.01-4.76-.04-7.15-.01-.95-.02-1.92-.15-2.86-.45-3.15-.61-6.28-.46-9.48.17-3.62-.15-7.27-.28-10.9-.1-2.63-.2-5.27.81-7.77.27-.68.73-1.49,1.33-1.8,3.23-1.64,6.5-3.08,10.28-3.22,2.38-.09,4.72-1.13,7.11-1.56,1.23-.22,2.56-.19,3.8,0,2.74.44,5.38-.16,8.02-.62,3.22-.56,6.43-.99,9.7-.6.99.12,1.98.25,3.12.39.25-1.93.59-3.57.64-5.21.1-3.57,1.09-6.87,2.53-10.09.45-1.01.91-2.03,1.24-3.09.46-1.48,1.16-2.32,2.9-2.66,2.02-.4,4.04-.39,6.02-.67,2.4-.33,4.67.55,7.01.13,2.24-.41,4.5-.72,6.75-1.1,2.25-.38,4.54-1.26,6.74-1.06,3.18.29,6.24-1.03,9.43-.2,1.17.3,2.58-.15,3.85-.43,2.36-.51,4.69-1.2,7.05-1.71,1.83-.4,3.75-1.09,5.54-.88,4.43.52,8.84-.53,13.29.32,2.43.46,5.05-.03,7.58-.16,2.54-.13,5.08-.36,7.62-.5.36-.02.73.2,1.23.34-.62,2.92.37,5.53,1.2,8.15.52,1.63,1.16,3.28,1.59,4.86.77,2.84,1.98,5.7,1.55,8.79-.02.16-.11.36-.05.47,1.2,2.26.67,4.93,1.71,7.26.39.88.26,2.01.31,3.02.03.77-.16,1.56-.03,2.3.39,2.26.74,2.53,2.94,2.61,2.91.1,5.85-.05,8.72.35,2.24.31,4.36.19,6.52-.24.31-.06.64-.11.95-.05,3.79.65,7.36-.75,11.03-1.2,1.72-.21,3.39-.8,5.09-1.16,1.57-.34,2.38.08,2.51,1.67.16,2,1.08,3.76,1.4,5.66.32,1.92.35,3.94.18,5.89-.12,1.45,0,2.67.46,4.09.68,2.15.71,4.51,1.07,6.76.26,1.6.37,3.23,1.71,4.49.57.54,1.1,1.56,1.01,2.28-.18,1.46.64,2.33,1.31,3.36.28.44.58.93.66,1.44.41,2.67,1.2,5.18,2.72,7.46.25.38.04,1.07.04,1.55Z" />
    <path d="m118.53,534.06c3.21.18,6.29.47,9.37.5,2.82.03,5.64-.34,8.45-.28,2.27.05,4.52.55,6.8.71,2.54.18,5.08.26,7.63.3,4.58.07,9.17.2,13.74.08,2.89-.08,5.77.09,8.7-.4,3.39-.57,6.92-.36,10.39-.42.52,0,1.06.32,1.58.51,1.78.62,3.54,1.33,5.36,1.82.89.24,1.9.11,2.85.04,3.18-.22,6.45.32,9.51-1.07.26-.12.66-.09.92.03,2.6,1.23,5.43.52,8.13.99,1.9.33,3.9.06,5.86.07,1.16,0,2.31.03,3.47,0,3.44-.06,6.89-.14,10.33-.21.55-.01,1.19-.15,1.65.07,1.02.5,1.8.29,2.65-.35.36-.27.86-.34,1.4-.54,1.09-3.93,1.56-7.98,1.7-12.12.07-1.97.46-3.79,2.95-4.61,2.04-.67,3.93-1.64,6.1-2.14,2.18-.51,4.35-1.35,6.58-1.83,2.95-.64,5.94-.62,8.94-.51.3.01.71.12.9-.03,1.91-1.56,4.24-.94,6.38-1.27.78-.12,1.57-.2,2.36-.27,2.43-.2,4.9-.75,7.26-.44,1.94.25,3.8,0,5.69.1.57.03,1.11.48,1.7.76.19-.5.35-.91.62-1.59,2.04,1.86,4.64.57,6.85,1.48-.62,1.67-2.08,2.49-3.68,1.8-1.87-.8-3.63-.69-5.52-.19-1.05.28-2.24.75-3.29-.15-.06-.05-.15-.13-.19-.12-2.7,1.12-5.39-.47-8.16.03-3.45.62-7.01.68-10.51,1.03-.78.08-1.55.37-2.31.57-.46.12-.99.47-1.37.35-1.75-.55-3.26.3-4.82.72-3.36.92-6.67,2.01-10.02,2.97-1.69.48-1.55,2.22-2.39,3.29-.46.58-.59,1.42-.94,2.3.37.77,1.8,1.72.02,2.69.09,1.21.17,2.43.29,3.64.05.51-.58,4.81-.93,5-.75.39-1.07,1.7-2.38,1.05-.36-.18-1.05.43-1.61.52-2.46.42-4.76,1.36-7.47.8-2.42-.51-5.05.04-7.59.15-3.5.16-7.01.48-10.51.48-3.58,0-7.15-.34-10.73-.47-1.58-.06-3.18-.16-4.73.04-5.17.68-10.08-.38-14.98-1.83-3.17-.94-6.24-.25-9.57.64-.5-.58-1.26-.99-2.45-.52-1.26.5-2.6,1.32-4.07.37-.2-.13-.62.05-.93.14-2.8.85-5.66.51-8.5.47-1.35-.02-2.75.18-4.03-.12-3-.71-6.05.18-9.06-.57-1.91-.48-3.99-.29-5.99-.4-.32-.02-.68.05-.95-.07-2.36-1.09-4.72-.05-7.08-.01-.95.02-1.89.27-2.84.25-2.15-.05-4.3-.18-6.45-.31-.95-.06-1.89-.21-2.84-.25-2.07-.08-3.12-1.19-3.55-3.16-.34-1.55-.42-1.46-2.24-1.14-1.84.32-3.74.35-5.55.78-3.67.88-7.48.47-11.14,1.44-1.57.41-3.29.22-4.93.4-2.03.23-4.08.44-6.06.9-.77.18-1.38.69-2.19.13-.2-.14-.67-.1-.88.05-1.29.93-2.55.24-3.87.12-1.8-.16-3.58-.91-5.46-.28-.73.24-1.58.1-2.37.17-1.47.12-2.95.23-4.42.4-1.25.14-2.48.38-3.73.55-1.17.16-2.35.27-3.52.42-1.52.19-3.05.32-4.54.61-2.07.41-4.14.87-6.17,1.47-1.03.3-1.95.96-2.8,1.4.23.95.59,1.69.54,2.39-.21,2.7-.5,5.39-.88,8.07-.22,1.52-.88,1.95-2.44,2-2.22.06-4.48.38-6.66.09-1.65-.22-3.32-1.04-4.74-1.95-1.37-.87-2.59-1.21-4.22-1.03-1.94.21-3.93,0-5.89-.14-2.46-.18-4.91-.51-7.36-.71-1.43-.12-2.48-.92-3.63-1.63,1.41-1.62,2.71-2.05,4.36-1.35,2.02.86,3.99,1.14,6.22.69,1.27-.25,2.73.55,4.12.81.48.09,1,.04,1.5,0,1.77-.17,3.53-.49,5.29-.5.88,0,1.82.45,2.64.86.76.38,1.52.89,2.08,1.52,1.23,1.4,2.49.21,3.69.09.41-.04,1.13-1.08,1.01-1.43-.58-1.77.62-3.07,1.02-4.55.18-.68.51-1.14.04-1.94-.41-.68-.35-1.69-.34-2.56.01-1.47.43-1.89,1.93-2.17,2.67-.5,5.34-.95,8.01-1.47.69-.14,1.33-.56,2.02-.65.43-.06.9.24,1.48.42.22-1.05,1.19-1.39,2.37-1.42.94-.03,1.89-.12,2.83-.11,1.02,0,2.07.24,3.06.09.91-.14,1.74-.94,2.63-.99,4.7-.29,9.38-1.56,14.15-.13,1.07.32,2.47.13,3.78-.13,3.93-.78,7.94-1.24,11.92-1.75,4.71-.6,9.47-.91,14.12-1.79,2.18-.41,4.3-.78,6.52-.89,2.01-.1,2.88.95,3.54,2.49.22.51.29,1.07.49,1.88Z" />
    <path d="m417.21,393.25c0-1.81-.06-3.47.02-5.12.06-1.33.13-2.7.5-3.97.83-2.92.67-5.92.93-8.88.18-2.12.19-4.25.27-6.38.08-2.26.53-2.76,2.59-3.21,1.75-.38,3.5-.79,5.23-1.16,2.17-.46,4.45-.86,6.82-.34,3.05.67,6.18,1.19,9.31.27.22-.07.51-.11.71-.02,1.66.74,3.28.33,4.96-.01,1.85-.38,3.75-.48,5.61-.78,3.7-.6,7.39-1.28,11.09-1.88.65-.11,1.33-.02,1.64-.02.79,2.16,1.43,3.91,2.12,5.8.22.04.68.13.86.17.23.9.23,1.77.64,2.35,1.02,1.43,1.08,1.64.09,2.87.44.67,1.04,1.2,1.17,1.82.97,4.55,1.84,9.13,2.73,13.7.06.3.09.67-.03.93-.71,1.54.11,2.95.45,4.33.88,3.57,1.85,7.08,1.75,10.82-.03,1.06.79,2.14,1.31,3.42-2.1,1.83.46,3.18,1.1,4.64.58,1.33,2.26.51,3.4.26.5.44.92,1.11,1.44,1.2,2.46.44,4.94.9,7.42,1,1.92.08,3.86-.36,6.06-.6-1.43-2.8,1.23-3.66,1.83-5.64,1.99.41,3.92.8,5.85,1.19.47,1.7.61,13.46.17,17.25-.82-.45-1.54-.83-2.27-1.23.49-.85.89-1.56,1.35-2.37-2.02-1.27-3.63-2.94-5.59-4.17-.22-.14-.29-.5-.43-.76-.44-.85-1.13-1.16-1.95-.66-1.01.61-1.91.49-2.9-.04-.45-.24-1.31-.46-1.56-.23-1.35,1.24-2.92.58-4.04.11-2.12-.88-4.55-.53-6.5-1.98-.55-.41-1.68-.55-2.28-.26-1.14.54-2.15.27-3.24.09-1.6-.27-1.96-.7-2.13-2.25-.34-3.06-.72-6.11-1.15-9.16-.65-4.61-1.68-9.19-1.95-13.82-.23-3.87-1.01-7.57-1.74-11.33-.89-4.62-2.47-8.96-4.21-13.28-.75-1.86-2.1-2.35-3.99-1.63-.63.24-1.35.29-2.03.4-.29.05-.65-.07-.87.07-2.17,1.37-4.52,1.3-6.91.92-.21-.03-.46.01-.67.1-2.51,1.03-4.96.46-7.49-.18-.31.77-.86,1.24-1.92,1.26-3.31.08-6.54-.54-9.8-.83-2.8-.25-5.86-.39-8.46,1.36-.26.17-.6.4-.66.65-.45,2.11-1.31,4.18,0,6.35.77,1.28.63,1.37-.31,2.19.02,1.41.2,2.55.03,3.64-.31,1.94-.92,3.82-1.23,5.76-.2,1.23-.25,2.55-.05,3.77.31,1.85.38,3.45-1.59,4.46-.39.2-.63.7-.84.93-1.22,0-2.36-.05-3.49.01-1.3.08-1.3.12-2.72-1.48,1.88-.14,3.5-.26,5.5-.41Z" />
    <path d="m382.73,514.72c-1.58-1.06-2.28.88-3.56.85-.63-.32-.92-.78-.55-1.51.28-.55.64-.59,1.29-.63,1.6-.11,3.18-.56,4.84-.9.34.77.72,1.61,1.17,2.63.61-.39,1.09-.7,1.86-1.2.15,1.19.27,2.09.41,3.18,1.12.13,1.35,1.02,1.76,2.03.64,1.59,1.31,3.16,1.86,4.8.31.93-.49,2.05.67,2.84.89.61,1.61,1.46,2.35,2.16,1.42-.71,2.63-1.03,4.07-.67,1.18.29,2.48.25,3.72.15,3.77-.31,7.53.62,11.3-.04.8-.14,1.7.41,2.55.42,4.56.03,9.12-.02,13.69-.01,1.16,0,2.33.19,3.48.1,1.8-.14,3.61-.73,5.39-.62,2.16.13,4.16-.63,6.24-.68,1.51-.04,3.03.35,4.56.45.99.06,2-.16,2.99-.11,2.71.12,5.34-.63,8.05-.57,1.4.03,2.82-.29,4.22-.48,1.64-.22,3.29-.68,4.86.28.2.12.45.32.64.28,3.76-.83,7.46.57,11.26.22,3.05-.28,6.18.32,9.28.46,1.73.08,3.41-.12,4.22-2.04.06-.14.07-.34.17-.43.45-.39,1.07-.66,1.34-1.14.22-.39.05-1.02.05-1.58,2.23.96,2.63.78,2.47-1.24.71.03,1.41.13,2.09.08.84-.06,1.17-.83.69-1.54-.47-.69-.98-1.35-1.59-2.18,1.81-.49,3.29-.31,4.81.48v15.24c-2,.42-3.98.83-6.1,1.27-.11-.71-.2-1.32-.3-1.93-.11-.1-.21-.24-.34-.3-.56-.25-1.22-.36-1.67-.73-1.26-1.03-2.71-1.23-4.25-1.3-2.54-.13-5.07-.32-7.61-.5-.47-.03-.95-.19-1.39-.1-3.8.75-7.54.17-11.33-.29-5.62-.68-11.27-.55-16.92-.03-2.52.23-5.11-.26-7.63-.02-3.46.33-6.93-.25-10.4.47-2.22.46-4.62,0-6.92.21-6.8.6-13.58-.46-20.39-.16-3.23.14-6.48-.24-9.72-.31-1.58-.04-3.22-.17-4.72.21-2.19.55-4.03-.63-6.05-.81-.4-.03-.84-.65-1.08-1.09-.41-.76-.74-1.58-.99-2.41-.88-3.02-2.42-5.72-3.99-8.42-.46-.79-.56-1.8-.86-2.81Z" />
    <path d="m304.97,399.18c1.44-.87,2.83-1.62,4.11-2.52,2.24-1.57,4.61-.84,6.97-.6.85.09,1.71.08,2.56.03.99-.06,1.97-.2,3.02-.71-.86-.15-1.71-.31-2.57-.46q.7-.69,5.19-.61c-.32.58-.6,1.09-1.15,2.08.93-.35,1.41-.53,1.98-.75.11.15.31.3.38.49.56,1.61,1.82,3.08,1.32,4.91-.42,1.57.03,3.03.13,4.54.12,1.67.09,3.35.14,5.02,0,.16,0,.34.08.46,1.3,2,1.29,4.04.58,6.29-.2.62.66,1.57,1.2,2.73-.04.12-.23.63-.38,1.15-.1.36-.35.84-.21,1.07,1.03,1.75.68,3.66.76,5.52.03.69.3,1.38.52,2.05.72,2.22.2,3.27-1.98,3.93-.53.16-1.06.45-1.6.47-2.68.08-5.35.05-7.92,1.15-1.28.55-2.76.66-4.14.98-1.01.23-2.02.56-2.91-.22-.34-2.46-.67-4.9-1.05-7.32-.03-.2-.5-.33-.84-.53,1.21-1.8.24-3.62.05-5.43-.14-1.3-.73-2.57-.75-3.86-.04-2.37-.71-4.57-1.26-6.83-.36-1.49-.28-3.08-.55-4.6-.49-2.76-1.1-5.49-1.69-8.43Zm17.58-1.23c-4.15-.18-8.21-1.34-12.28.14-.04.79-.1,1.35-.08,1.9.09,2.86.11,5.73.34,8.58.11,1.33.45,2.7,1.02,3.91.99,2.11.72,4.43,1.32,6.6.47,1.68-.38,3.49.68,5.26.64,1.07.6,2.6.66,3.93.07,1.52-.09,3.04-.15,4.57.21.08.41.15.62.23.57-.7,1.14-1.41,1.72-2.12,3.53,1.55,6.77-.04,9.98-1.04-.54-2.77-1.1-5.37-1.55-8-.25-1.47-.38-2.96-.49-4.45-.23-3.09-.62-6.19-.54-9.28.08-3.46-.54-6.76-1.24-10.22Z" />
    <path d="m101.93,458.76c-.1-4.25-.25-8.69-.25-13.13,0-.96.74-1.91.81-2.89.11-1.6.31-3.34-.16-4.81-.64-2.03-.79-3.86.18-5.73.48-.93.45-1.82.06-2.76-.68-1.66-.77-3.28-.05-5.04.35-.84,0-1.98-.08-2.98-.05-.54-.35-1.07-.35-1.61,0-1.22.91-2.12,2-1.71,2.8,1.03,5.7.21,8.52.75,3.56.67,7.22.72,10.71,1.8.15.05.32.19.45.16,2.52-.54,3.19,1.06,3.52,3.04.37,2.18.73,4.37,1.09,6.55.05.3.24.67.13.9-2.29,4.71-1.22,9.62-.88,14.48.01.16.05.33.13.46,2.18,3.22.73,6.61.33,9.89-.26,2.08-.83,2.17-2.96,2.06-2.91-.15-5.84-.7-8.75.1-.59.16-1.34.21-1.89,0-3.34-1.25-6.44-.12-9.48.97-1.13.4-1.94.46-3.06-.47Zm23.05-3.89c.18-.51.78-1.42.78-2.34,0-1.22-.35-2.49-.76-3.66-.78-2.23-1.68-4.47-1.72-6.83-.03-1.59.37-3.26.72-4.81.84-3.67,1.09-7.31.55-11.01-.33-2.26-1.42-3.4-3.64-3.77-2.43-.4-4.86-.82-7.31-1-2.4-.17-4.83-.05-7.24-.04-.13,0-.26.16-.53.35-.28,1.97-.63,4.05-.86,6.15-.2,1.8-.29,3.62-.38,5.43-.05,1.03-.18,2.11.05,3.08.59,2.47.3,4.85-.11,7.32-.37,2.21-.61,4.62-.1,6.74.35,1.45.72,2.82.65,4.32-.03.52.09,1.04.17,1.79.78-.24,1.38-.38,1.95-.61,2.33-.94,4.76-1.2,7.23-1.09,1.16.05,2.32.27,3.48.26,2.12-.03,4.24-.17,7.07-.3Z" />
    <path d="m352.53,514.26c-.66.69-1.23,1.19-2.42.96-2.91-.55-5.9.13-8.82-.12-2.03-.17-3.99,1.19-6,.14-1,.77-2.2.46-3.3.56-1.76.16-3.52.15-5.3.44-1.93.31-3.95.13-5.92-.02-2.91-.23-5.79-.69-8.7-.93-1.95-.16-3.92-.13-5.88-.17-3.38-.08-6.77-.15-10.43-.23.2-.86.36-1.51.57-2.41,1.76.24,3.4.36,4.97.75.56.14.88-.2,1.19-.17.96.09,1.94-1.36,2.9,0,.09.13.63.03.91-.09,1.02-.43,1.99-.15,3,.04,1.95.38,4.02-.06,5.9.99.73.4,1.01.1,2.27-1.37,1.47,1.25,3.34.58,5.05.93,1.43.29,2.94-.06,4.34.84.53.34,1.81.27,2.26-.14,1.23-1.13,2.12-.49,3.19.4.98-1.65,2.26-1.92,3.83-1.09.3.16.77.07,1.15.01.75-.11,1.51-.4,2.25-.37,1.35.05,2.67.25,3.86-.67.25-.2.74-.13,1.12-.11.73.04,1.45.14,2.43.25.04.14.18.57.31,1,.84-.52,1.69-1.05,2.51-1.56q.97,1.17,2.78,1.33c0,.28-.02.55-.02.83Z" />
    <path d="m341.71,378.98c-.52,3.74-1.26,5.27,1.16,7.64-.24,1.04-.51,2.17-.79,3.35.72.21,1.31.44,1.41,1.48.12,1.32-.02,2.87,1.4,3.76.39.24.8.57,1.22.62,1.1.12,2.2.08,2.9,1.23.12.2.85.03,1.7.03-.54.74-.91,1.25-1.35,1.86-1.97-1.07-3.94-1.12-5.98-1.01-1.52.09-2.1-.66-2.24-2.29.6-.54,1.62,1.45,2.15-.47-.78-.04-1.45-.08-2.47-.14.81-3.37-.59-6.53-.42-10.04-.87-.44-1.52-1.21-1.51-2.46,0-.62-.21-1.26-.43-1.85-.46-1.29-.87-2.66-2.93-2.4.42-.98.72-1.66,1.15-2.64,1.77,1.17,3.34,2.21,5.04,3.33Z" />
    <path d="m300.2,380.29c1.07.9,2.42.78,3.85-.54.22.59.38,1.05.54,1.48-2.6.58-5.03,1.31-7.5,1.64-4.1.55-8.18,1.64-12.41.46-1.45-.4-3.15-.04-4.72.14-.98.12-1.68-.1-2.36-1,.4-.28.89-.83,1.09-.74,1.86.85,3.33-.41,4.96-.77.57-.13,1.46-.25,1.76.06,1.36,1.41,3.09.9,4.67,1.14,1.65.25,3.24.42,4.88-.28,1.58-.68,3.3-1.02,5.23-1.58Z" />
    <path d="m352.53,514.26c0-.28.02-.55.02-.83.19-.29.4-.84.55-.82,1.44.19,2.87.47,4.39.73.22-.28.55-.71.91-1.18,1.64,1.09,3.41.45,5.03.34,2.02-.14,2-.42,2.39,1.86-1.16.05-2.32.07-3.48.17-.63.05-1.26.17-1.86.34-2.37.65-4.83.13-7.22.59-.16.03-.49-.78-.74-1.2Z" />
    <path d="m377.33,513.36c-.04.69-.07,1.36-.12,2.31-1.47-.14-2.8-.22-4.1-.42-1.69-.26-3.36-.67-5.06-.88-.48-.06-1.01.34-1.7.59v-1.9c.88-.19,1.67-.38,2.47-.53.46-.09,1-.3,1.38-.14,1.73.71,3.71.13,5.39,1.13.37.22,1.04-.08,1.74-.15Z" />
    <path d="m334.66,375.7v2.58c-1.5-.1-3.22-.74-4.32-.17-1.77.92-3.54.53-5.27.88-1.04.21-2.14.13-3.23.17-.31-1.33.39-1.76,1.22-1.62,1.49.26,2.78.28,4.22-.5.93-.51,2.29-.2,3.43-.4,1.23-.21,2.44-.58,3.96-.95Z" />
    <path d="m359.35,397.05c-1.45,2.11-3.79,1.43-5.8,2.34-.44-.63-.86-1.23-1.42-2.02,2.5-1.37,4.91.38,7.22-.32Z" />
    <path d="m360.2,396.69c2.83-.36,5.22-.66,7.62-.96-.39,1.87-1.24,2.38-2.97,1.89-.54-.15-1.23-.19-1.73.01-1.3.53-1.27.6-2.92-.94Z" />
    <path d="m317.79,378.82c0,1.23-.72,1.36-1.43,1.44-2.03.22-4.07.38-6.1.62-.71.08-1.36.07-1.36-.8,0-.84.59-.77,1.33-.79,1.85-.03,3.7-.32,5.55-.47.66-.05,1.33,0,2.01,0Z" />
    <path d="m390.23,394.91c-1.35.16-2.55.32-3.74.43-.15.01-.44-.27-.46-.44-.04-.27.05-.77.18-.8.75-.18,1.52-.28,2.29-.35.76-.08,1.34.18,1.74,1.17Z" />
    <path d="m395.84,394.64c-.44,2.13-1.43,1.92-2.36,1.78-1.19-.18-1.68-.97-1.81-2.15,1.67-1.02,2.22,2.24,4.16.37Z" />
    <path d="m396.9,396.32c-.29-.52-.52-.91-.94-1.65,1.08-.2,1.96-.36,2.86-.53.37,1.87-.84,1.85-1.92,2.18Z" />
    <path d="m402.07,396.32c-.92.05-1.74.09-2.69.14-.02-1.41.65-1.99,1.84-1.95,1.04.04,1.34.65.85,1.81Z" />
    <path d="m403.84,394.69h4.09c-1.01.82-1.68,1.36-2.62,2.13-.43-.62-.79-1.15-1.47-2.13Z" />
    <path d="m384.16,394.2c-.07.62-.1.92-.12,1.17-.96.46-1.93-.88-2.8.14-.18-.21-.51-.41-.52-.62-.01-.22.27-.65.44-.66.92-.07,1.85-.03,3-.03Z" />
    <path d="m318.85,378.08c.79.33,1.4.58,2.15.89-.73,1.12-1.54,1.24-2.76,1.03.21-.67.38-1.21.61-1.92Z" />
    <path d="m408.65,396.36q-.2-2.07,1.66-1.99c.11,1.24-.93,1.4-1.66,1.99Z" />
    <path d="m377.75,395.88c.28-.28.51-.67.84-.83.44-.2.96-.23,1.45-.29.02,0,.17.59.13.61-.36.17-.78.22-1.14.39-.32.15-.6.4-.9.6-.13-.16-.25-.32-.38-.48Z" />
    <path d="m316.35,393.62c.62.23,1.25.46,2.23.82q-1.74.57-2.46-.33c.07-.16.15-.32.22-.49Z" />
    <path d="m306.56,379.72q.02,1.57-1.7.89c.66-.34,1.13-.59,1.7-.89Z" />
    <path d="m371.46,395.57c.72-.22,1.45-.45,2.17-.67-.49.87-.84,2-1.96,1.38-.07-.24-.14-.48-.21-.72Z" />
    <path d="m376.24,396.22c.15-.57.3-1.13.45-1.7.85.83,1.11,1.53-.45,1.7Z" />
    <path d="m374.93,396.38c-.26-.47-.52-.72-.48-.91.04-.23.33-.42.51-.62.18.21.46.4.49.63.03.2-.24.44-.52.9Z" />
  </g>
</svg>
