<?xml version="1.0" encoding="UTF-8"?>
<svg id="runes-kerryCook-original" data-name="Runes - Kerry Cook original" xmlns="http://www.w3.org/2000/svg" viewBox="0 0 505.54 554.66" style="width:100%;height:auto;">
  <title id="runes2-kerryCook-original">Runes, layer 2 - Kerry Cook original</title>
  <g>
    <path d="m356.34,188.79c.35-.12.71-.25,1.06-.37.22.64.64,1.29.63,1.93,0,1.44-.22,2.89-.36,4.41-.35-.33-.84-.79-1.68-1.59.31,2.16.64,3.93-.54,5.53.23,1.36,1.36.56,2.19.75.33,1.95.47,3.83-.79,5.64-.68.98-1.3,1.42-2.53,1.25-1.15-.16-2.35-.02-3.53.06-1.14.08-1.71.72-1.65,1.9.05.87,0,1.74.07,2.61.14,1.71.43,3.39-.41,5.07-.4.81-.8,2.25-.39,2.72,1.19,1.4.83,3.01,1.14,4.51.06.3.23.64.15.9-.69,2.31-.68,4.73-1.63,7.04-.94,2.3-1.05,4.93-1.54,7.41-.12.61-.36,1.2-.46,1.82-.22,1.32-1.1,1.72-2.25,1.59-2.32-.27-4.8.02-6.64-1.95-.23-.25-.72-.27-1.22-.44.15-3.24.22-6.46-1.11-9.55-1.38-.14-2.81-.47-4.18-.34-.93.09-2.07.63-2.62,1.35-.85,1.12-1.72.96-2.43.3-1.49-1.37-3.44-2.08-4.71-3.86-1.25-1.75-3.41-2.45-5.47-3.08-.6-.19-1.2-.41-1.77-.68-1.7-.81-2.84-2.01-2.73-4.04.13-2.38.11-4.78.4-7.13.34-2.73,1.64-5.37.68-8.21.92-2.27-.36-4.53.03-6.63-2.63-.65-5.14-1.46-7.71-1.84-2.26-.33-4.58-.24-6.88-.24-2.18,0-2.67-.4-3.39-2.4-1.47-4.05-1.82-8.15-1.26-12.4.18-1.36-.26-2.81-.41-4.1-2.57-1.24-4.99-.78-7.43-.34-2.44.44-3.77-.46-4.35-2.86-.69-2.88-1.92-3.51-4.6-2.47-1.05.41-2.17.64-3.35.98-.12,1.8.07,3.68,1.1,5.62,1.12,2.1,1.17,4.63.89,7.02-.24,2.11.44,4.03.82,6.03.2,1.06.29,2.23.05,3.27-.41,1.78-2.5,3.28-4.34,2.74-3.1-.91-5.77.51-8.63.9-.84.11-1.73.13-2.55-.04-.82-.17-1.4-.27-2.34.05-2.53.85-5.24,1.17-7.87,1.73-1.52.32-3.02.69-4.54,1.05-.18,1.98-.36,3.86-.52,5.73-.06.69-.13,1.39-.09,2.08.06.92.17,1.84.36,2.74.26,1.21.67,2.39.93,3.6.16.74-.17,1.58.74,2.13.22.13.29,1.08.08,1.26-1.07.95-.76,1.93-.36,3.02.16.43.06.95.12,1.42.16,1.24.29,2.5.54,3.72.13.66.85,1.41.66,1.88-.33.84-1.01,1.65-1.75,2.18-1.39,1-2.85,2.01-4.44,2.61-2.01.76-4.08,1.69-5.27,3.26-1.27,1.69-3.49,2.72-3.83,5.21-.09.67-1.32,1.19-1.8,1.6-2.62-.64-4.95-1.25-7.31-1.76-.37-.08-.84.21-1.25.38-2.11.85-3.33.58-4.87-1.05-.43-.46-.92-.9-1.46-1.2-1.55-.85-1.94-2.21-1.88-3.82.02-.47.2-1.01.03-1.4-.95-2.24-.1-4.38.25-6.56.24-1.48.5-2.96.69-4.45.48-3.69,1.04-7.37,1.36-11.07.16-1.89-.09-3.81-.19-5.71-.07-1.34-.13-2.69-.35-4.01-.16-.97-.38-2.04-.92-2.82-.64-.93-1-1.68-.51-2.8.24-.53.16-1.27.05-1.88-.53-2.94-.2-5.86.02-8.79.12-1.56.39-3.11.59-4.61-1.98-1.06-4.14-1.64-5.4-3.04-1.62-1.8-3.59-3.61-2.81-6.84.73-3.05.53-6.32.76-9.49.05-.71.1-1.47.36-2.12.98-2.37.48-4.67-.11-7-.34-1.38-.52-2.79-.81-4.4-1.21,0-2.31.07-3.4-.02-1.32-.11-2.63-.44-3.96-.52-1.07-.07-2.22-.12-3.23.17-2.91.84-5.74,1.95-8.65,2.76-1.44.4-2.99.51-4.49.49-1.53-.02-3-.11-4.42.7-.42.24-1.15.23-1.61.04-3.88-1.65-7.86-.71-11.79-.42-1.78.13-3.67-.24-5.32,1-1.03.78-1.48,1.31-.86,2.27,1.24,1.9.83,4,.96,6.02.15,2.46-.04,4.94.08,7.41.06,1.37.7,2.74.63,4.08-.12,2.35-.61,4.67-.9,7.01-.18,1.48-.35,2.97-.4,4.46-.05,1.72-.36,3.38-.09,5.18.32,2.2-.44,4.53-.53,6.82-.06,1.55-.24,3.38.46,4.62,1.05,1.87.98,3.78,1.25,5.71.12.84.44,1.67.48,2.51.07,1.48.05,2.98-.07,4.45-.03.32-.6.75-1,.87-2.8.85-5.62,1.63-8.43,2.43-.46.13-.93.2-1.62.34,0,1.01-.19,2.06.04,3,.55,2.33.86,4.65.6,7.04-.1.87-.23,1.77-.11,2.63.29,2.08-.67,3.56-2.44,4.18-2.73.96-5.15,2.59-8.09,3.15-3.32.64-6.48,2.13-9.79,2.83-2.3.49-4.5,1.2-6.73,1.86-.67.2-1.43.15-2.14.12-1.64-.07-2.51-.74-2.83-2.33-.19-.92-.49-2.03-.15-2.8.59-1.39-.21-2.25-.68-3.28-.43-.94-.84-1.9-1.39-2.76-.83-1.31-.84-2.71-.74-4.16.13-1.99-1.11-3.16-3-2.72-1.98.46-3.91,1.18-5.91,1.5-1.38.22-2.84-.03-4.26-.11-.2-.01-.53-.2-.58-.36-.66-2.42-2.63-4.49-2.12-7.2.31-1.62.89-3.18,1.36-4.77.24-.81.48-1.61.85-2.82-2.82,0-5.26.12-7.68-.04-1.86-.12-3.72-.51-5.54-.97-.7-.18-1.44-.77-1.87-1.38-1.33-1.89-3-3.38-5-4.49-1.28-.71-1.88-1.6-1.48-3.11.28-1.07.39-2.19.55-3.28.16-1.03.07-1.77-1.23-2.13-1.9-.54-2.89-2.12-2.64-4,.26-1.95.48-3.95,1.12-5.79.58-1.68,1.7-3.17,2.75-5.06-.59-.7-1.23-1.59-1.99-2.34-1.35-1.32-2.78-2.55-4.56-4.16-3.66.61-7.91.37-12.14,1.3-2.62.58-4.99,1.36-7.35,2.97-1.8-1.55-3.54-3.04-5.31-4.58-1.1.31-1.03,1.18-.87,2.08.48,2.66.85,5.35,1.48,7.97.7,2.87.71,5.61-.26,8.45-1.37,3.99-1.3,8.06-.25,12.17.38,1.49.54,3.05-.02,4.69-.34,1,.15,2.28.32,3.92-.46.8-1.34,1.52-2.99,1.19-.86-.17-1.82.17-2.93.31.45,2.12.6,3.94-.29,5.8-.39.81.13,2.01,0,3-.3,2.35-.78,4.66-.31,7.08.22,1.13-.09,2.37-.15,3.56-.04.64-.23,1.31-.07,1.9.67,2.56.05,5.05-.22,7.58-.3,2.87-.09,5.75.32,8.65.37,2.58.3,5.25.16,7.87-.13,2.35-3.39,5.06-5.4,4.33-2.58-.93-5.1-.6-7.55-.13-2.5.48-4.87.54-7.41-.15-.11-.82-.05-1.73,1.04-1.56,3.48.54,6.78-.76,10.19-.77,1.28,0,2.55.05,3.83.15,1.95.15,2.65-.21,2.9-2.2.28-2.18.67-4.52.19-6.6-.69-3.02-.46-6.03-.33-8.96.26-5.9,0-11.78.11-17.66.07-3.32.45-6.64.64-9.96.07-1.18.01-2.37.01-3.86,1.82-.29,3.58-.56,5.66-.89,0-2.01.53-4.23-.09-6.06-.96-2.83-.13-5.7-.84-8.48-.19-.75.28-1.69.53-2.52.4-1.29.92-2.54,1.31-3.84.48-1.61.68-3.15-.11-4.85-.6-1.32-.25-3.06-.81-4.41-1-2.43-.3-5.03-1.12-7.62.9-.73,1.9-1.52,1.5-3.05-.07-.28.57-.92,1-1.09.27-.11.83.28,1.14.58,1.72,1.62,3.4,3.28,5.14,4.98,2.54-1.69,5.25-2.18,8.06-2.33.48-.02.97-.07,1.42-.22,3.48-1.15,7.1-.56,10.64-.85.52-.04,1.21.39,1.63.79,1.58,1.55,3.06,3.2,4.63,4.77,1.5,1.49,1.77,3.29,1.39,5.24-.66,3.32.13,6.57.35,9.85.17,2.61.12,5.24.17,7.85,0,.39,0,.79,0,.79,2.16,2.18,4.11,4.14,6.06,6.09.22.22.53.57.75.54,2.41-.34,4.4,1.57,6.95,1.08,1.98-.38,4.14-.04,6.2.2,2.1.24,2.4.97,1.63,2.88-.75,1.84-1.45,3.7-2.1,5.57-.18.51-.27,1.13-.15,1.65.37,1.61.85,3.19,1.37,5.05,2.18-.43,4.19-.81,6.19-1.22.78-.16,1.53-.45,2.31-.6,3.61-.7,6.43,1.73,6.34,5.42-.04,1.53.14,2.98,1.38,4.12,1.52,1.39,1.13,3.43,1.41,5.16.55,3.34.39,3.46,3.62,2.56,6.05-1.68,12.09-3.44,18.11-5.24,1.05-.31,2-.97,3-1.48.89-.45,1.18-1.1,1.04-2.16-.13-.99.19-2.03.14-3.04-.08-1.5-.36-2.99-.46-4.48-.11-1.65-.01-3.32-.19-4.96-.18-1.68.72-2.27,2.1-2.64,2.22-.6,4.43-1.26,6.64-1.89.75-.21,1.5-.42,2.48-.69-.15-1.46-.31-2.79-.41-4.12-.08-1.09-.09-2.18-.14-3.27-.02-.4.09-.87-.09-1.18-.98-1.69-1.21-3.58-1.68-5.42-.23-.89-.29-1.61-.11-2.51.3-1.47.35-2.99.46-4.49.45-5.77.51-11.56,1.31-17.32.26-1.86.43-3.91-.33-5.86-.35-.9-.13-2.01-.22-3.02-.33-3.55-.7-7.09-1.01-10.64-.08-.94-.01-1.89-.01-2.65,2.15-1.01,4.17-2,6.22-2.9.35-.15.96-.08,1.27.14,1.1.77,2.13.73,3.22.02.31-.2.79-.43,1.07-.32,2.48,1,4.94.13,7.41.07.44-.01.88.29,1.33.43.45.14,1,.47,1.34.33,1.56-.67,3.13.03,4.67-.18,2.1-.29,4.19-.65,6.25-1.15,2.38-.58,4.75-1.24,7.05-2.06,2.08-.73,4.15-.44,6.12,0,1.03.23,1.95.36,2.97.22.63-.09,1.27-.14,1.91-.14,2.38-.03,2.79.33,3.29,2.67.31,1.45.51,2.96,1.06,4.32,1.33,3.28.39,6.44-.39,9.57-.51,2.04-.26,4.14-.86,6.16-.35,1.19-.31,2.5-.41,3.77-.05.63.08,1.1.65,1.63.77.71.99,2.1,1.81,2.64.82.55,2.15.25,3.15.63,1.45.55,2.79,1.38,4.41,2.21-.6,1.19-1.08,2.14-1.67,3.3.71,1.15.5,2.49.17,4-.74,3.41-1.17,7-.56,10.38.46,2.53,1.53,4.92,1.73,7.63.12,1.61,1.13,3.07.11,4.79-.23.4.35,1.28.61,2.08-.8,1.12-.95,2.35-.47,3.89.35,1.11.15,2.6-.3,3.72-.89,2.18-.63,4.52-1.23,6.7-.64,2.32-.72,4.7-1.13,7.03-.37,2.12,1.71,4.75,3.21,5.87.17.13.44.18.66.19,2.59.11,5.19.2,8.05.3,2.93-2.93,6.2-6.05,10.14-8.34.82-.48,1.71-.87,2.62-1.13,1.19-.34,1.68-1.1,1.68-2.25.01-3.08.12-6.16-.06-9.23-.07-1.2-.79-2.36-1.2-3.54-.2-.58-.51-1.18-.52-1.78-.05-3.09-.01-6.19-.02-9.28,0-.82-.16-1.66-.07-2.46.09-.84.4-1.65.71-2.84,3.36-.77,6.89-1.56,10.42-2.38,1.62-.37,3.22-.78,4.84-1.16,1.08-.26,2.12-.55,3.25.04.52.27,1.27.27,1.88.16,3.12-.57,6.22-1.22,9.59-1.89-.16-1.18-.38-2.4-.5-3.64-.29-3.16-.49-6.32-.82-9.47-.08-.81-.52-1.58-.73-2.39-.33-1.21-.76-2.42-.87-3.66-.15-1.64-.04-3.3-.04-5.23,1.2-.09,2.29-.29,3.36-.21,2.18.17,4.28-.04,6.35-.72.6-.2,1.25-.29,1.88-.32,1.07-.05,1.82.47,2.1,1.51.3,1.08.43,2.17,1.95,2.34.32.04.51,1.19.73,1.73,2.71.28,5.43.53,8.14.86,2.25.28,3.13,1.37,3.08,3.68-.07,3.16-.22,6.31-.18,9.47.01,1.17.45,2.35.72,3.51.17.7.4,1.39.69,2.4,1.6,0,3.41.11,5.19-.05.83-.07,1.47-.08,2.24.32,2.35,1.2,4.77,1.5,7.37.54,1.84-.68,3.44.8,3.26,2.69-.15,1.56-.2,3.12-.29,4.69-.16,3.02-.28,6.04-.5,9.05-.17,2.29-.53,4.57-.68,6.87-.2,3.06.27,4.48,3,5.26,2.93.84,5.37,2.32,7.17,4.79.6.83,1.31.89,2.08.48,1.41-.75,2.86-.72,4.4-.58,1.26.11,2.55-.04,3.82-.11,2.06-.11,2.99.72,3.7,2.59,1.15,3.03,1.08,6.17,1.05,9.51,1.11.09,2.02.17,3.16.26.28-1.79.45-3.44.8-5.05.43-1.99.74-4.06,1.57-5.88,1.12-2.46.69-4.89.15-7.19-.42-1.79-.22-3.45-.15-5.16.08-2.11.27-4.22.39-6.32.09-1.56.17-3.13.26-4.79,1.8-1.07,3.79-1.29,5.79-1.29,1.73,0,2.15-.18,2.37-1.9.16-1.23-.24-2.58.12-3.72.7-2.18.11-4.38.48-6.54.07-.38.21-.87.04-1.15-1.05-1.77-.63-3.58-.3-5.41.11-.61-.09-1.28-.03-1.91.06-.55.29-1.09.47-1.7.41.22.57.26.65.35,1.74,2.08,1.45,4.49,1.09,6.91q-1.13.29.07,1.67c-.07-.76-.11-1.25-.15-1.74Z" />
    <path d="m413.35,220.79c1.28-.31,2.57-.62,3.96-.96.12.64.08,1.25.27,1.34,2.9,1.27,2.59,3.77,2.4,6.04,1.44.29,2.8.55,4.14.85.29.07.67.22.81.46,1.21,1.97,3.23,2.15,5.19,2.57.58-1.88,1.87-2.91,3.53-3.37,1.97-.55,3.9-1.24,6.07-.87,1.28.22,2.67-.16,4.01-.31,2.27-.26,4.5-.29,6.54.97.31.19.71.35.87.64.52.93,1.21,1.39,2.32,1.27,1.05-.11,1.55.63,2.02,1.69-.44.13-.82.24-1.41.41,1.42,1.07.36,2.56.75,3.88.14.46-1.07.98-.92,1.96.08.49-.15.88.33,1.43.94,1.08,1.28,2.43.94,3.96-.27,1.2-.2,2.47-.28,3.67,3.03,1.74,6.22,2.32,9.47,2.72,1.09.13,2.16.57,3.25.65,1.38.11,2.79,0,4.18-.03,2.07-.05,4.11-.02,5.92,1.2-.87,2.09-1.26,2.24-3.25,1.29-.95-.45-1.85-.88-2.85.03-.32.29-1.04.22-1.57.17-1.86-.18-3.62-1.22-5.57-.63-1.15-1.14-3.17.2-4.18-1.47-.14-.23-.74-.18-1.12-.28-1.82-.5-3.68-.9-5.45-1.54-1.66-.6-1.84-1.33-1.72-3.15.14-2.19.39-4.36-.31-6.6-.56-1.78-.61-3.79-.49-5.68.1-1.62-.39-2.55-1.78-3.24-.95-.47-1.81-1.14-2.66-1.79-1.42-.7-2.93,1.39-4.53-.27-.94,1.65-2.62.61-3.98,1.05-1.47.48-3.09.51-4.61.73-.68,1.42-1.07,3.03-3.16,2.7-.28-.04-.67.6-1.19,1.09-2.53-1.17-5.09-2.36-7.66-3.53-.58-.26-1.17-.63-1.77-.66-1.92-.08-2.52-1.32-2.85-2.92-.24-1.16-.54-2.3-.8-3.38q-2.57-.4-2.8-2.18s-.06.07-.06.07Z" />
    <path d="m382.13,205.15c0-2.03.15-3.67-.04-5.27-.26-2.26-1.7-3.34-4.19-3.32-2.83.02-5.29-1.08-8.02-2.33.37-.74.67-1.34,1.02-2.04-.31-.83-.66-1.79-1.02-2.75.47-.58.93-1.15,1.4-1.72-.08-.11-.17-.23-.25-.34-.55.13-1.1.25-2.2.5.73-1.24,1.23-2.1,1.62-2.76-.65-.85-1.3-1.47-1.66-2.23-.57-1.21.89-1.46,1.3-2.19-1.62-2.48-1.5-4.13.18-5.31,2.25.92.83,3.2,1.85,4.63.41.58-.89.57-.48,1.55.64,1.53.68,3.32.96,5,.06.37.15.8.02,1.12-.64,1.67-.27,3.28.14,4.91,2.9,2.05,6.17,2.18,9.12,1.71,1.11,1.22,1.91,2.2,2.81,3.08.85.83,1.38,1.78,1.26,2.96-.05.46-.42.88-.68,1.38,1.36,2.12,1.51,5.31.31,9.09,1.16,1.14,1.52,2.68,1.2,4.31-.2,1.03.31,1.34,1.07,1.79,1.3.77,2.74.52,4.09.82,2.51.56,4.96,1.18,7.6.47,1.03-.28,2.29.25,3.43.49.14.03.17.54.32,1.05-2.08.08-3.94.92-5.92.27-.08-.02-.16-.08-.23-.06-3.33,1-6.24-1.17-9.46-1.24-1.41-.03-2.85-.88-4.18-1.55-.36-.18-.47-1.07-.52-1.64-.14-1.8-.19-3.6-.28-5.41-.02-.47-.3-1.07-.1-1.39,1.02-1.62.3-2.83-.48-3.6Z" />
    <path d="m357.22,158.54c-1.17,2.15-1.17,2.17.33,4.23-.25.27-.5.55-.74.81-.23-.07-.43-.07-.49-.17-.29-.45-.55-.92-.81-1.39-.24-.43-.54-.85-.69-1.31-.21-.65-.2-1.39-.47-2.01-.38-.88-.58-1.67-.47-2.71.1-1.02-.49-2.14-.89-3.17-.27-.7-.72-1.33-1.09-1.98,3.2-1.44,6.28-.4,9.3-.62,2.71-.2,5.43-.31,8.45-.48.12.63.41,1.44.42,2.27.08,4.07-.04,8.14.16,12.2.12,2.43.71,4.84,1.09,7.25.1.62.34,1.27.23,1.85-.1.53-.52,1.29-.94,1.4-.71.18-1.05-.41-1.45-1.15-1.16-2.18-1.16-4.56-1.62-6.86-.31-1.55-.9-3.05,0-4.67.35-.62.18-1.56.15-2.35-.1-2.21-.2-4.42-.44-6.62-.07-.63-.54-1.28-.99-1.77-.54-.57-1.05-.18-1.65.2-.55.35-1.38.35-2.09.36-1.59.03-3.18.03-4.77-.06-1.95-.11-2.33.34-1.79,2.21.28.97.92,2.21.57,2.92-.56,1.14.43,1.12.68,1.62Z" />
    <path d="m174.65,192.47c-1.6.29-3.24.61-4.88.89-1.95.33-2.51-.13-2.43-2.07.05-1.35.36-2.7.33-4.05-.07-2.7-.37-5.39-.41-8.09-.02-1.58.24-3.17.49-4.73.09-.6.38-1.27.8-1.67.27-.26,1.34-.22,1.39-.08.51,1.47,1.71,1.14,2.77,1.18.4.02.8-.03,1.2-.02,1.64.03,1.88.38,1.94,1.96.09,2.48-.3,4.98.22,7.46.06.3,0,.63-.05.95-.44,2.72-.9,5.44-1.37,8.27Zm-2.26-1.91c0-4.7.99-9.3.41-14.14-.95-.09-1.78-.16-2.9-.27-.53,4.92.11,9.61-.05,14.41h2.54Z" />
    <path d="m64.28,198.3c-.22-4.66-.48-9.08-.61-13.5-.06-1.99.67-2.73,2.6-2.83,1.26-.07,2.54,0,3.78.18,1.49.21,2.74,1.66,2.19,3.41-1.02,3.21.3,6.2.2,9.29-.06,1.8-.52,2.44-2.25,2.71-1.46.23-2.91.59-4.37.83-.45.07-.94-.05-1.54-.09Zm2.79-2.97l.51.38c.31-.35.83-.66.91-1.06.67-3.24.52-6.44-.59-9.56-.44,1.57-1.14,3.25-.8,4.67.47,1.92.5,3.7-.03,5.57Z" />
    <path d="m377.32,205.39c.22,1.34.5,2.33.53,3.32.07,2.37.31,4.74-.31,7.09-.48,1.81-1.15,2.59-2.88,2.52-1.97-.08-3.92-.45-5.89-.58-1.12-.07-1.58-.77-1.73-1.65-.19-1.08-.23-2.21-.19-3.31.03-.86.62-1.85.36-2.56-.65-1.79,1.43-2.44,1.34-3.91,1.05-.31,2.08-.8,3.15-.89,1.73-.15,3.49-.04,5.62-.04Zm-3.4,10.52c0-1.99,0-4.02,0-6.04,0-.31-.13-.62-.18-.93-.19-1.09-.95-1.35-1.91-1.29-1.11.06-1.48.92-1.49,1.77-.01,1.47.13,2.96.33,4.43.25,1.95.91,2.37,3.26,2.07Z" />
    <path d="m252.71,206.93c1.29-.93,2.25-1.7,3.29-2.35.64-.4,1.38-.67,2.1-.91.44-.14.94-.11,1.42-.15,4-.37,4.53-.1,5.24,3.79.26,1.46-.21,3.05-.38,4.88-.97.36-2.06.78-3.16,1.15-1.27.43-2.55.87-3.85,1.19-.98.24-2.01.43-3.01.38-.93-.04-1.63-.64-1.63-1.71-.01-2.21,0-4.42,0-6.27Zm7.11-1.27q-2.27.26-3.43,1.55c1.37,1.57-.57,3.12-.04,4.98,1.49-.28,2.95-.55,4.49-.84.5-2.03.17-3.87-1.02-5.69Z" />
    <path d="m205.03,205.27c-2.06.06-4.11.14-6.16.15-.87,0-1.3-.54-1.26-1.4.13-3.09.25-6.18.43-9.27.11-1.93.16-1.93,2.26-2.26,1.16-.18,2.31-.46,3.48-.53,1.14-.07,1.82.58,1.79,1.75-.1,3.69.75,7.42-.55,11.57Zm-2.43-10.88c-1.29.15-1.57.96-1.59,1.86-.07,2.34-.07,4.69-.1,7.03,0,.06.09.12.16.2,1.26.28,1.5-.57,1.52-1.51.04-2.46.01-4.92.01-7.59Z" />
    <path d="m79.82,226.46c-1.6-1.71-.08-3.57-.38-5.31-.29-1.71-.49-3.43-.72-5.07.89-.98,1.78-.67,2.74-.5.89.16,1.84-.02,2.76.06.92.09,1.82.31,2.53.44.1,1.51.22,2.74.26,3.98.05,1.55.2,3.12.01,4.64-.13,1.1-1.29,1.34-2.24,1.44-1.65.17-3.31.21-4.95.31Zm3.57-2.05q.46-5.65-.48-6.54c-1.53,2.99-1.34,5.48.48,6.54Z" />
    <path d="m295.12,209.84c.71-.03,1.49,0,2.25-.11,2.19-.32,2.79,1.58,2.94,3.36.15,1.79.18,3.59.25,5.38.03.63.1,1.27.02,1.88-.23,1.7-2.62,2.95-4.16,2.15-.33-.17-.58-.71-.65-1.11-.23-1.31-.37-2.65-.51-3.97-.05-.46,0-.93,0-1.4-.04-1.94-.08-3.88-.13-6.18Zm2.29,6.69c.08,0,.15,0,.23,0v-1.97c-.08,0-.15,0-.23,0v1.97Z" />
    <path d="m413.41,220.71q-1.57,1.06-3.25-.65c-1.98,1.82-4.15-.26-6.18.39-.5-.94-.28-1.63.63-1.64,2.51-.02,5.05-.44,7.51.47.78.29,1.2.69,1.23,1.5,0,0,.06-.08.06-.08Z" />
    <path d="m355.83,178.2c.27-.89.46-1.53.73-2.43-.54-.36-1.22-.81-1.93-1.28v-2.38c.78.3,1.59.6,2.46.93q.77,3.72-1.26,5.15Z" />
    <path d="m355.19,167.43c.41.46.8.76.75.87-.57,1.33,1.4,2.25.55,3.78-1.28-1.25-2.29-2.41-1.3-4.65Z" />
    <path d="m355.56,178.55c.36.41,1.09,1.02,1,1.2-.26.53-.87.89-1.34,1.31l-.43-.25c.05-.66.09-1.31.14-1.97.21-.1.42-.19.62-.29Z" />
    <path d="m355.26,164.22c.33.89.66,1.78,1.02,2.77q-1.56-.54-1.5-2.69c.16-.03.32-.06.48-.08Z" />
  </g>
</svg>
